<?xml version="1.0" encoding="utf-8"?>
<!-- Generator: Adobe Illustrator 24.0.3, SVG Export Plug-In . SVG Version: 6.00 Build 0)  -->
<!DOCTYPE svg PUBLIC "-//W3C//DTD SVG 1.1//EN" "http://www.w3.org/Graphics/SVG/1.1/DTD/svg11.dtd" [
	<!ENTITY ns_extend "http://ns.adobe.com/Extensibility/1.0/">
	<!ENTITY ns_ai "http://ns.adobe.com/AdobeIllustrator/10.0/">
	<!ENTITY ns_graphs "http://ns.adobe.com/Graphs/1.0/">
	<!ENTITY ns_vars "http://ns.adobe.com/Variables/1.0/">
	<!ENTITY ns_imrep "http://ns.adobe.com/ImageReplacement/1.0/">
	<!ENTITY ns_sfw "http://ns.adobe.com/SaveForWeb/1.0/">
	<!ENTITY ns_custom "http://ns.adobe.com/GenericCustomNamespace/1.0/">
	<!ENTITY ns_adobe_xpath "http://ns.adobe.com/XPath/1.0/">
]>
<svg version="1.1" id="Layer_1" xmlns:x="&ns_extend;" xmlns:i="&ns_ai;" xmlns:graph="&ns_graphs;"
	 xmlns="http://www.w3.org/2000/svg" xmlns:xlink="http://www.w3.org/1999/xlink" x="0px" y="0px" viewBox="0 0 84.5 81.7"
	 style="enable-background:new 0 0 84.5 81.7;" xml:space="preserve">
<style type="text/css">
	.st0{fill-rule:evenodd;clip-rule:evenodd;stroke:#000000;stroke-width:1.25;}
	.st1{fill-rule:evenodd;clip-rule:evenodd;fill:url(#SVGID_1_);}
</style>
<metadata>
	<sfw  xmlns="&ns_sfw;">
		<slices></slices>
		<sliceSourceBounds  bottomLeftOrigin="true" height="81.7" width="84.5" x="8.9" y="8.1"></sliceSourceBounds>
	</sfw>
</metadata>
<g transform="translate(-143.83 -267.59)">
	<path class="st0" d="M186.2,268.2c-6.8,0-12.2,5.6-12.2,12.4c0,3.9,4.2,9.2,4.6,9.4c2.5,2.8,6.4,11.1,5.6,17.8
		c-6.3,0.2-14.8-2.7-17.2-5.4c-0.2-0.1-6.1-5.2-10.2-5.2c-6.8,0-12.4,5.5-12.4,12.2s5.6,12.2,12.4,12.2c3.9,0,9.2-4.2,9.4-4.6
		c2.8-2.5,11.3-6.5,18-5.6c0.1,2.1-0.4,29.8-2,31.2c-3.6,3-8.2,2.8-8.2,2.8l0.1,3.3l23.8-0.1l0.1-3.3c0,0-4.5,0.2-8.1-2.8
		c-1.7-1.4-2.2-30.3-2.2-31h0.2v0c6.3-0.2,14.8,2.7,17.3,5.4c0.2,0.1,6.1,5.2,10.2,5.2c6.8,0,12.4-5.5,12.4-12.2
		s-5.6-12.2-12.4-12.2c-3.9,0-9.2,4.2-9.4,4.6c-2.8,2.5-11.3,6.5-18,5.6v0.1c-0.4-3,2.5-14.8,5.3-17.3c0.1-0.2,5.2-6.1,5.2-10.2
		C198.5,273.8,193,268.2,186.2,268.2L186.2,268.2z"/>
	
		<linearGradient id="SVGID_1_" gradientUnits="userSpaceOnUse" x1="-489.4634" y1="688.066" x2="-488.9585" y2="687.6762" gradientTransform="matrix(83.2811 0 0 -80.4069 40905.0664 55603.5664)">
		<stop  offset="0" style="stop-color:#FFFFFF;stop-opacity:0.5"/>
		<stop  offset="1" style="stop-color:#FFFFFF;stop-opacity:0"/>
	</linearGradient>
	<path class="st1" d="M186.2,268.1c-6.8,0-12.2,5.6-12.2,12.4c0,3.9,4.2,9.2,4.6,9.4c2.5,2.8,6.4,11.1,5.6,17.8
		c-6.3,0.2-14.8-2.7-17.2-5.4c-0.2-0.1-6.1-5.2-10.2-5.2c-6.8,0-12.4,5.5-12.4,12.2s5.6,12.2,12.4,12.2c3.9,0,9.2-4.2,9.4-4.6
		c2.8-2.5,11.3-6.5,18-5.6c0.1,2.1-0.4,29.8-2,31.2c-3.6,3-8.2,2.8-8.2,2.8l0.1,3.3l23.8-0.1l0.1-3.3c0,0-4.5,0.2-8.1-2.8
		c-1.7-1.4-2.2-30.3-2.2-31h0.2v0c6.3-0.2,14.8,2.7,17.3,5.4c0.2,0.1,6.1,5.2,10.2,5.2c6.8,0,12.4-5.5,12.4-12.2
		s-5.6-12.2-12.4-12.2c-3.9,0-9.2,4.2-9.4,4.6c-2.8,2.5-11.3,6.5-18,5.6v0.1c-0.4-3,2.5-14.8,5.3-17.3c0.1-0.2,5.2-6.1,5.2-10.2
		C198.4,273.6,193,268.1,186.2,268.1L186.2,268.1z"/>
</g>
</svg>
