<?xml version="1.0" encoding="utf-8"?>
<!-- Generator: Adobe Illustrator 23.0.5, SVG Export Plug-In . SVG Version: 6.00 Build 0)  -->
<svg version="1.1" id="publicdomainvectors.org" xmlns="http://www.w3.org/2000/svg" xmlns:xlink="http://www.w3.org/1999/xlink"
	 x="0px" y="0px" viewBox="0 0 223.88 291.58" style="enable-background:new 0 0 223.88 291.58;" xml:space="preserve">
<style type="text/css">
	.st0{fill-rule:evenodd;clip-rule:evenodd;fill:#FF4000;}
	.st1{fill-rule:evenodd;clip-rule:evenodd;fill:#FF6924;}
	.st2{fill-rule:evenodd;clip-rule:evenodd;fill:#FF854C;}
	.st3{fill-rule:evenodd;clip-rule:evenodd;fill:#FF9C6E;}
	.st4{fill-rule:evenodd;clip-rule:evenodd;fill:#FFD5C2;}
</style>
<g>
	<g>
		<polygon class="st0" points="0,145.79 111.94,0 223.88,145.79 111.94,291.58 		"/>
		<path class="st1" d="M0,145.79L111.94,0l80.27,104.54c-14.25,70.24-59.88,124.81-117.13,139.04L0,145.79z"/>
		<path class="st2" d="M17.38,134.48l59.31,77.23c48.13-17.32,79.44-65.75,91.35-114.25l-61.12-79.59L17.38,134.48z"/>
		<path class="st3" d="M45.33,110.63l30.76,40.05c24.96-8.98,41.2-34.1,47.37-59.25l-31.7-41.28L45.33,110.63z"/>
		<path class="st4" d="M105.28,85.15c7.87,0,14.3-6.42,14.3-14.3c0-7.87-6.42-14.3-14.3-14.3c-7.88,0-14.3,6.42-14.3,14.3
			C90.98,78.72,97.4,85.15,105.28,85.15z"/>
		<path class="st4" d="M124.38,105.54c5.45,0,9.9-4.45,9.9-9.9c0-5.45-4.45-9.9-9.9-9.9c-5.45,0-9.9,4.45-9.9,9.9
			C114.48,101.09,118.92,105.54,124.38,105.54z"/>
	</g>
</g>
</svg>
