<?xml version="1.0" encoding="utf-8"?>
<!-- Generator: Adobe Illustrator 23.0.5, SVG Export Plug-In . SVG Version: 6.00 Build 0)  -->
<svg version="1.1" id="publicdomainvectors.org" xmlns="http://www.w3.org/2000/svg" xmlns:xlink="http://www.w3.org/1999/xlink"
	 x="0px" y="0px" viewBox="0 0 747.42 268.53" style="enable-background:new 0 0 747.42 268.53;" xml:space="preserve">
<style type="text/css">
	.st0{fill:#BCBEC0;}
	.st1{fill:url(#SVGID_1_);}
	.st2{fill:url(#SVGID_2_);}
	.st3{fill:url(#SVGID_3_);}
	.st4{fill:url(#SVGID_4_);}
	.st5{fill:url(#SVGID_5_);}
	.st6{fill:url(#SVGID_6_);}
	.st7{fill:#A7A9AC;}
	.st8{fill:url(#SVGID_7_);}
	.st9{fill:url(#SVGID_8_);}
	.st10{fill:url(#SVGID_9_);}
	.st11{fill:url(#SVGID_10_);}
	.st12{fill:url(#SVGID_11_);}
	.st13{fill:url(#SVGID_12_);}
	.st14{fill:#414042;}
	.st15{fill:url(#SVGID_13_);}
	.st16{fill:url(#SVGID_14_);}
	.st17{fill:url(#SVGID_15_);}
	.st18{fill:url(#SVGID_16_);}
	.st19{fill:url(#SVGID_17_);}
	.st20{fill:url(#SVGID_18_);}
	.st21{fill:url(#SVGID_19_);}
	.st22{fill:url(#SVGID_20_);}
	.st23{fill:url(#SVGID_21_);}
	.st24{fill:url(#SVGID_22_);}
	.st25{fill:url(#SVGID_23_);}
	.st26{fill:url(#SVGID_24_);}
</style>
<g>
	<g>
		<path class="st0" d="M177.48,257.52c0,6.08-4.93,11.01-11.01,11.01H15.01C8.93,268.53,4,263.6,4,257.52V15.38
			C4,9.3,8.93,4.38,15.01,4.38h151.47c6.08,0,11.01,4.93,11.01,11.01V257.52z"/>
		<path class="st0" d="M367.54,257.52c0,6.08-4.93,11.01-11.01,11.01H205.07c-6.08,0-11.01-4.93-11.01-11.01V15.38
			c0-6.08,4.93-11.01,11.01-11.01h151.47c6.08,0,11.01,4.93,11.01,11.01V257.52z"/>
		<path class="st0" d="M557.36,257.52c0,6.08-4.93,11.01-11.01,11.01H394.88c-6.08,0-11.01-4.93-11.01-11.01V15.38
			c0-6.08,4.93-11.01,11.01-11.01h151.47c6.08,0,11.01,4.93,11.01,11.01V257.52z"/>
		<path class="st0" d="M747.42,257.52c0,6.08-4.93,11.01-11.01,11.01H584.94c-6.08,0-11.01-4.93-11.01-11.01V15.38
			c0-6.08,4.93-11.01,11.01-11.01h151.47c6.08,0,11.01,4.93,11.01,11.01V257.52z"/>
		<g>
			<linearGradient id="SVGID_1_" gradientUnits="userSpaceOnUse" x1="361.5558" y1="25.8915" x2="573.9247" y2="238.2604">
				<stop  offset="0" style="stop-color:#F1F2F2"/>
				<stop  offset="1" style="stop-color:#E6E7E8"/>
			</linearGradient>
			<path class="st1" d="M554.48,253.15c0,6.08-4.93,11.01-11.01,11.01H392.01c-6.08,0-11.01-4.93-11.01-11.01V11.01
				C381,4.93,385.93,0,392.01,0h151.47c6.08,0,11.01,4.93,11.01,11.01V253.15z"/>
			<linearGradient id="SVGID_2_" gradientUnits="userSpaceOnUse" x1="392.6952" y1="16.7618" x2="408.8085" y2="32.8751">
				<stop  offset="0" style="stop-color:#B7191A"/>
				<stop  offset="1" style="stop-color:#EC2224"/>
			</linearGradient>
			<path class="st2" d="M403.2,30.51V29.6c2.05-0.26,2.34-0.52,1.92-1.79c-0.42-1.27-1.07-3.03-1.79-5.01h-6.93
				c-0.52,1.46-1.01,2.83-1.43,4.2c-0.72,2.05-0.42,2.38,2.02,2.6v0.91h-7.06V29.6c2.05-0.29,2.51-0.49,3.65-3.35l6.74-17.09
				l1.01-0.29c2.02,5.6,4.2,11.78,6.28,17.45c1.04,2.8,1.47,3.09,3.58,3.29v0.91H403.2z M400.01,13.09h-0.07
				c-1.04,2.8-2.08,5.63-3.06,8.3h5.99L400.01,13.09z"/>
			
				<linearGradient id="SVGID_3_" gradientUnits="userSpaceOnUse" x1="-137.7373" y1="-178.0845" x2="-153.8506" y2="-194.1978" gradientTransform="matrix(-1 0 0 -1 388.9346 53.1923)">
				<stop  offset="0" style="stop-color:#B7191A"/>
				<stop  offset="1" style="stop-color:#EC2224"/>
			</linearGradient>
			<path class="st3" d="M532.28,233.65v0.91c-2.05,0.26-2.34,0.52-1.92,1.79c0.42,1.27,1.07,3.03,1.79,5.01h6.93
				c0.52-1.46,1.01-2.83,1.43-4.2c0.72-2.05,0.42-2.38-2.02-2.6v-0.91h7.06v0.91c-2.05,0.29-2.51,0.49-3.65,3.35L535.18,255
				l-1.01,0.29c-2.02-5.6-4.2-11.78-6.28-17.45c-1.04-2.8-1.46-3.09-3.58-3.29v-0.91H532.28z M535.47,251.06h0.07
				c1.04-2.8,2.08-5.63,3.06-8.3h-5.99L535.47,251.06z"/>
			<linearGradient id="SVGID_4_" gradientUnits="userSpaceOnUse" x1="445.9845" y1="100.016" x2="489.4961" y2="143.5277">
				<stop  offset="0" style="stop-color:#B7191A"/>
				<stop  offset="1" style="stop-color:#EC2224"/>
			</linearGradient>
			<path class="st4" d="M482.84,98.91c-9.35,0-15.1,8.06-15.1,8.06s-5.75-8.06-15.1-8.06c-9.35,0-25.21,13.24-5.56,39.79
				c19.35,26.15,20.65,26.55,20.65,26.55s1.3-0.41,20.65-26.55C508.05,112.14,492.19,98.91,482.84,98.91z"/>
			<linearGradient id="SVGID_5_" gradientUnits="userSpaceOnUse" x1="392.9662" y1="37.2267" x2="408.1312" y2="52.3916">
				<stop  offset="0" style="stop-color:#B7191A"/>
				<stop  offset="1" style="stop-color:#EC2224"/>
			</linearGradient>
			<path class="st5" d="M405.81,36.84c-3.26,0-5.26,2.81-5.26,2.81s-2-2.81-5.26-2.81c-3.26,0-8.79,4.61-1.94,13.87
				c6.75,9.11,7.2,9.25,7.2,9.25s0.45-0.14,7.2-9.25C414.6,41.45,409.07,36.84,405.81,36.84z"/>
			
				<linearGradient id="SVGID_6_" gradientUnits="userSpaceOnUse" x1="542.5159" y1="317.6349" x2="527.351" y2="302.4699" gradientTransform="matrix(-1 0 0 -1 1069.8654 528.538)">
				<stop  offset="0" style="stop-color:#B7191A"/>
				<stop  offset="1" style="stop-color:#EC2224"/>
			</linearGradient>
			<path class="st6" d="M529.67,226.45c3.26,0,5.26-2.81,5.26-2.81s2,2.81,5.26,2.81c3.26,0,8.79-4.61,1.94-13.87
				c-6.75-9.11-7.2-9.25-7.2-9.25s-0.45,0.14-7.2,9.25C520.88,221.84,526.41,226.45,529.67,226.45z"/>
			<path class="st7" d="M403.41,21.93h-5.99c0.06-0.18,0.13-0.36,0.2-0.53h5.26l-2.54-7.37c0.05-0.13,0.1-0.27,0.15-0.4h0.07
				L403.41,21.93z M411.18,30.07V29.6c-0.92-0.09-1.53-0.19-2-0.51C409.66,29.74,410.21,29.95,411.18,30.07z M403.2,29.6v0.91h0.54
				v-0.38c2.05-0.26,2.34-0.52,1.92-1.79c-0.42-1.27-1.07-3.03-1.79-5.01h-0.34c0.64,1.76,1.21,3.33,1.6,4.48
				C405.55,29.07,405.25,29.33,403.2,29.6z M396.98,30.07V29.6c-0.83-0.08-1.39-0.17-1.77-0.34
				C395.36,29.74,395.9,29.94,396.98,30.07z M406.34,37.37c1,0,2.22,0.44,3.23,1.32c-1.08-1.23-2.57-1.85-3.76-1.85
				c-3.02,0-4.96,2.41-5.23,2.76c0.32,0.34,0.5,0.58,0.5,0.58S403.09,37.37,406.34,37.37z M393.88,51.24
				c-6.85-9.25-1.32-13.87,1.94-13.87c1.97,0,3.48,1.03,4.37,1.84c-0.71-0.79-2.45-2.38-4.9-2.38c-3.26,0-8.79,4.61-1.94,13.87
				c6.75,9.11,7.2,9.25,7.2,9.25s0.01,0,0.02-0.01C399.83,59.09,398.07,56.9,393.88,51.24z M390.45,30.13
				c2.05-0.29,2.51-0.49,3.65-3.35l6.74-17.09l0.7-0.2c-0.07-0.21-0.15-0.42-0.22-0.62l-1.01,0.29l-6.74,17.09
				c-1.14,2.86-1.6,3.06-3.65,3.35v0.91h0.53V30.13z"/>
			<path class="st7" d="M467.8,106.9c0.55-0.74,6.17-7.99,15.04-7.99c3.27,0,7.33,1.63,10.4,4.87c-2.99-2.88-6.78-4.33-9.86-4.33
				c-9.35,0-15.1,8.06-15.1,8.06S468.1,107.27,467.8,106.9z M447.62,139.23c-19.65-26.55-3.79-39.79,5.56-39.79
				c6.08,0,10.62,3.4,13.06,5.78c-2.28-2.37-7.05-6.32-13.59-6.32c-9.35,0-25.21,13.24-5.56,39.79
				c16.94,22.88,20.05,26.05,20.56,26.48C466.23,163.65,461.72,158.27,447.62,139.23z"/>
			<path class="st7" d="M527.73,212.59c6.75-9.11,7.2-9.25,7.2-9.25s0.07,0.02,0.52,0.55c-0.11,0.09-1.03,0.93-7.18,9.24
				c-4.35,5.87-3.71,9.88-1.83,12.02C524.18,223.17,522.99,218.99,527.73,212.59z M539.62,241.89c0.52-1.46,1.01-2.83,1.43-4.2
				c0.47-1.35,0.49-1.95-0.25-2.27c0.11,0.37,0,0.91-0.29,1.73c-0.42,1.37-0.91,2.73-1.43,4.2h-6.59c0.07,0.18,0.13,0.35,0.19,0.53
				H539.62z M536.07,251.6c1.04-2.8,2.08-5.63,3.06-8.3h-0.73c-0.87,2.39-1.79,4.88-2.72,7.37l0.32,0.93H536.07z M535.83,224.61
				c-0.24-0.26-0.36-0.43-0.36-0.43s-0.01,0.02-0.04,0.05C535.54,224.35,535.68,224.48,535.83,224.61z M538.5,233.65v0.91
				c0.2,0.02,0.36,0.04,0.53,0.06v-0.44h6.53v-0.53H538.5z M524.84,234.18h7.44v-0.53h-7.98v0.91c0.19,0.02,0.37,0.04,0.53,0.06
				V234.18z M528.42,238.38c-0.59-1.58-0.98-2.36-1.59-2.77c0.35,0.47,0.65,1.17,1.05,2.24c2.08,5.66,4.26,11.85,6.28,17.45
				l0.31-0.09C532.52,249.77,530.43,243.84,528.42,238.38z"/>
		</g>
		<g>
			<linearGradient id="SVGID_7_" gradientUnits="userSpaceOnUse" x1="552.0558" y1="25.8915" x2="764.4247" y2="238.2604">
				<stop  offset="0" style="stop-color:#F1F2F2"/>
				<stop  offset="1" style="stop-color:#E6E7E8"/>
			</linearGradient>
			<path class="st8" d="M744.98,253.15c0,6.08-4.93,11.01-11.01,11.01H582.51c-6.08,0-11.01-4.93-11.01-11.01V11.01
				C571.5,4.93,576.43,0,582.51,0h151.47c6.08,0,11.01,4.93,11.01,11.01V253.15z"/>
			<linearGradient id="SVGID_8_" gradientUnits="userSpaceOnUse" x1="583.1952" y1="16.7618" x2="599.3085" y2="32.8751">
				<stop  offset="0" style="stop-color:#414042"/>
				<stop  offset="1" style="stop-color:#58595B"/>
			</linearGradient>
			<path class="st9" d="M593.7,30.51V29.6c2.05-0.26,2.34-0.52,1.92-1.79c-0.42-1.27-1.07-3.03-1.79-5.01h-6.93
				c-0.52,1.46-1.01,2.83-1.43,4.2c-0.72,2.05-0.42,2.38,2.02,2.6v0.91h-7.06V29.6c2.05-0.29,2.51-0.49,3.65-3.35l6.74-17.09
				l1.01-0.29c2.02,5.6,4.2,11.78,6.28,17.45c1.04,2.8,1.46,3.09,3.58,3.29v0.91H593.7z M590.51,13.09h-0.07
				c-1.04,2.8-2.08,5.63-3.06,8.3h5.99L590.51,13.09z"/>
			
				<linearGradient id="SVGID_9_" gradientUnits="userSpaceOnUse" x1="-328.2373" y1="-178.0845" x2="-344.3506" y2="-194.1978" gradientTransform="matrix(-1 0 0 -1 388.9346 53.1923)">
				<stop  offset="0" style="stop-color:#414042"/>
				<stop  offset="1" style="stop-color:#58595B"/>
			</linearGradient>
			<path class="st10" d="M722.78,233.65v0.91c-2.05,0.26-2.34,0.52-1.92,1.79c0.42,1.27,1.07,3.03,1.79,5.01h6.93
				c0.52-1.46,1.01-2.83,1.43-4.2c0.72-2.05,0.42-2.38-2.02-2.6v-0.91h7.06v0.91c-2.05,0.29-2.51,0.49-3.65,3.35L725.68,255
				l-1.01,0.29c-2.02-5.6-4.2-11.78-6.28-17.45c-1.04-2.8-1.46-3.09-3.58-3.29v-0.91H722.78z M725.97,251.06h0.07
				c1.04-2.8,2.08-5.63,3.06-8.3h-5.99L725.97,251.06z"/>
			
				<linearGradient id="SVGID_10_" gradientUnits="userSpaceOnUse" x1="598.083" y1="157.4868" x2="584.0146" y2="143.4185" gradientTransform="matrix(-1 0 0 -1 1316.4805 362.9013)">
				<stop  offset="0" style="stop-color:#414042"/>
				<stop  offset="1" style="stop-color:#58595B"/>
			</linearGradient>
			<path class="st11" d="M720.92,206.7c-2.79,0-7.53,3.95-1.66,11.88c5.78,7.81,6.17,7.93,6.17,7.93s0.39-0.12,6.17-7.93
				c5.87-7.93,1.13-11.88-1.66-11.88c-2.08,0-3.56,1.33-4.18,2.02c0.1-1.27,0.57-3.22,2.07-4.01c1.71-0.9,2.51-0.9,2.51-0.9v-0.52
				h-4.9h-4.9v0.52c0,0,0.81,0,2.51,0.9c1.49,0.79,1.97,2.74,2.07,4.01C724.49,208.03,723,206.7,720.92,206.7z"/>
			<linearGradient id="SVGID_11_" gradientUnits="userSpaceOnUse" x1="584.0853" y1="43.8578" x2="598.0124" y2="57.785">
				<stop  offset="0" style="stop-color:#414042"/>
				<stop  offset="1" style="stop-color:#58595B"/>
			</linearGradient>
			<path class="st12" d="M595.51,56.52c2.76,0,7.45-3.91,1.64-11.76c-5.72-7.73-6.11-7.85-6.11-7.85s-0.38,0.12-6.11,7.85
				c-5.81,7.85-1.12,11.76,1.64,11.76c2.06,0,3.53-1.32,4.14-2c-0.09,1.26-0.57,3.19-2.04,3.97c-1.69,0.89-2.49,0.89-2.49,0.89v0.52
				h4.85h4.85v-0.52c0,0-0.8,0-2.49-0.89c-1.48-0.78-1.95-2.71-2.05-3.97C591.99,55.19,593.45,56.52,595.51,56.52z"/>
			<linearGradient id="SVGID_12_" gradientUnits="userSpaceOnUse" x1="638.0227" y1="118.7551" x2="678.4578" y2="159.1902">
				<stop  offset="0" style="stop-color:#414042"/>
				<stop  offset="1" style="stop-color:#58595B"/>
			</linearGradient>
			<path class="st13" d="M671.2,155.51c8.02,0,21.64-11.36,4.77-34.15c-16.61-22.44-17.73-22.79-17.73-22.79s-1.12,0.35-17.73,22.79
				c-16.87,22.79-3.25,34.15,4.77,34.15c5.98,0,10.24-3.84,12.02-5.8c-0.27,3.65-1.64,9.25-5.94,11.52
				c-4.9,2.59-7.22,2.59-7.22,2.59v1.5h14.09h14.09v-1.5c0,0-2.32,0-7.22-2.59c-4.29-2.27-5.66-7.87-5.94-11.52
				C660.96,151.67,665.22,155.51,671.2,155.51z"/>
			<path class="st14" d="M721.06,203.9c-0.35-0.09-0.53-0.09-0.53-0.09v-0.52h4.9h4.9v0.52c0,0-0.05,0-0.14,0.01h-4.23h-4.9V203.9z
				 M726.57,251.6c1.04-2.8,2.08-5.63,3.06-8.3h-0.73c-0.87,2.39-1.79,4.88-2.72,7.37l0.32,0.93H726.57z M729,234.56
				c0.2,0.02,0.36,0.04,0.53,0.06v-0.44h6.53v-0.53H729V234.56z M730.12,241.89c0.52-1.46,1.01-2.83,1.43-4.2
				c0.47-1.35,0.49-1.95-0.25-2.27c0.11,0.37,0,0.91-0.29,1.73c-0.42,1.37-0.91,2.73-1.43,4.2h-6.59c0.07,0.18,0.13,0.35,0.19,0.53
				H730.12z M726.49,208.02c-0.11,0.43-0.17,0.86-0.2,1.22c0.62-0.68,2.1-2.02,4.18-2.02c0.85,0,1.88,0.37,2.74,1.1
				c-0.93-1.09-2.23-1.64-3.27-1.64C728.45,206.7,727.27,207.38,726.49,208.02z M725.43,226.51c0,0,0.01,0,0.02-0.02
				c-0.67-0.78-2.19-2.69-5.66-7.38c-5.87-7.93-1.13-11.88,1.66-11.88c2.08,0,3.56,1.33,4.18,2.02c-0.09-1.13-0.48-2.8-1.63-3.71
				c0.74,0.94,1.02,2.24,1.09,3.18c-0.62-0.68-2.1-2.02-4.18-2.02c-2.79,0-7.53,3.95-1.66,11.88
				C725.04,226.38,725.43,226.51,725.43,226.51z M715.34,234.18h7.44v-0.53h-7.98v0.91c0.19,0.02,0.37,0.04,0.53,0.06V234.18z
				 M718.92,238.38c-0.59-1.58-0.98-2.36-1.59-2.77c0.35,0.47,0.65,1.17,1.05,2.24c2.08,5.66,4.26,11.85,6.28,17.45l0.31-0.09
				C723.02,249.77,720.93,243.84,718.92,238.38z"/>
			<path class="st14" d="M599.68,29.08c0.47,0.32,1.07,0.43,2,0.51v0.48C600.71,29.95,600.16,29.74,599.68,29.08z M593.42,58.49
				c-0.16-0.08-0.3-0.19-0.43-0.29c0.26,0.33,0.58,0.62,0.97,0.83c0.9,0.48,1.54,0.69,1.95,0.8v-0.44
				C595.9,59.38,595.1,59.38,593.42,58.49z M587.48,30.07V29.6c-0.83-0.08-1.39-0.17-1.77-0.34
				C585.86,29.74,586.4,29.94,587.48,30.07z M593.7,29.6v0.91h0.54v-0.38c2.05-0.26,2.34-0.52,1.92-1.79
				c-0.42-1.27-1.07-3.03-1.79-5.01h-0.34c0.64,1.76,1.21,3.33,1.6,4.48C596.04,29.07,595.75,29.33,593.7,29.6z M591.05,13.63h-0.07
				c-0.05,0.13-0.1,0.27-0.15,0.4l2.54,7.37h-5.26c-0.06,0.18-0.13,0.36-0.2,0.53h5.99L591.05,13.63z M585.48,45.29
				c5.1-6.88,5.96-7.73,6.08-7.83c-0.44-0.52-0.51-0.55-0.51-0.55s-0.38,0.12-6.11,7.85c-4.04,5.46-3,9.01-1.06,10.67
				C582.32,53.6,581.83,50.22,585.48,45.29z M589.22,59.02c1.48-0.78,1.95-2.71,2.04-3.97c-0.17,0.19-0.43,0.44-0.73,0.69
				c-0.26,1.06-0.8,2.19-1.85,2.75c-1.69,0.89-2.49,0.89-2.49,0.89v0.52h0.71C587.22,59.85,587.98,59.68,589.22,59.02z
				 M580.95,30.13c2.05-0.29,2.51-0.49,3.65-3.35l6.74-17.09l0.7-0.2c-0.07-0.21-0.15-0.42-0.22-0.62l-1.01,0.29l-6.74,17.09
				c-1.14,2.86-1.6,3.06-3.65,3.35v0.91h0.53V30.13z"/>
			<path class="st14" d="M659.71,150.27c0-0.01,0-0.02,0-0.03c0.1,0.12,0.22,0.24,0.34,0.36
				C659.93,150.49,659.82,150.38,659.71,150.27z M663.33,159.95c0.66,0.72,1.42,1.34,2.32,1.82c3.56,1.88,5.75,2.39,6.68,2.53v-0.48
				c0,0-2.32,0-7.22-2.59C664.45,160.88,663.86,160.44,663.33,159.95z M644.68,164.35c0,0,2.32,0,7.22-2.59
				c4.29-2.27,5.66-7.87,5.94-11.52c-0.19,0.21-0.42,0.45-0.66,0.69c-0.47,3.58-1.97,8.27-5.81,10.29c-4.9,2.59-7.22,2.59-7.22,2.59
				v1.5h0.53V164.35z M641.05,121.89c16.61-22.44,17.73-22.79,17.73-22.79s0.01,0.01,0.06,0.04c-0.5-0.55-0.59-0.58-0.59-0.58
				s-1.12,0.35-17.73,22.79c-11.34,15.32-8.9,25.47-3.64,30.48C632,146.66,630.09,136.69,641.05,121.89z"/>
		</g>
		<g>
			<linearGradient id="SVGID_13_" gradientUnits="userSpaceOnUse" x1="171.0559" y1="25.8915" x2="383.4247" y2="238.2603">
				<stop  offset="0" style="stop-color:#F1F2F2"/>
				<stop  offset="1" style="stop-color:#E6E7E8"/>
			</linearGradient>
			<path class="st15" d="M363.98,253.15c0,6.08-4.93,11.01-11.01,11.01H201.51c-6.08,0-11.01-4.93-11.01-11.01V11.01
				C190.5,4.93,195.43,0,201.51,0h151.47c6.08,0,11.01,4.93,11.01,11.01V253.15z"/>
			<linearGradient id="SVGID_14_" gradientUnits="userSpaceOnUse" x1="202.195" y1="16.7615" x2="218.3088" y2="32.8753">
				<stop  offset="0" style="stop-color:#414042"/>
				<stop  offset="1" style="stop-color:#58595B"/>
			</linearGradient>
			<path class="st16" d="M212.7,30.51V29.6c2.05-0.26,2.34-0.52,1.92-1.79c-0.42-1.27-1.07-3.03-1.79-5.01h-6.93
				c-0.52,1.46-1.01,2.83-1.43,4.2c-0.72,2.05-0.42,2.38,2.02,2.6v0.91h-7.06V29.6c2.05-0.29,2.51-0.49,3.65-3.35l6.74-17.09
				l1.01-0.29c2.02,5.6,4.2,11.78,6.28,17.45c1.04,2.8,1.46,3.09,3.58,3.29v0.91H212.7z M209.51,13.09h-0.07
				c-1.04,2.8-2.08,5.63-3.06,8.3h5.99L209.51,13.09z"/>
			
				<linearGradient id="SVGID_15_" gradientUnits="userSpaceOnUse" x1="52.7627" y1="-178.0845" x2="36.6492" y2="-194.1981" gradientTransform="matrix(-1 0 0 -1 388.9346 53.1923)">
				<stop  offset="0" style="stop-color:#414042"/>
				<stop  offset="1" style="stop-color:#58595B"/>
			</linearGradient>
			<path class="st17" d="M341.78,233.65v0.91c-2.05,0.26-2.34,0.52-1.92,1.79c0.42,1.27,1.07,3.03,1.79,5.01h6.93
				c0.52-1.46,1.01-2.83,1.43-4.2c0.72-2.05,0.42-2.38-2.02-2.6v-0.91h7.06v0.91c-2.05,0.29-2.51,0.49-3.65,3.35L344.68,255
				l-1.01,0.29c-2.02-5.6-4.2-11.78-6.28-17.45c-1.04-2.8-1.46-3.09-3.58-3.29v-0.91H341.78z M344.97,251.06h0.07
				c1.04-2.8,2.08-5.63,3.06-8.3h-5.99L344.97,251.06z"/>
			<linearGradient id="SVGID_16_" gradientUnits="userSpaceOnUse" x1="255.0747" y1="114.5252" x2="299.4059" y2="158.8564">
				<stop  offset="0" style="stop-color:#414042"/>
				<stop  offset="1" style="stop-color:#58595B"/>
			</linearGradient>
			<path class="st18" d="M294.26,125.08c-1.73,0-3.4,0.28-4.96,0.78c2.53-2.85,4.07-6.59,4.07-10.7c0-8.9-7.22-16.12-16.12-16.12
				s-16.12,7.22-16.12,16.12c0,4.11,1.54,7.85,4.07,10.7c-1.56-0.51-3.23-0.78-4.96-0.78c-8.9,0-16.12,7.22-16.12,16.12
				s7.22,16.12,16.12,16.12c4.05,0,7.76-1.5,10.59-3.97c1.7-1.23,4.23-3.58,5.55-4.83c-0.06,3.47-1.21,10.04-5.94,12.54
				c-4.86,2.57-7.16,2.57-7.16,2.57v1.49h13.98h13.98v-1.49c0,0-2.3,0-7.16-2.57c-4.76-2.51-5.9-9.16-5.94-12.61l4.64,4.05l0,0
				c2.93,2.98,7,4.83,11.5,4.83c8.9,0,16.12-7.22,16.12-16.12S303.16,125.08,294.26,125.08z"/>
			<linearGradient id="SVGID_17_" gradientUnits="userSpaceOnUse" x1="202.3394" y1="42.296" x2="217.7577" y2="57.7144">
				<stop  offset="0" style="stop-color:#414042"/>
				<stop  offset="1" style="stop-color:#58595B"/>
			</linearGradient>
			<path class="st19" d="M215.97,45.97c-0.6,0-1.18,0.1-1.73,0.27c0.88-0.99,1.41-2.29,1.41-3.72c0-3.1-2.51-5.61-5.61-5.61
				c-3.1,0-5.61,2.51-5.61,5.61c0,1.43,0.54,2.73,1.41,3.72c-0.54-0.18-1.12-0.27-1.73-0.27c-3.1,0-5.61,2.51-5.61,5.61
				c0,3.1,2.51,5.61,5.61,5.61c1.41,0,2.7-0.52,3.68-1.38c0.59-0.43,1.47-1.24,1.93-1.68c-0.02,1.21-0.42,3.49-2.07,4.36
				c-1.69,0.89-2.49,0.89-2.49,0.89v0.52h4.86h4.86v-0.52c0,0-0.8,0-2.49-0.89c-1.66-0.87-2.05-3.19-2.07-4.39l1.61,1.41l0,0
				c1.02,1.04,2.43,1.68,4,1.68c3.1,0,5.61-2.51,5.61-5.61C221.58,48.48,219.06,45.97,215.97,45.97z"/>
			
				<linearGradient id="SVGID_18_" gradientUnits="userSpaceOnUse" x1="138.9033" y1="45.4998" x2="123.4848" y2="30.0813" gradientTransform="matrix(-1 0 0 -1 475.626 251.08)">
				<stop  offset="0" style="stop-color:#414042"/>
				<stop  offset="1" style="stop-color:#58595B"/>
			</linearGradient>
			<path class="st20" d="M338.51,217.33c0.6,0,1.18-0.1,1.73-0.27c-0.88,0.99-1.41,2.29-1.41,3.72c0,3.1,2.51,5.61,5.61,5.61
				c3.1,0,5.61-2.51,5.61-5.61c0-1.43-0.54-2.73-1.41-3.72c0.54,0.18,1.12,0.27,1.73,0.27c3.1,0,5.61-2.51,5.61-5.61
				c0-3.1-2.51-5.61-5.61-5.61c-1.41,0-2.7,0.52-3.68,1.38c-0.59,0.43-1.47,1.24-1.93,1.68c0.02-1.21,0.42-3.49,2.07-4.36
				c1.69-0.89,2.49-0.89,2.49-0.89v-0.52h-4.86h-4.86v0.52c0,0,0.8,0,2.49,0.89c1.66,0.87,2.05,3.19,2.07,4.39l-1.61-1.41h0
				c-1.02-1.04-2.43-1.68-4-1.68c-3.1,0-5.61,2.51-5.61,5.61C332.91,214.82,335.42,217.33,338.51,217.33z"/>
			<path class="st14" d="M290.55,125.51c1.19-0.28,2.43-0.43,3.71-0.43c4.59,0,8.72,1.93,11.66,5c-2.89-2.76-6.8-4.47-11.12-4.47
				c-1.73,0-3.4,0.28-4.96,0.78C290.08,126.11,290.32,125.81,290.55,125.51z M282.23,159.74c0.66,0.74,1.44,1.37,2.36,1.85
				c3.53,1.86,5.7,2.37,6.63,2.51v-0.48c0,0-2.3,0-7.16-2.57C283.38,160.7,282.78,160.25,282.23,159.74z M263.8,164.16
				c0,0,2.3,0,7.16-2.57c4.73-2.5,5.88-9.07,5.94-12.54c-0.18,0.17-0.38,0.35-0.59,0.55c-0.26,3.61-1.61,9.19-5.88,11.45
				c-4.86,2.57-7.16,2.57-7.16,2.57v1.49h0.53V164.16z M244.63,141.74c0-8.9,7.22-16.12,16.12-16.12c1.73,0,3.4,0.28,4.96,0.78
				c-2.53-2.85-4.07-6.59-4.07-10.7c0-8.9,7.22-16.12,16.12-16.12c4.32,0,8.23,1.71,11.12,4.47c-2.94-3.08-7.07-5-11.66-5
				c-8.9,0-16.12,7.22-16.12,16.12c0,4.11,1.54,7.85,4.07,10.7c-1.56-0.51-3.23-0.78-4.96-0.78c-8.9,0-16.12,7.22-16.12,16.12
				c0,4.59,1.93,8.72,5,11.66C246.34,149.96,244.63,146.05,244.63,141.74z"/>
			<path class="st14" d="M348,233.65h7.06v0.53h-6.53v0.44c-0.17-0.02-0.33-0.04-0.53-0.06V233.65z M340.75,225
				c-0.86-0.99-1.39-2.27-1.39-3.69c0-1.43,0.53-2.73,1.41-3.72c-0.35,0.11-0.72,0.18-1.1,0.22c-0.54,0.86-0.85,1.88-0.85,2.97
				C338.82,222.46,339.57,223.97,340.75,225z M349.12,241.89c0.52-1.46,1.01-2.83,1.43-4.2c0.47-1.35,0.49-1.95-0.25-2.27
				c0.11,0.37,0,0.91-0.29,1.73c-0.42,1.37-0.91,2.73-1.43,4.2h-6.59c0.07,0.18,0.13,0.35,0.19,0.53H349.12z M345.57,251.6
				c1.04-2.8,2.08-5.63,3.06-8.3h-0.73c-0.87,2.39-1.79,4.88-2.72,7.37l0.32,0.93H345.57z M345.39,208.57
				c-0.07,0.42-0.11,0.82-0.11,1.13c0.46-0.44,1.34-1.25,1.93-1.68c0.99-0.86,2.27-1.38,3.68-1.38c1.41,0,2.7,0.53,3.69,1.39
				c-1.03-1.18-2.54-1.92-4.22-1.92c-1.41,0-2.7,0.52-3.68,1.38C346.29,207.77,345.81,208.19,345.39,208.57z M340.11,203.94h4.86
				h4.16c0.11-0.02,0.17-0.02,0.17-0.02v-0.52h-4.86h-4.86v0.52c0,0,0.18,0,0.53,0.09V203.94z M337.92,238.38
				c-0.59-1.58-0.98-2.36-1.58-2.77c0.35,0.47,0.65,1.17,1.05,2.24c2.08,5.66,4.26,11.85,6.28,17.45l0.31-0.09
				C342.02,249.77,339.93,243.84,337.92,238.38z M334.83,215.94c-0.86-0.99-1.39-2.27-1.39-3.69c0-3.1,2.51-5.61,5.61-5.61
				c1.57,0,2.98,0.64,4,1.68h0l1.61,1.41c-0.01-1.08-0.34-3.06-1.62-4.08c0.84,1.08,1.07,2.63,1.09,3.54l-1.61-1.41h0
				c-1.02-1.04-2.43-1.68-4-1.68c-3.1,0-5.61,2.51-5.61,5.61C332.91,213.4,333.65,214.91,334.83,215.94z M334.34,234.18h7.44v-0.53
				h-7.98v0.91c0.19,0.02,0.37,0.04,0.53,0.06V234.18z"/>
			<path class="st14" d="M212.42,58.48c1.69,0.89,2.49,0.89,2.49,0.89v0.44c-0.41-0.1-1.05-0.32-1.96-0.8
				c-0.4-0.21-0.72-0.5-0.98-0.84C212.11,58.28,212.26,58.39,212.42,58.48z M213.24,30.13c2.05-0.26,2.34-0.52,1.92-1.79
				c-0.42-1.27-1.07-3.03-1.79-5.01h-0.34c0.64,1.76,1.21,3.33,1.6,4.48c0.42,1.27,0.13,1.53-1.92,1.79v0.91h0.53V30.13z
				 M210.05,13.63h-0.07c-0.05,0.13-0.1,0.27-0.15,0.4l2.54,7.37h-5.26c-0.06,0.18-0.13,0.36-0.2,0.53h5.99L210.05,13.63z
				 M206.48,30.07V29.6c-0.83-0.08-1.39-0.17-1.77-0.34C204.86,29.74,205.4,29.94,206.48,30.07z M220.19,47.89
				c-1.03-1.18-2.53-1.92-4.22-1.92c-0.21,0-0.42,0.03-0.63,0.05c-0.17,0.27-0.35,0.52-0.56,0.76c0.54-0.18,1.12-0.27,1.73-0.27
				C217.91,46.5,219.2,47.03,220.19,47.89z M199.95,30.13c2.05-0.29,2.51-0.49,3.65-3.35l6.74-17.09l0.7-0.2
				c-0.07-0.21-0.15-0.42-0.22-0.62l-1.01,0.29l-6.74,17.09c-1.14,2.86-1.6,3.06-3.65,3.35v0.91h0.53V30.13z M220.68,30.07V29.6
				c-0.92-0.09-1.53-0.19-2-0.51C219.16,29.74,219.71,29.95,220.68,30.07z M199.06,52.11c0-3.1,2.51-5.61,5.61-5.61
				c0.6,0,1.18,0.1,1.73,0.27c-0.88-0.99-1.41-2.29-1.41-3.72c0-3.1,2.51-5.61,5.61-5.61c1.41,0,2.7,0.53,3.69,1.39
				c-1.03-1.18-2.54-1.92-4.22-1.92c-3.1,0-5.61,2.51-5.61,5.61c0,1.43,0.54,2.73,1.41,3.72c-0.54-0.18-1.12-0.27-1.73-0.27
				c-3.1,0-5.61,2.51-5.61,5.61c0,1.68,0.75,3.19,1.92,4.22C199.58,54.81,199.06,53.52,199.06,52.11z M208.21,59.02
				c1.64-0.87,2.04-3.15,2.07-4.36c-0.17,0.16-0.4,0.38-0.65,0.6c-0.21,1.18-0.74,2.59-1.95,3.23c-1.69,0.89-2.49,0.89-2.49,0.89
				v0.52h0.71C206.21,59.85,206.97,59.67,208.21,59.02z"/>
		</g>
		<g>
			<linearGradient id="SVGID_19_" gradientUnits="userSpaceOnUse" x1="-19.4441" y1="25.8915" x2="192.9247" y2="238.2603">
				<stop  offset="0" style="stop-color:#F1F2F2"/>
				<stop  offset="1" style="stop-color:#E6E7E8"/>
			</linearGradient>
			<path class="st21" d="M173.48,253.15c0,6.08-4.93,11.01-11.01,11.01H11.01C4.93,264.15,0,259.22,0,253.15V11.01
				C0,4.93,4.93,0,11.01,0h151.47c6.08,0,11.01,4.93,11.01,11.01V253.15z"/>
			<linearGradient id="SVGID_20_" gradientUnits="userSpaceOnUse" x1="11.695" y1="16.7615" x2="27.8088" y2="32.8753">
				<stop  offset="0" style="stop-color:#B7191A"/>
				<stop  offset="1" style="stop-color:#EC2224"/>
			</linearGradient>
			<path class="st22" d="M22.2,30.51V29.6c2.05-0.26,2.34-0.52,1.92-1.79c-0.42-1.27-1.07-3.03-1.79-5.01H15.4
				c-0.52,1.46-1.01,2.83-1.43,4.2c-0.72,2.05-0.42,2.38,2.02,2.6v0.91H8.92V29.6c2.05-0.29,2.51-0.49,3.65-3.35L19.3,9.15
				l1.01-0.29c2.02,5.6,4.2,11.78,6.28,17.45c1.04,2.8,1.46,3.09,3.58,3.29v0.91H22.2z M19.01,13.09h-0.07
				c-1.04,2.8-2.08,5.63-3.06,8.3h5.99L19.01,13.09z"/>
			<g>
				
					<linearGradient id="SVGID_21_" gradientUnits="userSpaceOnUse" x1="16.6723" y1="127.3407" x2="26.3641" y2="137.0325" gradientTransform="matrix(1 0 0 1 -2.1028 -83.919)">
					<stop  offset="0" style="stop-color:#B7191A"/>
					<stop  offset="1" style="stop-color:#EC2224"/>
				</linearGradient>
				<polygon class="st23" points="10.96,48.73 19.55,36.86 28.13,48.73 19.55,59.94 				"/>
			</g>
			<g>
				
					<linearGradient id="SVGID_22_" gradientUnits="userSpaceOnUse" x1="151.0557" y1="293.8352" x2="160.7473" y2="303.5268" gradientTransform="matrix(1 0 0 1 -2.1028 -83.919)">
					<stop  offset="0" style="stop-color:#B7191A"/>
					<stop  offset="1" style="stop-color:#EC2224"/>
				</linearGradient>
				<polygon class="st24" points="145.35,215.23 153.93,203.36 162.52,215.23 153.93,226.43 				"/>
			</g>
			
				<linearGradient id="SVGID_23_" gradientUnits="userSpaceOnUse" x1="243.2627" y1="-178.0845" x2="227.1492" y2="-194.1981" gradientTransform="matrix(-1 0 0 -1 388.9346 53.1923)">
				<stop  offset="0" style="stop-color:#B7191A"/>
				<stop  offset="1" style="stop-color:#EC2224"/>
			</linearGradient>
			<path class="st25" d="M151.28,233.65v0.91c-2.05,0.26-2.34,0.52-1.92,1.79c0.42,1.27,1.07,3.03,1.79,5.01h6.93
				c0.52-1.46,1.01-2.83,1.43-4.2c0.72-2.05,0.42-2.38-2.02-2.6v-0.91h7.06v0.91c-2.05,0.29-2.51,0.49-3.65,3.35L154.18,255
				l-1.01,0.29c-2.02-5.6-4.2-11.78-6.28-17.45c-1.04-2.8-1.46-3.09-3.58-3.29v-0.91H151.28z M154.47,251.06h0.07
				c1.04-2.8,2.08-5.63,3.06-8.3h-5.99L154.47,251.06z"/>
			<g>
				
					<linearGradient id="SVGID_24_" gradientUnits="userSpaceOnUse" x1="74.4977" y1="201.6522" x2="102.4199" y2="229.5744" gradientTransform="matrix(1 0 0 1 -2.1028 -83.919)">
					<stop  offset="0" style="stop-color:#B7191A"/>
					<stop  offset="1" style="stop-color:#EC2224"/>
				</linearGradient>
				<polygon class="st26" points="62,133.03 86.74,98.84 111.48,133.03 86.74,165.32 				"/>
			</g>
			<polygon class="st7" points="62.54,133.57 87.2,99.47 86.74,98.84 62,133.03 86.74,165.32 86.8,165.23 			"/>
			<path class="st7" d="M153.93,226.43l-8.59-11.21l8.59-11.87l0.46,0.64l-8.51,11.77l8.11,10.59L153.93,226.43z M155.07,251.6
				c1.04-2.8,2.08-5.63,3.06-8.3h-0.73c-0.87,2.39-1.79,4.88-2.72,7.37l0.32,0.93H155.07z M158.62,241.89
				c0.52-1.46,1.01-2.83,1.43-4.2c0.47-1.35,0.49-1.95-0.25-2.27c0.11,0.37,0,0.91-0.29,1.73c-0.42,1.37-0.91,2.73-1.43,4.2h-6.59
				c0.07,0.18,0.13,0.35,0.19,0.53H158.62z M30.18,30.07V29.6c-0.92-0.09-1.53-0.19-2-0.51C28.66,29.74,29.21,29.95,30.18,30.07z
				 M157.5,234.56c0.2,0.02,0.36,0.04,0.53,0.06v-0.44h6.53v-0.53h-7.06V234.56z M19.55,13.63h-0.07c-0.05,0.13-0.1,0.27-0.15,0.4
				l2.54,7.37h-5.26c-0.06,0.18-0.13,0.36-0.2,0.53h5.99L19.55,13.63z M22.2,29.6v0.91h0.53v-0.38c2.05-0.26,2.34-0.52,1.92-1.79
				c-0.42-1.27-1.07-3.03-1.79-5.01h-0.34c0.64,1.76,1.21,3.33,1.6,4.48C24.55,29.07,24.25,29.33,22.2,29.6z M147.42,238.38
				c-0.59-1.58-0.98-2.36-1.58-2.77c0.35,0.47,0.65,1.17,1.05,2.24c2.08,5.66,4.26,11.85,6.28,17.45l0.31-0.09
				C151.52,249.77,149.43,243.84,147.42,238.38z M143.84,234.18h7.44v-0.53h-7.98v0.91c0.19,0.02,0.37,0.04,0.53,0.06V234.18z
				 M9.45,30.13c2.05-0.29,2.51-0.49,3.65-3.35l6.74-17.09l0.7-0.2c-0.07-0.21-0.15-0.42-0.22-0.62L19.3,9.15l-6.74,17.09
				c-1.14,2.86-1.6,3.06-3.65,3.35v0.91h0.53V30.13z M11.5,49.27l8.51-11.77l-0.46-0.64l-8.59,11.87l8.59,11.21l0.06-0.08
				L11.5,49.27z M15.98,30.07V29.6c-0.83-0.08-1.39-0.17-1.77-0.34C14.36,29.74,14.9,29.94,15.98,30.07z"/>
		</g>
	</g>
</g>
</svg>
