<?xml version="1.0" encoding="utf-8"?>
<!-- Generator: Adobe Illustrator 22.0.1, SVG Export Plug-In . SVG Version: 6.00 Build 0)  -->
<svg version="1.1" id="Layer_2" xmlns="http://www.w3.org/2000/svg" xmlns:xlink="http://www.w3.org/1999/xlink" x="0px" y="0px"
	 viewBox="0 0 872.5 367.7" style="enable-background:new 0 0 872.5 367.7;" xml:space="preserve">
<style type="text/css">
	.st0{fill:#AB5025;}
	.st1{fill:#FBA571;}
	.st2{clip-path:url(#SVGID_2_);}
	.st3{fill:none;stroke:#4C4634;stroke-width:0.75;stroke-miterlimit:10;}
	.st4{fill:#441500;}
	.st5{fill:#FFDAA4;}
	.st6{clip-path:url(#SVGID_4_);}
	.st7{fill:none;stroke:#4C4634;stroke-width:0.5;stroke-miterlimit:10;}
	.st8{fill:#603B29;}
	.st9{fill:none;}
	.st10{fill:#875A41;}
	.st11{fill:#FCC190;}
	.st12{fill:#845D40;}
</style>
<g id="Layer_9">
	<path class="st0" d="M120.1,231.2c0.1-0.2,0.1-0.5,0.1-0.8c-0.1-1.1-0.3-2.1-0.6-3.1c-0.4-1.2-1.2-1.7-2.4-1.8
		c-1.5-0.2-2.3,1-3.2,2.1c-0.8,1-1.9,2.2-2.7,3.4c-1.4,1.9-2.6,3.6-3.9,5.6c-0.1,0.1-0.1,0.2-0.1,0.3l-2.1,0c-0.1,0-0.1,0-0.1,0
		c0,0,0,0,0,0c-0.6,0-1,0.5-1.1,1.1c-0.3,3.1-0.5,6.2-0.6,9.3c-1.1-0.1-2.2,0-3.3,0c-1.3,0.1-2.7,0.1-4-0.2c-0.3-0.1-0.6,0-0.8,0.1
		c-0.4,0.1-0.8,0.4-0.8,1c0,2.2,0,4.4-0.2,6.5c0,0.5-0.1,1.1-0.1,1.6c0,0.4-0.1,0.8-0.1,1.2c-2.6,0-5.2,0-7.7-0.1
		c-0.1,0-0.3,0-0.4,0.1c-0.4,0.1-0.8,0.4-0.8,1c-0.1,3.1-0.2,6.2-0.2,9.3c-0.1,0-0.1,0-0.2,0c-2.6,0-5.3,0-7.9-0.2
		c-0.2,0-0.4,0.1-0.6,0.2c-0.4,0.1-0.6,0.5-0.7,0.9c-0.2,3-0.2,6-0.1,9l-2.3,0c-1.8,0-3.5,0.1-5.3,0.1c0,0-0.1,0-0.1,0
		c-0.5,0-1,0.4-1.1,1c-0.2,2.9-0.2,5.9-0.2,8.9c-1.3,0-2.6,0.1-3.9,0.2c-1.7,0.1-3.3,0.2-5,0.1c-0.3,0-0.5,0.1-0.7,0.2
		c-0.2,0.2-0.4,0.4-0.4,0.8c-0.1,3,0,6.1,0.1,9.1c-2.7,0.3-5.4,0.3-8.1,0.3c-0.4,0-0.6,0.2-0.8,0.4c-0.2,0.2-0.4,0.4-0.4,0.8
		c0,1.2,0,2.3,0,3.5c0,0.9-0.1,1.8-0.1,2.7c0,0.5-0.1,1-0.1,1.5c0,0.3-0.1,0.6-0.1,0.9c-2.6,0.1-5.2,0.1-7.8,0.2
		c-0.2,0-0.4,0.1-0.5,0.2c-0.5,0.1-0.9,0.6-0.9,1c0,0,0,0,0,0c0,0,0,0.1,0,0.1c-0.2,2.2-0.2,4.5-0.1,6.7c0,0.7-0.1,1.3-0.1,1.9
		c0,0,0,0,0,0c0,0,0,0.1,0,0.1l-7.9,0.1c-0.6,0-1,0.5-1.1,1.1c-0.2,3-0.4,6-0.7,9c-0.2,0-0.5,0.1-0.7,0.1c-1.4,0-2.8,0.1-4.3,0.2
		c-0.8,0-1.7-0.1-2.5-0.2c-0.6-0.1-1.1,0.6-1.1,1.1c-0.1,3-0.2,5.9-0.4,8.9c0,0.1,0,0.2,0.1,0.3c0,0,0,0,0,0l-7.9-0.1
		c-0.1,0-0.1,0-0.1,0c0,0,0,0,0,0c-0.6,0-1,0.5-1.1,1.1c-0.3,3.1-0.5,6.2-0.6,9.3c-1.1-0.1-2.2,0-3.3,0c-1.3,0.1-2.7,0.1-4-0.2
		c-0.3-0.1-0.6,0-0.8,0.1c-0.4,0.1-0.8,0.4-0.8,1c0,2.2,0,7-0.2,9.2c0,0.4-0.1,0.7-0.1,1.1c0,0-0.1,0.1-0.1,0.1
		c0,0.1,0.1,0.2,0.1,0.3c0,0,0,0.1,0,0.1c-0.1,0.5-0.2,1,0,1.5c0.2,0.5,0.5,0.7,0.9,0.9c0,0.1,0,0.1,0,0.2c0.3,0,0.6,0,0.9,0
		c0,0,0.1,0,0.1,0c6.4,0,12.7,0,19.1-0.1c2.2,0,4.3,0,6.5,0c0,0,0,0,0,0c1.6,0,3.3,0,4.9,0c0.1,0,0.1,0,0.2,0l14,0
		c1.5,0,2.9,0,4.4,0c0,0,0,0,0.1,0c1.6,0,3.2,0,4.7,0c2.3,0.2,4.7,0.1,7,0c0.4,0,0.8,0,1.2,0c2.8,0.1,5.6,0.1,8.4,0
		c3.6,0.1,7.2,0.1,10.9,0c4.1,0,8.1,0.1,12.2,0.1c0,0,0.1,0,0.1,0l2.3,0c0.1,0,0.2,0,0.3-0.1c0.3,0.1,0.7-0.1,0.8-0.5
		c2.6-10.9,3.5-22.2,4.7-33.3c0.3-3,0.7-6,1.1-9c0.8-4.3,1.4-8.7,2.1-13.1c0.2-1.6,0.5-3.2,0.7-4.7c0.1-0.1,0.1-0.2,0.2-0.3
		c0.1-0.3,0.2-0.7,0.2-1.1c0.1-0.5,0.1-1,0.2-1.5c0.1-0.9,0.2-1.8,0.4-2.7c0.5-3.7,1-7.3,1.4-11c0.9-6.7,1.7-13.4,2.6-20
		c0.9-5.1,1.6-10.3,2.1-15.5c0.2-2.1,0.4-4.2,0.5-6.3c0.2-1.8,0.4-3.6,0.6-5.4c0.3,0.2,0.7,0.2,1,0.2c0.6,0,1.3-0.2,1.8-0.7
		c0.5-0.5,0.7-1.1,0.7-1.8c0-0.5,0.1-1,0.1-1.4c0.1-0.9,0.3-1.8,0.6-2.7C120.4,232.4,120.3,231.8,120.1,231.2z"/>
	<path class="st1" d="M200.4,341.7c4.2-0.5,7-0.8,7.5-0.7c-0.4-0.3-2.4-2.6-5.5-6.1c0.5-0.2,0.9-0.5,1.2-0.8c0.8-1,0.6-2.2-0.1-3.2
		c0.8,0,1.7-0.1,2-1c0.2-0.5,0-1,0-1.5c-0.1-0.5-0.1-1.1-0.1-1.6c-0.2-2.2-0.2-4.4-0.2-6.5c0-0.6-0.3-0.9-0.8-1
		c-0.2-0.1-0.5-0.2-0.8-0.1c-1.3,0.2-2.7,0.3-4,0.2c-1.1-0.1-2.2-0.1-3.3,0c-0.1-3.1-0.3-6.2-0.6-9.3c-0.1-0.6-0.5-1.1-1.1-1.1
		c0,0,0,0,0,0c0,0-0.1,0-0.1,0l-7.2,0.1c-0.2-0.1-0.4-0.2-0.6-0.3c0,0,0,0,0,0c-0.1-3-0.2-5.9-0.4-8.9c0-0.5-0.5-1.2-1.1-1.1
		c-0.8,0.1-1.6,0.1-2.5,0.2c-1.4-0.1-2.8-0.2-4.3-0.2c-0.2,0-0.5-0.1-0.7-0.1c-0.2-3-0.4-6-0.7-9c0-0.6-0.5-1.1-1.1-1.1
		c-2.6,0-5.3-0.1-7.9-0.1c0,0,0-0.1,0-0.1c0,0,0,0,0,0c0-0.7-0.1-1.3-0.1-1.9c0.1-2.2,0-4.5-0.1-6.7c0,0,0-0.1,0-0.1c0,0,0,0,0,0
		c0-0.5-0.4-1-0.9-1c-0.1-0.1-0.3-0.2-0.5-0.2c-2.3,0-4.7-0.1-7-0.1c-0.3-0.3-0.6-0.7-0.9-1c0-0.5-0.1-1-0.1-1.5
		c-0.1-0.9-0.1-1.8-0.1-2.7c0-1.2,0-2.3,0-3.5c0-0.4-0.2-0.7-0.4-0.8c-0.2-0.3-0.5-0.4-0.8-0.4c-2.7,0-5.4,0-8.1-0.3
		c0.1-3,0.2-6.1,0.1-9.1c0-0.4-0.2-0.7-0.4-0.8c-0.2-0.2-0.4-0.3-0.7-0.2c-1.7,0.1-3.3,0-5-0.1c-1.3-0.1-2.6-0.2-3.9-0.2
		c0-3,0-5.9-0.2-8.9c0-0.7-0.5-1-1.1-1c0,0-0.1,0-0.1,0c-1.8,0-3.5-0.1-5.3-0.1l-2.3,0c0.1-3,0-6-0.1-9c0-0.5-0.3-0.8-0.7-0.9
		c-0.2-0.1-0.3-0.2-0.6-0.2c-0.4,0-0.8,0-1.2,0.1c-2.2-2.9-4.4-5.8-6.4-8.9c0-0.1-0.1-0.2-0.1-0.3c-0.1-0.2-0.2-0.3-0.3-0.5
		c-0.1-0.2-0.2-0.4-0.4-0.5c-0.1-0.2-0.3-0.3-0.4-0.5c-0.3-0.4-1.3-1.1-1.8-1.2c-0.7-0.2-0.7-0.1-1.4,0.1c-1.2,0.5-1.7,2.4-2.2,3.5
		c-0.4,0.9-0.7,1.8-1,2.7c-0.6,1.7-1.1,3.4-1.6,5.2l-1,0c0,0,0,0-0.1,0c0,0,0,0,0,0c-0.3,0-0.5,0.5-0.6,1.1
		c-0.1,3.1-0.2,6.2-0.3,9.3c-0.6-0.1-1.1,0-1.7,0c-0.7,0.1-1.4,0.1-2.1-0.2c-0.2-0.1-0.3,0-0.4,0.1c-0.2,0.1-0.4,0.4-0.4,1
		c0,2.2,0,4.4-0.1,6.5c0,0.5,0,1.1-0.1,1.6c0,0.4,0,0.8,0,1.2c-1.3,0-2.7,0-4-0.1c-0.1,0-0.2,0-0.2,0.1c-0.2,0.1-0.4,0.4-0.4,1
		c-0.1,3.1-0.1,6.2-0.1,9.3c0,0-0.1,0-0.1,0c-1.4,0-2.7,0-4.1-0.2c-0.1,0-0.2,0.1-0.3,0.2c-0.2,0.1-0.3,0.5-0.3,0.9
		c-0.1,3-0.1,6-0.1,9l-1.2,0c-0.9,0-1.8,0.1-2.7,0.1c0,0,0,0-0.1,0c-0.3,0-0.5,0.4-0.5,1c-0.1,2.9-0.1,5.9-0.1,8.9
		c-0.7,0-1.4,0.1-2,0.2c-0.9,0.1-1.7,0.2-2.6,0.1c-0.2,0-0.3,0.1-0.4,0.2c-0.1,0.2-0.2,0.4-0.2,0.8c0,3,0,6.1,0,9.1
		c-1.4,0.3-2.8,0.3-4.2,0.3c-0.2,0-0.3,0.2-0.4,0.4c-0.1,0.2-0.2,0.4-0.2,0.8c0,1.2,0,2.3,0,3.5c0,0.9,0,1.8-0.1,2.7
		c0,0.5,0,1,0,1.5c0,0.3,0,0.6,0,0.9c-1.3,0.1-2.7,0.1-4,0.2c-0.1,0-0.2,0.1-0.3,0.2c-0.2,0.1-0.5,0.6-0.5,1c0,0,0,0,0,0
		c0,0,0,0.1,0,0.1c-0.1,2.2-0.1,4.5-0.1,6.7c0,0.6-0.1,1.3-0.1,1.9c0,0.1,0,0.1,0,0.2c-1.3,0-2.7,0.1-4,0.1c-0.3,0-0.5,0.5-0.6,1.1
		c-0.1,3-0.2,6-0.3,9c-0.1,0-0.2,0.1-0.4,0.1c-0.7,0-1.5,0.1-2.2,0.2c-0.4,0-0.9-0.1-1.3-0.2c-0.3-0.1-0.6,0.6-0.6,1.1
		c-0.1,3-0.1,5.9-0.2,8.9c0,0.1,0,0.2,0,0.3c0,0,0,0,0,0l-4.1-0.1c0,0,0,0-0.1,0c0,0,0,0,0,0c-0.3,0-0.5,0.5-0.6,1.1
		c-0.1,3.1-0.2,6.2-0.3,9.3c-0.6-0.1-1.1,0-1.7,0c-0.7,0.1-1.4,0.1-2.1-0.2c-0.2-0.1-0.3,0-0.4,0.1c-0.2,0.1-0.4,0.4-0.4,1
		c0,2.2,0,7-0.1,9.2c0,0.5,0,1.1-0.1,1.6c0,0.4,0,0.8,0,1.1l-0.6,1.3l1.1,0c0.3,0.2,0.8,0.1,1.1,0.1c0.1,0,0.2,0,0.2-0.1l39.9,0.1
		c0.1,0.1,0.2,0.1,0.3,0.1c0.1,0,0.2,0,0.2,0c0,0,0.1,0,0.1,0c0,0,0.1,0,0.1,0c0,0,0.1,0,0.1,0c0.1,0,0.2,0,0.2,0c0.1,0,0.1,0,0.2,0
		c0.2,0,0.3,0,0.5,0c0.4,0,0.8,0,1.2,0c10,0.2,19.9,0.3,29.9,0.4c3,0,6,0,9,0c0,0,0.1,0,0.1,0c1.1,0.1,2.2,0.1,3.4,0
		c1.9,0,3.8-0.1,5.7-0.1c3.7-0.1,7.4-0.1,11.1-0.2c1.3,0,2.1-0.9,2.3-1.9c0.4-0.3,0.7-0.7,0.8-1.1h52.2L200.4,341.7z"/>
</g>
<g id="Layer_12">
	<g>
		<defs>
			<path id="SVGID_1_" d="M215.7,361.3h-52.2c-0.2,0.4-0.5,0.8-0.8,1.1c-0.2,1-1,1.8-2.3,1.9c-3.7,0.1-7.4,0.1-11.1,0.2
				c-1.9,0-3.8,0.1-5.7,0.1c-1.1,0-2.3,0-3.4,0c0,0-0.1,0-0.1,0c-3,0-6,0-9,0c-10-0.1-19.9-0.2-29.9-0.4c-0.4,0-0.8,0-1.2,0
				c-0.2,0-0.3,0-0.5,0c-0.1,0-0.1,0-0.2,0c-0.1,0-0.1,0-0.2,0c0,0-0.1,0-0.1,0c0,0-0.1,0-0.1,0c0,0-0.1,0-0.1,0c-0.1,0-0.2,0-0.2,0
				c-0.1,0-0.2,0-0.3-0.1l-2.5,0c0,0,0,0-0.1,0c-0.9,0-1.9,0-2.8,0l-23.1-0.1c-1.3,0-2.6,0-3.9,0l-2.1,0c-0.3,0-0.5,0-0.8,0
				c-1.6,0-3.2,0.1-4.8,0.1c-0.3,0-0.6,0.1-0.9,0c-0.4,0-0.9,0-1.3-0.1c-1.6,0-3.2,0-4.7,0c0,0,0,0-0.1,0c-1.5,0-2.9,0-4.4,0l-14,0
				c-0.1,0-0.1,0-0.2,0c-1.6,0-3.3,0-4.9,0c0,0,0,0,0,0c-2.2,0-4.3,0-6.5,0c-6.4,0-12.7,0-19.1,0.1c0,0-0.1,0-0.1,0
				c-0.3,0-0.6,0-0.9,0c0-0.1,0-0.1,0-0.2c-0.4-0.1-0.7-0.4-0.9-0.9c-0.2-0.5,0-1,0-1.5c0,0,0-0.1,0-0.1c0-0.1-0.1-0.2-0.1-0.3
				c0,0,0.1-0.1,0.1-0.1c0-0.4,0.1-0.7,0.1-1.1c0.2-2.2,0.2-7,0.2-9.2c0-0.6,0.4-0.1,0.8-0.2c0.2-0.1,0.3-0.4,0.6-0.3
				c1.3,0.2,2.7,0.3,4.1,0.2c1.1-0.1,2.2-0.3,3.3-0.2c0.1-3.1,0.3-6.7,0.6-9.8c0.1-0.6-0.1-0.1,0.5-0.1c0,0,0.3,0.4,0.4,0.4
				c0,0,0.5,0.3,0.6,0.3l7.5-0.2c0,0,0.2-1.3,0.2-1.3c0-0.1-0.1-0.2-0.1-0.3c0.1-3,0.2-5.9,0.4-8.9c0-0.5,0.7,0,1.3,0.1
				c0.8,0.1,1.8,1.1,2.6,1.1c1.4-0.1,2.7-0.8,4.1-0.8c0.2,0,0.2-1.1,0.5-1.1c0.2-3,0.5-6.5,0.7-9.5c0-0.6,0.5-0.1,1.1-0.1l7.9-0.5
				c0,0,0-0.7,0-0.7c0,0,0,0,0,0c0-0.7,0.1-1.3,0.1-1.9c-0.1-2.2,0-4.5,0.1-6.7c0,0,0-0.1,0-0.1c0,0,0,0,0,0c0-0.5,0.4-1,0.9-1
				c0.1-0.1,0.4,0.6,0.6,0.6c2.6-0.1,5.1,0.1,7.7,0.1c0-0.3,0.1-1.6,0.1-1.9c0-0.5,0.1-1,0.1-1.5c0.1-0.9,0.1-1.8,0.1-2.7
				c0-1.2,0-2.3,0-3.5c0-0.4,0.2-0.7,0.4-0.8c0.2-0.3,0.5-0.4,0.8-0.4c2.7,0,5.4,1,8.1,0.7c-0.1-3-0.2-7.1-0.1-10.1
				c0-0.4,0.2-0.7,0.4-0.8c0.2-0.2,0.8,2.2,1.1,2.2c1.7,0.1,2.9-0.8,4.6-0.9c1.3-0.1,2.7,0.1,4,0.1c0-3,0-7.9,0.2-10.9
				c0-0.7,0.4,0.9,0.9,0.8c0,0,0,0.2,0,0.2c1.8,0,4.3-0.2,6-0.2l1.9,0.1c-0.1-3-0.1-8.2,0.1-11.2c0-0.5,0.5,0.5,0.9,0.4
				c0.2-0.1,0.3-0.1,0.5-0.1c2.6,0.2,5-0.2,7.6-0.2c0.1,0,0.2-1,0.2-0.9c0-3.1,0-6.2,0.2-9.3c0-0.6,0.5,0.9,0.9,0.8
				c0.1-0.1,0.4-0.3,0.5-0.3c2.6,0.1,5-0.4,7.6-0.5c0-0.4,0-1.8,0-2.2c0.1-0.5,0.1-1.1,0.1-1.6c0.2-2.2,0.2-4.4,0.2-6.5
				c0-0.6,0.3,1,0.8,0.9c0.2-0.1,0.4-0.4,0.7-0.4c1.3,0.2,3.2,0.1,4.6,0.1c1.1-0.1,1.6-0.6,2.7-0.4c0.1-3.1,0.3-7.3,0.6-10.4
				c0.1-0.6,0,0,0.6,0c0,0,0.4-0.1,0.4-0.1c0,0,0.2,0.2,0.3,0.2l1.6,0c0-0.1,0.5-1.4,0.5-1.5c1.2-2,2.5-3.7,3.9-5.6
				c0.8-1.1,1.9-2.4,2.7-3.4c0.8-1,1.5-1.9,2.6-2.1c0,0,0,0,0,0c0.7-0.3,0.7-0.3,1.4-0.1c0.5,0.1,1.5,0.8,1.8,1.2
				c0.2,0.1,0.3,0.3,0.4,0.5c0.1,0.2,0.2,0.4,0.4,0.5c0.1,0.1,0.3,0.3,0.3,0.5c0,0.1,0.1,0.2,0.1,0.3c2,3,4.2,6,6.4,8.9
				c0.4,0,0.8,0,1.2-0.1c0.2,0,0.4,0.1,0.6,0.2c0.4,0.1,0.6,0.5,0.7,0.9c0.2,3,0.2,6,0.1,9l2.3,0c1.8,0,3.5,0.1,5.3,0.1
				c0,0,0.1,0,0.1,0c0.5,0,1,0.4,1.1,1c0.2,2.9,0.2,6.5,0.1,9.5c1.3,0,4,2.6,5.3,2.7c1.7,0.1,2-2.9,3.7-3c0.3,0,0.5,0.1,0.7,0.2
				c0.2,0.2,0.4,0.4,0.4,0.8c0.1,3,0,6.1-0.1,9.1c2.7,0.3,5.4,0.3,8.1,0.3c0.4,0,0.6,0.2,0.8,0.4c0.2,0.2,0.4,0.4,0.4,0.8
				c0,1.2,0,2.3,0,3.5c0,0.9,0.1,1.8,0.1,2.7c0,0.5,0.1,1,0.1,1.5c0.3,0.3,0.6,0.7,0.9,1c2.3,0,4.7,0.1,7,0.1c0.2,0,0.4,0.1,0.5,0.2
				c0.5,0.1,0.9,0.6,0.9,1c0,0,0,0,0,0c0,0,0,0.1,0,0.1c0.2,2.2,0.2,4.5,0.1,6.7c0,0.7,0.1,1.3,0.1,1.9c0,0,0,0,0,0c0,0,0,0.1,0,0.1
				c2.6,0,5.3,0.1,7.9,0.1c0.6,0,1,0.5,1.1,1.1c0.2,3,0.4,6,0.7,9c0.2,0,0.5,0.1,0.7,0.1c1.4,0,2.8,0.1,4.3,0.2
				c0.8,0,1.7-0.1,2.5-0.2c0.6-0.1,1.1,0.6,1.1,1.1c0.1,3,0.2,5.9,0.4,8.9c0,0,0,0.4,0,0.4c0.2,0.1,0.4-0.3,0.6-0.1l7.2-0.1
				c0.1,0,0.1,0,0.1,0c0,0,0,0,0,0c0.6,0,1,0.5,1.1,1.1c0.3,3.1,0.5,6.2,0.6,9.3c1.1-0.1,2.2,0,3.3,0c1.3,0.1,2.7,0.1,4-0.2
				c0.3-0.1,0.6,0,0.8,0.1c0.4,0.1,0.8,0.4,0.8,1c0,2.2,0,4.4,0.2,6.5c0,0.5,0.1,1.1,0.1,1.6c0.1,0.5,0.2,1,0,1.5
				c-0.3,0.9-1.1,1-2,1c0.8,1,0.9,2.2,0.1,3.2c-0.3,0.4-0.7,0.7-1.2,0.8c3.1,3.6,5.1,5.8,5.5,6.1c-0.5-0.1-3.2,0.2-7.5,0.7
				L215.7,361.3z"/>
		</defs>
		<clipPath id="SVGID_2_">
			<use xlink:href="#SVGID_1_"  style="overflow:visible;"/>
		</clipPath>
		<g class="st2">
			<line class="st3" x1="-168.7" y1="349.4" x2="211.4" y2="349.4"/>
			<line class="st3" x1="-166" y1="339.1" x2="214" y2="339.1"/>
			<line class="st3" x1="-168.7" y1="328.9" x2="211.4" y2="328.9"/>
			<line class="st3" x1="-166" y1="318.7" x2="214" y2="318.7"/>
			<line class="st3" x1="-163.3" y1="308.4" x2="216.7" y2="308.4"/>
			<line class="st3" x1="-160.7" y1="298.2" x2="219.4" y2="298.2"/>
			<line class="st3" x1="-149.9" y1="287.9" x2="230.1" y2="287.9"/>
			<line class="st3" x1="-152.6" y1="277.7" x2="227.4" y2="277.7"/>
			<line class="st3" x1="-149.9" y1="267.4" x2="230.1" y2="267.4"/>
			<line class="st3" x1="-147.3" y1="257.2" x2="232.8" y2="257.2"/>
			<line class="st3" x1="-144.6" y1="246.9" x2="235.5" y2="246.9"/>
			<line class="st3" x1="-147.3" y1="236.7" x2="232.8" y2="236.7"/>
			<line class="st3" x1="-147.3" y1="216.2" x2="232.8" y2="216.2"/>
			<line class="st3" x1="-144.6" y1="205.9" x2="235.5" y2="205.9"/>
			<line class="st3" x1="-141.9" y1="195.7" x2="238.1" y2="195.7"/>
			<line class="st3" x1="-131.2" y1="185.5" x2="248.8" y2="185.5"/>
			<line class="st3" x1="-133.9" y1="175.2" x2="246.2" y2="175.2"/>
			<line class="st3" x1="-131.2" y1="165" x2="248.8" y2="165"/>
			<line class="st3" x1="-128.5" y1="154.7" x2="251.5" y2="154.7"/>
			<line class="st3" x1="-125.9" y1="144.5" x2="254.2" y2="144.5"/>
			<line class="st3" x1="-14.8" y1="134.2" x2="365.3" y2="134.2"/>
			<line class="st3" x1="-17.5" y1="124" x2="362.6" y2="124"/>
			<line class="st3" x1="-14.8" y1="113.7" x2="365.3" y2="113.7"/>
			<line class="st3" x1="-12.1" y1="103.5" x2="367.9" y2="103.5"/>
			<line class="st3" x1="-9.4" y1="93.2" x2="370.6" y2="93.2"/>
			<line class="st3" x1="1.3" y1="83" x2="381.3" y2="83"/>
			<line class="st3" x1="-1.4" y1="72.7" x2="378.6" y2="72.7"/>
			<line class="st3" x1="1.3" y1="62.5" x2="381.3" y2="62.5"/>
			<line class="st3" x1="3.9" y1="52.3" x2="384" y2="52.3"/>
			<line class="st3" x1="6.6" y1="42" x2="386.7" y2="42"/>
			<line class="st3" x1="3.9" y1="31.8" x2="384" y2="31.8"/>
			<line class="st3" x1="1.3" y1="21.5" x2="381.3" y2="21.5"/>
			<line class="st3" x1="3.9" y1="11.3" x2="384" y2="11.3"/>
			<line class="st3" x1="6.6" y1="1" x2="386.7" y2="1"/>
			<line class="st3" x1="9.3" y1="-9.2" x2="389.3" y2="-9.2"/>
			<line class="st3" x1="20" y1="-19.5" x2="400.1" y2="-19.5"/>
		</g>
	</g>
</g>
<g id="pyramid">
	<path class="st0" d="M397.1,141.7l8.8-5.8c0,0,19.3,0.9,20.7,0.5c0.8-0.3,12.7-0.3,14.8-0.3c0.1,0,0.1,0,0.2,0c0.7,0,1.4,0,2.1,0
		c0.2,0,0.4,0,0.4,0c0.1-4-0.1-7.9-0.5-11.9c0-0.3,0.4-0.4,0.9-0.5c0.1,0,0.3,0,0.4,0c1.2,0,2.4,0.1,3.6,0.1c0-4,0-8.1,0.1-12.1
		c0-0.3,0.5-0.5,1-0.5c0.1,0,0.3-0.1,0.4-0.1c0.6,0,1.2,0,1.8,0c0.2,0,0.4,0,0.6,0c0.1,0,0.1,0,0.2,0c0.1,0,0.1,0,0.2,0
		c-0.2-3.9-0.5-7.7-0.7-11.6c0-0.2,0.1-0.3,0.3-0.4c0-0.3,0.5-0.5,1-0.5c1,0,2,0,3.1,0c0,0,0,0,0.1,0c0-0.6-0.1-1.2-0.1-1.7
		c0-1.1,0-2.2,0-3.2c0-2.2,0-4.5,0-6.7c0-0.2,0.2-0.3,0.4-0.4c0.1-0.1,0.3-0.2,0.6-0.2c1-0.1,1.9-0.1,2.9-0.1
		c0.1-3.9,0.1-7.9,0.2-11.8c0-0.1,0.1-0.2,0.1-0.2c0,0,0-0.1,0-0.1c0-0.1,0.1-0.1,0.2-0.2c0.2-0.2,0.6-0.3,1-0.3c1,0,1.9,0,2.9,0
		c0.1,0,0.2,0,0.3,0c-0.6-3.9-0.9-7.7-0.8-11.6c-0.1-0.1-0.1-0.1-0.1-0.2c0-0.3,0.5-0.5,1.1-0.5c0.8,0,1.6,0,2.4,0
		c0-4,0.1-8.1,0.3-12.1c0-0.4,0.9-0.6,1.5-0.4c0.6,0-1.3,0-1.3,0c-0.3-4,2.7-8,2.8-12c0,0,0-0.1,0.1-0.1c0,0,0,0,0,0
		c0-0.3,0.5-0.5,1.1-0.5c0.9,0,1.9,0,2.8,0c0.1-4,0.2-8,0.4-12c0-0.2,0.1-0.3,0.3-0.3c0.2-0.1,0.5-0.2,0.8-0.2c0.3,0,0.7,0,1,0
		c0-0.1-0.1-0.2,0-0.2c1.6-3.1,3.2-6.3,4.9-9.4c-2.6,3.4-5.4,6.6-8.2,9.8c-0.9,0.1-1.9,0.1-2.8,0.2c-2,0.2-13,0.2-15,0.1
		c-0.4,0-0.6,0.1-0.8,0.3c-0.3,0.2-0.5,0.5-0.5,1c-0.1,3.7,0,7.4,0.1,11.1c-3.3,0.3-6.5,0.3-9.8,0.3c-0.4,0-0.8,0.2-1,0.5
		c-0.3,0.2-0.5,0.5-0.5,1c0,1.4,0,2.8,0,4.3c0,1.1-0.1,2.2-0.1,3.3c0,0.6,8.9,1.2,8.9,1.9c0,0.4-0.1,0.8-0.1,1.1
		c-3.2,0.1-6.3,0.1-9.5,0.2c-0.3,0-0.5,0.1-0.6,0.2c-0.6,0.1-1.1,0.7-1.1,1.3c0,0,0,0,0,0.1c0,0,0,0.1,0,0.1
		c-0.2,2.7-0.3,5.4-0.2,8.2c-0.1,0.8-9.1,1.6-9.2,2.4c0,0,0,0,0,0c0,0,0,0.1,0,0.1c-3.2,0-6.4,0.1-9.6,0.1c-0.8,0-1.3,0.6-1.3,1.3
		c-0.3,3.7-0.5,7.3-0.8,11c-0.3,0-0.6,0.1-0.9,0.1c-1.7,0-3.4,0.1-5.2,0.2c-1,0-2-0.1-3-0.2c-0.7-0.1-1.3,0.7-1.3,1.3l-0.8,6.4
		c0,0.1-2,3.7-2,3.7c0,0-38.2,41.6-38.4,43.3c-0.7,5-4.3,6.5-4.3,7.3l21.2,0.4L397.1,141.7z"/>
	<path class="st1" d="M578.2,124.2c-0.6-0.7-34.5-46.1-36.7-48.7c-0.6-0.8-3.8-1.4-4.8-1.3c-1.7-0.1-1-0.4-2.7-0.5
		c-0.3,0-0.6-0.1-0.9-0.1c-0.3-3.7-0.5-7.3-0.8-11c-0.1-0.7-0.6-1.3-1.3-1.3c-3.2,0-6.4-0.1-9.6-0.1c0,0,0-0.1,0-0.1
		c0-0.8-0.1-1.6-0.2-2.4c0.1-2.7,0-5.4-0.2-8.2c0,0,0-0.1,0-0.1c0,0,0,0,0-0.1c0-0.6-0.5-1.2-1.1-1.3c-0.2-0.1-0.4-0.2-0.6-0.2
		c-3.2-0.1-6.3-0.1-9.5-0.2c0-0.4-0.1-0.8-0.1-1.1c0-0.6-0.1-1.2-0.1-1.9c-0.1-1.1-0.1-2.2-0.1-3.3c0-1.4,0-2.8,0-4.3
		c0-0.5-0.2-0.8-0.5-1c-0.2-0.3-0.6-0.5-1-0.5c-3.3,0-6.5,0-9.8-0.3c0.1-3.7,0.2-7.4,0.1-11.1c0-0.5-0.2-0.8-0.5-1
		c-0.2-0.2-0.5-0.3-0.8-0.3c-2,0.1-9.2,0.2-10.5,0.3c-0.1-0.2-0.3-0.3-0.4-0.5c-1.2-1.4-2.5-2.8-3.7-4.2c-1-1.1-4.8-5.4-5.8-6.5
		c-0.3-0.2-0.5-0.5-0.8-0.8c-0.2,0-0.4-0.1-0.6-0.1c-0.1,0-0.2,0-0.4,0c-0.2,0.1-0.4,0.1-0.6,0.2c0,0-0.1,0-0.1,0
		c-0.3,0.3-0.6,0.6-0.8,1c0,0,0,0,0,0c-0.1,0.1-0.2,0.2-0.3,0.3c-0.1,0.1-0.2,0.3-0.2,0.4c-1.7,3.1-3.3,6.3-4.9,9.4
		c0,0.1,0,0.2,0,0.2c-0.3,0-0.7,0-1,0c-0.3,0-0.6,0.1-0.8,0.2c-0.2,0.1-0.3,0.2-0.3,0.3c-0.1,4-0.2,8-0.4,12c-0.9,0-1.9,0-2.8,0
		c-0.6,0-1.1,0.2-1.1,0.5c0,0,0,0,0,0c0,0-0.1,0.1-0.1,0.1c-0.1,4-0.1,8,0.2,12c0,0,0,0,0,0c-0.6,0-1.1,0-1.7,0
		c-0.6-0.1-1.5,0-1.5,0.4c-0.2,4-0.3,8.1-0.3,12.1c-0.8,0-1.6,0-2.4,0c-0.6,0-1.1,0.2-1.1,0.5c0,0.1,0,0.1,0.1,0.2
		c-0.1,3.9-17.2,69.8-17,74.7l7.7,1.5l12.2,1.4l1.2,0.9l12,9l24.6-5.6l22,1.9l7.5-1.9h11.3l6.4-6.7l24.3-2.9l3.3,5.8h7.5l11.4-3.7
		C589.6,132.8,579.3,125.4,578.2,124.2z"/>
	<g>
		<path class="st4" d="M533.5,60.9c0-0.6-0.5-1.2-1.1-1.1c-0.9,0.1-1.7,0.1-2.6,0.2c-1.5-0.1-3-0.2-4.5-0.2c-0.2,0-0.5-0.1-0.7-0.1
			c-0.2-3.2-0.5-6.3-0.7-9.5c0-0.6-0.5-1.1-1.1-1.1c-2.8,0-5.5-0.1-8.3-0.1c0,0,0-0.1,0-0.1c0,0,0,0,0,0c0-0.7-0.1-1.4-0.1-2
			c0.1-2.3,0-4.7-0.2-7c0,0,0-0.1,0-0.1c0,0,0,0,0-0.1c0-0.5-0.4-1-0.9-1.1c-0.2-0.1-0.3-0.2-0.6-0.2c-2.7-0.1-5.5-0.1-8.2-0.2
			c0-0.3-0.1-0.7-0.1-1c0-0.5-0.1-1.1-0.1-1.6c-0.1-0.9-0.1-1.9-0.1-2.9c0-1.2,0-2.5,0-3.7c0-0.4-0.2-0.7-0.4-0.9
			c-0.2-0.3-0.5-0.5-0.9-0.5c-2.8,0-5.7,0-8.5-0.3c0.1-3.2,0.2-6.4,0.1-9.6c0-0.4-0.2-0.7-0.5-0.9c-0.2-0.2-0.4-0.3-0.7-0.3
			c-1.7,0.1-4,0.1-5.1,0.2c-0.1-0.1-0.2-0.3-0.4-0.4c-1.1-1.2-2.1-2.4-3.2-3.6c-0.8-1-4.2-4.7-5-5.6c-0.2-0.2-3.6-3.1-4.7-2.4
			c-2.4,1.6-4.2,10.1-5.8,11.9c-0.8,0-1.6,0.1-2.4,0.2c-1.7,0.1-3.5,0.2-5.2,0.1c-0.3,0-0.6,0.1-0.7,0.3c-0.3,0.2-0.4,0.5-0.5,0.9
			c-0.1,3.2,0,6.4,0.1,9.6c-2.8,0.3-5.7,0.3-8.5,0.3c-0.4,0-0.7,0.2-0.9,0.5c-0.3,0.2-0.4,0.5-0.4,0.9c0,1.2,0,2.5,0,3.7
			c0,1-0.1,1.9-0.1,2.9c0,0.5-0.1,1.1-0.1,1.6c0,0.3-0.1,0.6-0.1,1c-2.7,0.1-5.5,0.1-8.2,0.2c-0.2,0-0.4,0.1-0.6,0.2
			c-0.5,0.1-0.9,0.6-0.9,1.1c0,0,0,0,0,0.1c0,0,0,0.1,0,0.1c-0.2,2.3-0.2,4.7-0.2,7c0,0.7-0.1,1.4-0.1,2c0,0,0,0,0,0
			c0,0,0,0.1,0,0.1c-2.8,0-5.5,0.1-8.3,0.1c-0.7,0-1.1,0.5-1.1,1.1c-0.2,3.2-0.5,6.3-0.7,9.5c-0.2,0-0.5,0.1-0.7,0.1
			c-1.5,0-3,0.1-4.5,0.2c-0.9,0-1.7-0.1-2.6-0.2c-0.6-0.1-1.1,0.6-1.1,1.1l-0.4,9.3c0,0.1,0,0.2,0.1,0.3c0,0,0,0,0,0l-8.3-0.2
			c-0.1,0-0.1,0-0.1,0c0,0,0,0,0,0c-0.7,0-1.1,0.5-1.1,1.1c-0.2,2-1.5,3.4-2.7,5.4l0.7,0.5l-0.4,3.1l2.1,1.9l6.4-5.1l5.4,0.6
			l6.5,3.4l7.9-4l8.9,0.5c0,0.4,0,3.4,0,3.8c0,0.9,0,2,0,2.9c0,0.5,0.1,1.2,0.1,1.2l8.5,4l3.9,2.8l4.5,1.8l4.3-3.9l8-11.1l8.6,3.1
			l17.9,5.7l12.6-0.6l4.5,2.8l7.3,1l7.3-8.9l-1.4-4.5l5.3-4.4l-0.6-2.8c0-0.1-0.3-2.9-0.4-3C536,65.2,533.7,64,533.5,60.9z"/>
	</g>
	<path class="st0" d="M417,74.3l5.9,0.9l6.1,3.2l7.5-4.2l24.6,1.6c0,0,0,0,0.1,0c0-0.5-0.1-1-0.1-1.5c0-0.9,11.1-70.8,12.5-73.5
		c-2.3,2.9-6.1,7.6-8.6,10.3c-0.8,0-1.6,0.1-2.4,0.2c-1.7,0.1-3.5,0.2-5.2,0.1c-0.3,0-0.6,0.1-0.7,0.3c-0.3,0.2-0.4,0.5-0.5,0.9
		c-0.1,3.2,0,6.4,0.1,9.6c-2.8,0.3-5.7,0.3-8.5,0.3c-0.4,0-0.7,0.2-0.9,0.5c-0.3,0.2-0.4,0.5-0.4,0.9c0,1.2,0,2.5,0,3.7
		c0,1-0.1,1.9-0.1,2.9c0,0.5-0.1,1.1-0.1,1.6c0,0.3-0.1,0.6-0.1,1c-2.7,0.1-5.5,0.1-8.2,0.2c-0.2,0-0.4,0.1-0.6,0.2
		c-0.5,0.1-0.9,0.6-0.9,1.1c0,0,0,0,0,0.1c0,0,0,0.1,0,0.1c-0.2,2.3-0.2,4.7-0.2,7c0,0.7-0.1,1.4-0.1,2c0,0,0,0,0,0c0,0,0,0.1,0,0.1
		c-2.8,0-5.5,0.1-8.3,0.1c-0.7,0-1.1,0.5-1.1,1.1c-0.2,3.2-0.5,6.3-0.7,9.5c-0.2,0-0.5,0.1-0.7,0.1c-1.5,0-3,0.1-4.5,0.2
		c-0.9,0-1.7-0.1-2.6-0.2c-0.6-0.1-1.1,0.6-1.1,1.1l-0.4,9.3c0,0.1,0,0.2,0.1,0.3c0,0,0,0,0,0l-8.3-0.2c-0.1,0-0.1,0-0.1,0
		c0,0,0,0,0,0c-0.7,0-1.1,0.5-1.1,1.1c-0.3,3.2-0.5,6.5-0.6,9.8l4,2.9L417,74.3z"/>
	<path class="st1" d="M723.4,303.6c0,0-0.1-0.1-0.2-0.1C723.3,303.6,723.4,303.6,723.4,303.6z"/>
	<path class="st0" d="M370.8,364.6c0-0.4,0-0.7,0-1c0-1.6,0-3.2,0-4.8c0.1-3.3,0.3-6.6,0.8-9.9c0.1-0.4,0.9-0.5,1.5-0.5
		c0.1,0,0.1,0,0.2,0c0.1,0,0.2,0,0.4,0c0,0,0,0,0,0c0,0,0,0,0,0c0.8,0,1.5,0,2.3,0.1c0,0,0,0,0,0c-0.2-4-0.3-8-0.3-12
		c0-0.3,0.5-0.5,1.1-0.5c0.3,0,0.6,0,0.8,0c0.9,0,1.8,0,2.8,0c-0.1-4-0.2-8.1-0.3-12.1c0-0.4,0.8-0.5,1.4-0.4c0.9,0,1.9,0,2.8,0
		c0-4,0.1-8,0.1-11.9c0-0.4,0.7-0.5,1.3-0.5c0,0,0.1,0,0.1,0c0.1,0,0.1,0,0.2,0c0.7,0,1.5,0,2.2,0c0-0.4-0.1-1.3-0.1-1.4
		c0-0.5,0-1,0.1-1.5c0-1,0.1-2,0.1-3c0-0.7,0-1.4,0.1-2.1c0-1.4-0.1-2.7-0.1-4.1c0-0.4,0.6-0.5,1.2-0.5c0.4-0.1,0.8-0.1,1.2,0.1
		c0.4,0,0.8,0,1.2,0c0.1-4,0.1-8.1,0.2-12.1c0-0.4,1-0.6,1.6-0.4c0.8,0,1.6,0,2.4,0c0-0.5,0-1.1-0.1-1.6c0-1.2-0.1-2.3-0.1-3.5
		c-0.1-2.2-0.1-4.4-0.2-6.6c0,0,0,0,0,0c-0.1-0.1,0-0.2,0-0.3c0,0,0-0.1,0-0.1c-0.1-0.3,0.5-0.3,1.9-0.3c0.7,0,1.3,0,2,0
		c0,0,0,0,0,0c0.1-3.9,0.2-7.9,0.4-11.8c0-0.1,0.1-0.2,0.2-0.3c0,0,0,0,0-0.1c0-0.3,0.5-0.5,1.1-0.5c0.8,0,1.7,0,2.5,0
		c-0.2-4-0.2-8-0.1-12c0-0.2,0.3-0.4,0.7-0.4c0.2-0.1,0.3-0.1,0.6-0.1c0.5,0,1.1,0,1.6,0c0-3.9,0-7.9,0.1-11.8
		c0-0.3,0.5-0.5,1.1-0.5c0.7,0,1.3,0,2,0c0.1-4,0.1-7.9,0.2-11.9c0,0,0-0.1,0-0.1c0,0,0,0,0,0c0-0.3,0.5-0.5,1.1-0.5
		c0.9,0,1.7,0,2.6,0c-0.1-3.1-0.1-6.2-0.1-9.2c-0.1-0.8-0.1-1.5-0.1-2.3c0-0.1,0.1-0.2,0.2-0.3c0-0.1,0-0.1,0-0.2
		c0-0.4,0.7-0.5,1.3-0.5c0.6,0,1.3,0,1.9,0c0-3.9,0-7.9,0.1-11.8c0,0,0-0.1,0-0.1c0-0.1,0.1-0.3,0.3-0.4c0.2-0.1,0.5-0.1,0.7-0.1
		c1,0,1.9-0.1,2.9-0.1c0-4,0-8-0.1-12c0-0.4,0.8-0.6,1.5-0.4h2.5c0.3-4,0.4-8.1,0.3-12.1c0-0.2,0.3-0.4,0.7-0.5
		c0.1,0,0.3-0.1,0.4-0.1c0.3,0,0.5,0,0.7,0c0.5,0,0.9,0,1.4,0c0.1,0,0.1,0,0.2,0c0.1-3.9,0.2-7.9,0.4-11.8c0-0.3,0.6-0.5,1.1-0.5
		c0,0,0,0,0,0c0.3,0,0.7,0,1,0c0,0,0,0,0,0c0,0,0.1,0,0.1,0l1.7,0c0.3-4,0.4-7.9,0.4-11.9c0,0-0.1-0.1-0.1-0.1
		c0-0.3,0.5-0.5,1.1-0.5c0.7,0,1.4,0,2.1,0.1h1.3c-0.2-4-0.3-8.1-0.2-12.1c0-0.2,0.2-0.3,0.4-0.4c0.2-0.1,0.4-0.2,0.6-0.2
		c-2.2,0-5,0-5.9,0.3c-1.4,0.5-20.8-0.5-20.8-0.5l-8.8,5.8l-12.2-5.3L369,136l-2.8,0.1c-2.2,0-4.3,0.1-6.5,0.1c-0.1,0-5.1,0-5.2,0
		c-0.6,0-1.2,0.5-1.3,1.3c-0.2,3.6-0.3,7.2-0.2,10.8c-1.6,0-3.2,0.2-4.8,0.3c-2,0.2-4,0.2-6.1,0.1c-0.4,0-0.6,0.1-0.8,0.3
		c-0.3,0.2-0.5,0.5-0.5,1c-0.1,3.7,0,7.4,0.1,11.1c-3.3,0.3-6.6,0.3-9.8,0.3c-0.4,0-0.8,0.2-1,0.5c-0.3,0.2-0.5,0.5-0.5,1
		c0,1.4,0,2.8,0,4.3c0,1.1-0.1,2.2-0.1,3.3c0,0.6-0.1,1.2-0.1,1.9c0,0.4-0.1,0.8-0.1,1.1c-3.2,0.1-6.3,0.1-9.5,0.2
		c-0.3,0-0.5,0.1-0.6,0.2c-0.6,0.1-1.1,0.7-1.1,1.3c0,0,0,0,0,0.1c0,0,0,0.1,0,0.1c-0.2,2.7-0.3,5.4-0.2,8.2
		c-0.1,0.8-0.1,1.6-0.2,2.4c0,0,0,0,0,0c0,0,0,0.1,0,0.1c-3.2,0-6.4,0.1-9.6,0.1c-0.8,0-1.3,0.6-1.3,1.3c-0.3,3.7-0.5,7.3-0.8,11
		c-0.3,0-0.6,0.1-0.9,0.1c-1.7,0-3.5,0.1-5.2,0.2c-1,0-2-0.1-3-0.2c-0.7-0.1-1.3,0.7-1.3,1.3c-0.1,3.6-0.3,7.2-0.4,10.8
		c0,0.1,0,0.3,0.1,0.4c0,0,0,0,0,0l-9.6-0.2c-0.1,0-0.1,0-0.2,0c0,0,0,0-0.1,0c-0.8,0-1.3,0.6-1.3,1.3c-0.4,3.8-0.6,7.5-0.7,11.3
		c-1.3-0.1-2.7,0-4,0c-1.6,0.1-3.3,0.1-4.9-0.2c-0.4-0.1-0.7,0-0.9,0.1c-0.5,0.1-0.9,0.5-0.9,1.2c0,2.7,0,5.3-0.3,8
		c0,0.6-0.1,1.3-0.2,1.9c0,0.4-0.1,0.9-0.1,1.3c0,0-0.1,0.1-0.1,0.1c-3.1,0-6.2,0-9.3-0.1c-0.2,0-0.4,0-0.5,0.1
		c-0.5,0.1-1,0.5-1,1.2c-0.2,3.6-0.2,7.3-0.2,10.9c-0.1,0.1-0.3,0.3-0.4,0.4c-3.1,0-6.3,0-9.4-0.2c-0.2,0-0.5,0.1-0.7,0.2
		c-0.4,0.2-0.8,0.6-0.8,1.1c-0.2,3.7-0.2,7.3-0.2,11l-2.8,0.1c-2.2,0-4.3,0.1-6.5,0.1c-0.1,0-0.1,0-0.2,0c-0.6,0-1.2,0.5-1.3,1.3
		c-0.2,3.3-0.2,6.6-0.2,9.9c-0.3,0.3-0.6,0.6-0.9,0.9c-1.3,0-2.6,0.2-3.9,0.3c-2,0.2-4,0.2-6.1,0.1c-0.4,0-0.6,0.1-0.8,0.3
		c-0.3,0.2-0.5,0.5-0.5,1c-0.1,3.4,0,6.8,0.1,10.2c-0.3,0.3-0.6,0.6-0.8,0.9c-3,0.2-6,0.3-9,0.2c-0.4,0-0.8,0.2-1,0.5
		c-0.3,0.2-0.5,0.5-0.5,1c0,1.4,0,2.8,0,4.3c0,1.1-0.1,2.2-0.1,3.3c0,0.6-0.1,1.2-0.1,1.9c0,0.3-0.1,0.6-0.1,1
		c0,0.1-0.1,0.1-0.1,0.2c-3.1,0.1-6.3,0.1-9.4,0.2c-0.3,0-0.5,0.1-0.6,0.2c-0.6,0.1-1.1,0.7-1.1,1.3c0,0,0,0,0,0.1c0,0,0,0.1,0,0.1
		c-0.2,2.7-0.3,5.4-0.2,8.2c0,0.7-0.1,1.4-0.2,2.2c-0.1,0.1-0.2,0.2-0.3,0.3c-3.1,0-6.2,0.1-9.3,0.1c-0.8,0-1.3,0.6-1.3,1.3
		c-0.3,3.6-0.5,7.1-0.8,10.7c-0.1,0.1-0.2,0.2-0.3,0.3c-0.2,0-0.4,0-0.6,0.1c-1.7,0-3.5,0.1-5.2,0.2c-1,0-2-0.1-3-0.2
		c-0.7-0.1-1.3,0.7-1.3,1.3c-0.1,3.3-0.3,6.7-0.4,10c-0.3,0.3-0.6,0.7-0.9,1c-0.1,0.1-0.1,0.1-0.2,0.2l-8.4-0.2c-0.1,0-0.1,0-0.2,0
		c0,0,0,0-0.1,0c-0.8,0-1.3,0.6-1.3,1.3c-0.3,3.6-0.5,7.1-0.6,10.7c-0.2,0.2-0.4,0.4-0.6,0.6c-1.1-0.1-2.3,0-3.5,0.1
		c-1.6,0.1-3.3,0.1-4.9-0.2c-0.4-0.1-0.7,0-0.9,0.1c-0.5,0.1-0.9,0.5-0.9,1.2c0,2.7,0,8.6-0.3,11.2c0,0.6-0.1,1.3-0.2,1.9
		c-0.1,0.6-0.2,1.3,0,1.9c0.5,1.6,2.5,1.2,3.8,1.2c0.1,0,0.3,0,0.4-0.1c0,0,0,0,0,0c18.2-0.1,36.3-0.1,54.5-0.2
		c5.9,0.1,11.7,0.1,17.6,0c0,0,0,0,0,0c4.5,0,8.9-0.1,13.4-0.1c0.2,0,0.4,0,0.6,0c12.7,0,25.3-0.1,38-0.1c4,0,7.9,0,11.9,0.1
		c0.1,0,0.1,0,0.2,0c4.3,0.1,8.6,0.1,12.8,0c6.3,0.5,12.7,0.3,19,0.1c1.1,0,2.3-0.1,3.4-0.1c7.6,0.2,20.3,0.2,27.9-0.1
		c3.2,0.1,6.5,0.1,9.7,0.1c0,0,0,0,0,0C370.8,365.1,370.8,364.9,370.8,364.6z"/>
	<path class="st0" d="M435.7,136.1c0,0-0.1,0-0.4,0C435.5,136.1,435.6,136.1,435.7,136.1z"/>
	<path class="st1" d="M723.4,303.6c0,0-0.1-0.1-0.2-0.1C723.3,303.6,723.4,303.6,723.4,303.6z"/>
	<path class="st1" d="M599.3,361.3c0.4-0.6,0.5-1.4,0.3-2.1c0.5-0.2,1-0.4,1.5-0.6l157.4,0.2c0,0-36.6-55.6-35.3-55.3
		c-1.8-1.5-36.5-65.3-40.1-67.2c0-0.4-0.1-0.8-0.1-1.2c-0.1-0.6-0.1-1.3-0.2-1.9c-0.2-2.6-0.3-5.3-0.3-8c0-0.7-0.4-1.1-0.9-1.2
		c-0.3-0.1-0.6-0.2-0.9-0.1c-1.6,0.3-3.2,0.3-4.9,0.2c-1.3-0.1-2.7-0.2-4,0c-0.1-3.8-0.3-7.6-0.7-11.3c-0.1-0.7-0.6-1.3-1.3-1.3
		c0,0,0,0-0.1,0c-0.1,0-0.1,0-0.2,0l-9.6,0.2c0,0,0,0,0,0c0-0.1,0.1-0.3,0.1-0.4c-0.1-3.6-0.3-7.2-0.4-10.8c0-0.7-0.6-1.4-1.3-1.3
		c-1,0.1-2,0.2-3,0.2c-1.7-0.1-3.5-0.2-5.2-0.2c-0.3,0-0.6-0.1-0.9-0.1c-0.3-3.7-0.5-7.3-0.8-11c-0.1-0.7-0.6-1.3-1.3-1.3
		c-3.2,0-6.4-0.1-9.6-0.1c0,0,0-0.1,0-0.1c0,0,0,0,0,0c0-0.8-0.1-1.6-0.2-2.4c0.1-2.7,0-5.4-0.2-8.2c0,0,0-0.1,0-0.1c0,0,0,0,0-0.1
		c0-0.6-0.5-1.2-1.1-1.3c-0.2-0.1-0.4-0.2-0.6-0.2c-3.2-0.1-6.3-0.1-9.5-0.2c0-0.4-0.1-0.8-0.1-1.1c0-0.6-0.1-1.2-0.1-1.9
		c-0.1-1.1-0.1-2.2-0.1-3.3c0-1.4,0-2.8,0-4.3c0-0.5-0.2-0.8-0.5-1c-0.2-0.3-0.6-0.5-1-0.5c-3.3,0-6.6,0-9.8-0.3
		c0.1-3.7,0.2-7.4,0.1-11.1c0-0.5-0.2-0.8-0.5-1c-0.2-0.2-0.5-0.3-0.8-0.3c-2,0.1-4,0-6.1-0.1c-1.6-0.1-3.2-0.3-4.8-0.3
		c0-3.6,0-7.2-0.2-10.8c0-0.8-0.7-1.2-1.3-1.3c-0.1,0-0.1,0-0.2,0c-2.2,0-4.3-0.1-6.5-0.1l-2.8-0.1l-11.5,3.7h-7.5l-3.3-5.8
		l-24.5,2.9l-6.5,6.7h-11.4l-7.5,1.9l-22.1-1.9l-24.7,5.6l-12.1-9l-1.2-0.9l-12.3-1.4l-10.8-2.2c-0.1,0-0.2,0-0.4,0
		c-0.4,0-1.3,0-2.2,0c-0.2,0-0.5,0.1-0.6,0.2c-0.2,0.1-0.4,0.2-0.4,0.4c-0.1,4-0.1,8.1,0.2,12.1h-1.3c-0.7,0-1.4-0.1-2.1-0.1
		c-0.6,0-1.1,0.2-1.1,0.5c0,0.1,0,0.1,0.1,0.1c0,4-0.2,7.9-0.4,11.9l-1.7,0c0,0-0.1,0-0.1,0c0,0,0,0,0,0c-0.3,0-0.7,0-1,0
		c0,0,0,0,0,0c-0.5,0-1.1,0.1-1.1,0.5c-0.1,3.9-0.2,7.9-0.4,11.8c-0.1,0-0.1,0-0.2,0c-0.5,0-0.9,0-1.4,0c-0.2,0-0.5-0.1-0.7,0
		c-0.2,0-0.3,0.1-0.4,0.1c-0.4,0.1-0.7,0.2-0.7,0.5c0.1,4,0,8.1-0.3,12.1h-2.5c-0.6-0.1-1.5,0-1.5,0.4c0.1,4,0.2,8,0.1,12
		c-1,0-1.9,0-2.9,0.1c-0.3,0-0.5,0-0.7,0.1c-0.2,0.1-0.3,0.2-0.3,0.4c0,0,0,0.1,0,0.1c0,3.9,0,7.9-0.1,11.8c-0.6,0-1.3,0-1.9,0
		c-0.6-0.1-1.3,0.1-1.3,0.5c0,0.1,0,0.1,0,0.2c-0.1,0.1-0.2,0.2-0.2,0.3c0.1,0.8,0.1,1.5,0.1,2.3c0,3.1,0,6.2,0.1,9.2
		c-0.9,0-1.7,0-2.6,0c-0.6,0-1.1,0.2-1.1,0.5c0,0,0,0,0,0c0,0,0,0.1,0,0.1c-0.1,4-0.1,7.9-0.2,11.9c-0.7,0-1.3,0-2,0
		c-0.6,0-1.1,0.2-1.1,0.5c0,3.9,0,7.9-0.1,11.8c-0.5,0-1.1,0-1.6,0c-0.2,0-0.4,0-0.6,0.1c-0.4,0.1-0.7,0.2-0.7,0.4
		c-0.2,4-0.1,8,0.1,12c-0.8,0-1.7,0-2.5,0c-0.6,0-1.1,0.2-1.1,0.5c0,0,0,0,0,0.1c-0.1,0.1-0.2,0.2-0.2,0.3
		c-0.1,3.9-0.2,7.9-0.4,11.8c0,0,0,0,0,0c-0.7,0-1.3,0-2,0c-1.4,0-2-0.1-1.9,0.3c0,0,0,0.1,0,0.1c-0.1,0.1-0.1,0.2,0,0.3
		c0,0,0,0,0,0c0.1,2.2,0.1,4.4,0.2,6.6c0,1.2,0.1,2.3,0.1,3.5c0,0.5,0,1.1,0.1,1.6c-0.8,0-1.6,0-2.4,0c-0.6-0.2-1.6,0-1.6,0.4
		c-0.1,4-0.1,8.1-0.2,12.1c-0.4,0-0.8,0-1.2,0c-0.3-0.1-0.8-0.1-1.2-0.1c-0.6,0-1.2,0.1-1.2,0.5c0,1.4,0.1,2.7,0.1,4.1
		c0,0.7,0,1.4-0.1,2.1c0,1-0.1,2-0.1,3c0,0.5,0,1-0.1,1.5c0,0.1,0.1,1,0.1,1.4c-0.7,0-1.5,0-2.2,0c-0.1,0-0.1,0-0.2,0
		c0,0-0.1,0-0.1,0c-0.6-0.1-1.3,0.1-1.3,0.5c0,4-0.1,8-0.1,11.9c-0.9,0-1.9,0-2.8,0c-0.6-0.1-1.4,0-1.4,0.4c0.1,4,0.2,8.1,0.3,12.1
		c-0.9,0-1.8,0-2.8,0c-0.3-0.1-0.6-0.1-0.8,0c-0.5,0-1.1,0.2-1.1,0.5c-0.1,4,0,8,0.3,12c0,0,0,0,0,0c-0.8,0-1.5-0.1-2.3-0.1
		c0,0,0,0,0,0c0,0-0.5,0.1-0.6,0.1c-0.6-0.1-1.4,0.1-1.5,0.5c-0.6,3.3-0.8,6.6-0.8,9.9c0,1.6-0.1,3.2,0,4.8c0,0.3,0,0.7,0,1
		c0,0.3-0.1,0.5,0,0.8c0,0,0,0,0,0c0,0.1,0.1,0.2,0.2,0.2c0,0.1,0.1,0.1,0.2,0.2c0,0,0,0,0,0c0.1,0.1,0.4,0.2,0.6,0.2l1,0.1
		c0.1,0,0.2,0.1,0.4,0.1c0.3,0,0.6,0,0.9,0c0.5,0,0.9,0.1,1.4,0.1c0.3,0,0.5,0,0.7,0c16.3,0.6,32.7,0.7,49.1,0.4
		c5-0.1,9.9-0.2,14.9-0.4c0.2,0,0.4,0,0.5-0.1c26.3,0.5,52.7,0.9,79.1,1c8.1,0,15.7-9.1,23.8-9.1c0.1,0,9.1-0.6,9.2-0.7l30.8,2.6
		C582.2,360,602.6,361.9,599.3,361.3z"/>
	<path class="st1" d="M433.1,136.1c1,0,1.8,0,2.2,0c-0.7,0-1.4,0-2.1,0C433.2,136.1,433.2,136.1,433.1,136.1z"/>
	<g>
		<path class="st4" d="M536.4,71.4l-7.5,5.5l1.3,4.9l-4.4,6.5l-7.3-1l-4.5-2.8L501.5,85l-17.9-5.7l-9.5-3.5l-9.3,12.8l-3.2,2.4
			l-4.5-3.3l-8.9-4.1h0.1c0-0.6-0.1-1.2-0.1-1.7c0-1.1,0-2.2,0-3.2c0-1.2,0-2.4,0-3.6l-11.7-0.8l-7.5,4.2l-6.1-3.3l-5.9-0.9
			l-6.5,4.8L409,78l0-0.1l-0.7-0.5c1.3-2,2.5-3.4,2.7-5.4c0.1-0.6,0.5-1.2,1.2-1.2c0,0,0,0,0,0c0,0,0.1,0,0.1,0l8.3,0.1
			c0-0.1-0.1-0.2-0.1-0.3l0.4-9.3c0-0.6,0.5-1.2,1.1-1.1c0.9,0.1,1.7,0.1,2.6,0.2c1.5-0.1,3-0.2,4.5-0.2c0.3,0,0.5-0.1,0.7-0.1
			c0.2-3.2,0.5-6.3,0.7-9.5c0-0.6,0.5-1.1,1.1-1.1c2.8,0,5.5-0.1,8.3-0.1v-0.1c0,0,0,0,0,0c0-0.7,0.1-1.4,0.1-2.1
			c-0.1-2.3,0-4.7,0.2-7c0,0,0-0.1,0-0.1c0,0,0,0,0,0c0-0.5,0.4-1,0.9-1.1c0.2-0.1,0.3-0.2,0.6-0.2c2.7,0,5.5-0.1,8.2-0.2
			c0-0.3,0.1-0.7,0.1-1c0-0.5,0.1-1.1,0.1-1.6c0.1-1,0.1-1.9,0.1-2.8c0-1.2,0-2.5,0-3.7c0-0.4,0.2-0.7,0.4-0.9
			c0.2-0.3,0.5-0.5,0.9-0.5c2.8,0,5.7,0,8.5-0.3c-0.1-3.2-0.2-6.4-0.1-9.6c0-0.4,0.2-0.7,0.5-0.9c0.2-0.2,0.4-0.3,0.7-0.3
			c1.7,0,3.4,0,5-0.1c0.1,0,0.1,0,0.2,0c0.8-0.1,1.6-0.1,2.5-0.2c0.7-0.8,1.5-3,2.4-5.3v0c1-2.8,2.2-5.8,3.5-6.6
			c1-0.7,4.4,2.2,4.7,2.4c0.8,0.9,4.2,4.6,5,5.6c1.1,1.2,2.1,2.4,3.2,3.6c0.1,0.1,0.2,0.3,0.4,0.4c1.1-0.1,3.4-0.2,5.1-0.3
			c0.3,0,0.6,0.1,0.7,0.3c0.3,0.2,0.4,0.5,0.5,0.9c0.1,3.2,0,6.4-0.1,9.6c2.8,0.3,5.7,0.3,8.5,0.3c0.4,0,0.7,0.2,0.9,0.5
			c0.3,0.2,0.4,0.5,0.4,0.9c0,1.2,0,2.5,0,3.7c0,1,0.1,1.9,0.1,2.9c0,0.5,0.1,1.1,0.1,1.6c0,0.3,0.1,0.7,0.1,1
			c2.7,0.1,5.5,0.1,8.2,0.2c0.2,0,0.4,0.1,0.6,0.2c0.5,0.1,0.9,0.6,0.9,1.1v0c0,0,0,0.1,0,0.1c0.2,2.4,0.2,4.7,0.2,7
			c0,0.7,0.1,1.4,0.1,2v0.1c2.8,0,5.5,0,8.3,0.1c0.6,0,1.1,0.5,1.1,1.1c0.2,3.2,0.5,6.3,0.7,9.5c0.3,0,0.5,0.1,0.7,0.1
			c1.5,0,3,0.1,4.5,0.2c0.9,0,1.7-0.1,2.6-0.2c0.6-0.1,1.1,0.6,1.1,1.2c0.1,3.1,2.4,4.3,2.6,7.4c0,0.1,0.3,2.5,0.3,2.9L536.4,71.4z"
			/>
	</g>
	<path class="st0" d="M473.6,1c-0.3,0.6-1.1,4.7-2.2,10.6v0c-3.7,20.3-10.3,62.2-10.3,62.9c0,0.5,0.1,1,0,1.5h0l-12.9-0.9l-11.7-0.8
		l-7.5,4.2l-6.1-3.3l-5.9-0.9l-6.5,4.8L409,78l-2.5-1.8c0.1-3.3,0.3-6.5,0.6-9.8c0.1-0.6,0.5-1.2,1.2-1.2c0,0,0,0,0,0
		c0,0,0.1,0,0.1,0l8.3,0.1c0-0.1-0.1-0.2-0.1-0.3l0.4-9.3c0-0.6,0.5-1.2,1.1-1.1c0.9,0.1,1.7,0.1,2.6,0.2c1.5-0.1,3-0.2,4.5-0.2
		c0.3,0,0.5-0.1,0.7-0.1c0.2-3.2,0.5-6.3,0.7-9.5c0.1-0.6,0.5-1.1,1.1-1.1c2.8,0,5.5-0.1,8.3-0.1v-0.1c0,0,0,0,0,0
		c0-0.7,0.1-1.4,0.2-2c-0.1-2.3,0-4.7,0.1-7c0,0,0-0.1,0-0.1v-0.1c0-0.5,0.4-1,0.9-1.1c0.2-0.1,0.3-0.2,0.6-0.2
		c2.7-0.1,5.5-0.1,8.2-0.2c0-0.3,0.1-0.7,0.1-1c0-0.5,0.1-1.1,0.1-1.6c0.1-1,0.1-1.9,0.1-2.8c0-1.2,0-2.5,0-3.7
		c0-0.4,0.2-0.7,0.4-0.9c0.2-0.3,0.5-0.5,0.9-0.5c2.8,0,5.7,0,8.5-0.3c-0.1-3.2-0.2-6.4-0.1-9.6c0-0.4,0.2-0.7,0.5-0.9
		c0.2-0.2,0.4-0.3,0.7-0.3c1.7,0.1,3.5,0,5.2-0.1c0.8-0.1,1.6-0.1,2.5-0.2c2.3-2.6,5.8-6.8,8.1-9.7C473.3,1.3,473.4,1.1,473.6,1z"/>
	<path class="st1" d="M537.9,64.6c0,0.1-0.1,0.6-0.2,0.8l6.4-0.4c0.4,0,0.7,0.3,0.7,0.7l0.5,11.9l-0.5,0.1l-14.6,3.9l-4.4,6.5
		l-7.3-1l-4.5-2.8L501.5,85l-17.9-5.7l-9.5-3.5l-9.3,12.8l-3.2,2.4l-4.5-3.3l-10.1-4v-1.2c0-0.6-0.2-1.6-0.2-2.2
		c0-1.1,0.4-1.9,0.4-3c0-1.2-0.2-1.2-0.2-2.4c0-1,0.1-9,0.1-10c0-0.2,4,0,4.9,0l-0.2-9.9c0-0.1,0.1-0.2,0.2-0.3c0,0,0-0.1,0-0.1
		c0-0.1,0.1-0.1,0.2-0.2c0.2-0.2,0.6-0.3,1-0.3c1,0,1.9,0,2.9,0c0.1-0.1,0.1-0.2,0.2-0.3c-0.4-3.9-0.4-6-0.3-9.7
		c0-0.1-0.1-0.1-0.1-0.2c0-0.3,0.5-0.5,1.1-0.5c0.8,0,1.6,0,2.4,0c0-4-0.1-6.4,0.1-10.4c0-0.4,0.9-0.6,1.5-0.4c0.6,0,1.1,0,1.7,0
		c0,0,0.1-6.5-0.1-9.9c0-0.3-0.1-0.2,0-0.3c0,0,0,0,0,0c0-0.3,0.5-0.5,1.1-0.5c0.9,0,1.9,0,2.8,0c0.1-1.7,0-3.7,0-4.8
		c0-1.4,0-3,0-5.1c0-0.2,0-0.3,0-0.5c0,0,0-0.1,0-0.1v0c0-0.3,0.2-0.5,0.5-0.5c0.2,0,0.4,0,0.6,0c0,0,0.1,0,0.1,0h0.1
		c0.3,0,0.5,0,0.7,0c0.1-0.1,0.1-0.1,0.2-0.2c0,0,0,0,0,0c1.6-3.1,2.7-5.6,4.3-8.7c0-0.1,0.1-0.1,0.1-0.2c0.2-0.2,0.4-0.5,0.6-0.7
		c0.1-0.1,0.2-0.2,0.3-0.4c0.2-0.3,0.5-0.4,0.8-0.5c0.4-0.2,0.7-0.1,1,0c0.1,0,0.2,0,0.4,0.2c4.8,4.1,7.4,6.3,12.9,10.9
		c2.1-0.1,7,0,8.5-0.1c0.3,0,0.3,0,0.5,0.2c0.3,0.2,0.4,0.5,0.5,0.9c0.1,3.2,0,6.4-0.1,9.6c2.8,0.3,5.7,0.3,8.5,0.3
		c0.4,0,0.7,0.2,0.9,0.5c0.3,0.2,0.4,0.5,0.4,0.9c0,1.2,0,2.5,0,3.7c0,0.9,0.1,1.9,0.1,2.8c0,0.5,0.1,1.1,0.1,1.6
		c0,0.3,0.1,0.7,0.1,1c2.7,0,5.5,0.1,8.2,0.2c0.2,0,0.4,0.1,0.6,0.2c0.5,0.1,0.9,0.6,0.9,1.1c0,0,0,0,0,0.1c0,0,0,0.1,0,0.1
		c0.2,2.3,0.2,4.7,0.2,7c0,0.7,0.1,1.4,0.1,2c0,0,0,0,0,0v0.1c2.8,0,5.5,0.1,8.3,0.1c0.6,0,1.1,0.5,1.1,1.1c0.2,3.2,0.5,6.3,0.7,9.5
		c0,0,0,0,0.1,0.1c1.7,0,3.4,0.1,5.1,0.2c0.9,0,1.7-0.1,2.6-0.2c0.6-0.1,1.1,0.6,1.1,1.2C537.7,58.4,537.8,61.5,537.9,64.6z"/>
	<path class="st5" d="M575.3,364.3H532c-0.1,0-0.2,0.1-0.4,0.1c-7.6,0-15.2,0-22.8-0.1c-24.6-0.2-49.2-0.5-73.8-1
		c-0.1,0.1-0.3,0.1-0.5,0.1c-4.6,0.2-9.3,0.3-13.9,0.4c-15.3,0.3-17.5,0.1-32.8-0.4c-0.2,0-0.4,0-0.6,0c-0.4,0-0.9-0.1-1.3-0.1
		c-0.3,0-0.6,0-0.8,0c-0.1,0-0.3,0-0.3-0.1l-0.9-0.1c-0.3,0-0.5-0.1-0.6-0.2c0,0,0,0,0,0c-0.1-0.1-0.1-0.1-0.2-0.2
		c-0.1-0.1-0.1-0.2-0.2-0.2c-3,0-6-0.1-9-0.1c-1,0-2,0.1-3,0.1c-1.7,0-3.3,0.1-5,0.1c-4.4,0-8.9,0-13.3-0.1c-1.1,0-2.1,0.1-3.2,0.1
		c-5.9,0.2-11.9,0.4-17.8-0.1c-4,0.1-8,0.1-12,0c-0.1,0-0.1,0-0.2,0c-3.7,0-7.4-0.1-11.1-0.1c-11.8,0-23.7,0.1-35.5,0.1
		c-0.2,0-0.4,0-0.5,0c-4.2,0-8.3,0.1-12.5,0.1c0,0,0,0,0,0c-5.5,0.1-10.9,0.1-16.4,0c-17,0.1-33.9,0.1-50.9,0.2c0,0,0,0,0,0
		c-0.1,0-0.2,0.1-0.4,0.1c-1.2,0-3,0.4-3.5-1.2c-0.2-0.6,0-1.2,0-1.9c0.1-0.6,0.1-1.3,0.2-1.9c0.2-2.7,0.3-8.6,0.2-11.2
		c0-0.7,0.4-1.1,0.9-1.2c0.3-0.1,0.5-0.2,0.9-0.1c1.5,0.3,3,0.3,4.5,0.2c1.1-0.1,2.2-0.1,3.2-0.1c0.2-0.2,0.3-0.4,0.5-0.6
		c0.1-3.6,0.3-7.1,0.6-10.7c0.1-0.7,0.5-1.3,1.2-1.3c0,0,0,0,0.1,0c0,0,0.1,0,0.2,0l7.9,0.1c0,0,0.1-0.1,0.1-0.2
		c0.3-0.3,0.6-0.7,0.9-1c0.1-3.3,0.3-6.7,0.4-10c0-0.7,0.5-1.4,1.2-1.3c0.9,0.1,1.9,0.2,2.8,0.2c1.6-0.1,3.2-0.2,4.8-0.3
		c0.2,0,0.4,0,0.5-0.1c0.1-0.1,0.2-0.2,0.3-0.3c0.3-3.6,0.5-7.1,0.7-10.7c0-0.7,0.5-1.3,1.2-1.3c2.9,0,5.8-0.1,8.7-0.1
		c0.1-0.1,0.2-0.2,0.3-0.3c0-0.7,0.1-1.4,0.1-2.2c-0.1-2.7,0-5.4,0.2-8.2c0,0,0-0.1,0-0.1v-0.1c0-0.6,0.4-1.2,1-1.3
		c0.2-0.1,0.4-0.2,0.6-0.2c2.9-0.1,5.8-0.1,8.8-0.2c0-0.1,0.1-0.1,0.1-0.2c0-0.3,0.1-0.7,0.1-1c0-0.6,0.1-1.3,0.1-1.9
		c0.1-1.1,0.1-2.2,0.1-3.3c0-1.4,0-2.8,0-4.3c0-0.5,0.2-0.8,0.5-1c0.2-0.3,0.6-0.5,1-0.5c2.8,0,5.6,0,8.4-0.3
		c0.3-0.3,0.5-0.6,0.8-0.9c-0.1-3.4-0.1-6.8-0.1-10.2c0-0.5,0.2-0.8,0.5-1c0.2-0.2,0.5-0.3,0.8-0.3c1.9,0.1,3.8,0,5.7-0.1
		c1.2-0.1,2.4-0.2,3.6-0.3c0.3-0.3,0.6-0.6,0.8-0.9c0-3.3,0-6.6,0.2-9.9c0-0.8,0.6-1.2,1.2-1.3c0,0,0.1,0,0.1,0c2,0,4-0.1,6-0.1
		l2.6,0c-0.1-3.7,0-7.3,0.1-11c0-0.6,0.4-1,0.8-1.1c0.2-0.1,0.4-0.2,0.6-0.2c2.9,0.2,5.9,0.3,8.8,0.2c0.1-0.1,0.3-0.3,0.4-0.4
		c0-3.6,0.1-7.3,0.2-10.9c0-0.7,0.5-1.1,1-1.2c0.2-0.1,0.3-0.1,0.5-0.1c2.9,0.1,5.8,0.1,8.7,0.1c0,0,0.1-0.1,0.1-0.1
		c0-0.4,0.1-0.9,0.1-1.3c0.1-0.7,0.1-1.3,0.2-1.9c0.2-2.7,0.3-5.3,0.2-8c0-0.7,0.4-1.1,0.9-1.2c0.2-0.1,0.5-0.2,0.9-0.1
		c1.5,0.3,3,0.3,4.6,0.2c1.3-0.1,2.5-0.2,3.7,0c0.1-3.8,0.3-7.6,0.6-11.3c0.1-0.7,0.5-1.3,1.2-1.3c0,0,0,0,0,0c0.1,0,0.1,0,0.2,0
		l8.9,0.2c0-0.1-0.1-0.3-0.1-0.4c0.1-3.6,0.3-7.2,0.4-10.8c0-0.6,0.5-1.4,1.2-1.3c0.9,0.1,1.9,0.2,2.8,0.2c1.6-0.1,3.2-0.2,4.9-0.2
		c0.3,0,0.5-0.1,0.8-0.1c0.3-3.7,0.5-7.3,0.8-11c0-0.7,0.5-1.3,1.2-1.3c3,0,6-0.1,9-0.1c0,0,0-0.1,0-0.1c0,0,0,0,0,0
		c0-0.8,0.1-1.6,0.2-2.4c-0.1-2.7,0-5.4,0.2-8.2c0,0,0-0.1,0-0.1v-0.1c0-0.6,0.4-1.2,1-1.3c0.2-0.1,0.4-0.2,0.6-0.2
		c3-0.1,5.9-0.1,8.9-0.2c0-0.4,0.1-0.8,0.1-1.1c0-0.6,0.1-1.2,0.1-1.9c0.1-1.1,0.1-2.2,0.1-3.3c0-1.4,0-2.8,0-4.3
		c0-0.5,0.2-0.8,0.5-1c0.2-0.3,0.6-0.5,1-0.5c3.1,0,6.1,0,9.2-0.3c-0.1-3.7-0.2-7.4-0.1-11.1c0-0.5,0.2-0.8,0.5-1
		c0.2-0.2,0.5-0.3,0.8-0.3c1.9,0.1,3.8,0,5.7-0.1c1.5-0.1,3-0.3,4.5-0.3c0-3-16.3-7.1-16.3-7.1c-0.4-0.4,0.2-1.2,0.9-2
		c1.5,0,4.1,0,4.1,0c2.2,0,4.3-0.1,6.5-0.1l2.8,0l21.3,0.4l12.2,5.3l8.8-5.8c0,0,18.9,0.9,20.8,0.5c0.1-0.1,0.2-0.1,0.3-0.1
		c0.2-0.1,0.4-0.2,0.6-0.2c1,0,1.8,0,2.2,0h0.2c0.9,0,1.8,0,2.6,0c-0.3,0-0.5,0.1-0.6,0.2c-0.1,0-0.2,0.1-0.3,0.1l9.4,1.9l12.3,1.4
		l1.2,0.9l12.1,9l24.7-5.7l22.1,1.9l7.5-1.9h11.4l6.5-6.6l24.5-2.9l3.3,5.8h7.5l11.5-3.7l2.8,0c2.2,0,4.3,0.1,6.5,0.1
		c0.1,0,0.1,0,0.2,0c0.2,0,0.4,0.1,0.6,0.2c-4.3,3.1-22.8,5.8-22.8,8.9c1.5,0,3,0.2,4.5,0.3c1.9,0.2,3.8,0.2,5.7,0.1
		c0.3,0,0.6,0.1,0.8,0.3c0.3,0.2,0.5,0.5,0.5,1c0.1,3.7,0,7.4-0.1,11.1c3.1,0.3,6.1,0.3,9.2,0.3c0.4,0,0.7,0.2,1,0.5
		c0.3,0.2,0.5,0.5,0.5,1c0,1.4,0,2.8,0,4.3c0,1.1,0.1,2.2,0.1,3.3c0,0.6,0.1,1.2,0.1,1.9c0,0.4,0.1,0.8,0.1,1.1
		c3,0.1,5.9,0.1,8.9,0.2c0.2,0,0.4,0.1,0.6,0.2c0.5,0.1,1,0.7,1,1.3v0.1c0,0,0,0.1,0,0.1c0.2,2.7,0.2,5.4,0.2,8.2
		c0.1,0.8,0.1,1.6,0.2,2.4c0,0,0,0,0,0c0,0,0,0.1,0,0.1c3,0,6,0.1,9,0.1c0.7,0,1.2,0.6,1.2,1.3c0.3,3.7,0.5,7.3,0.8,11
		c0.3,0,0.5,0.1,0.8,0.1c1.6,0,3.2,0.1,4.8,0.2c0.9,0,1.9-0.1,2.8-0.2c0.7-0.1,1.2,0.7,1.2,1.3c0.1,3.6,0.3,7.2,0.4,10.8
		c0,0.1,0,0.3-0.1,0.4l8.9-0.2c0.1,0,0.1,0,0.2,0c0,0,0,0,0,0c0.7,0,1.2,0.6,1.2,1.3c0.3,3.8,0.5,7.5,0.6,11.3c1.2-0.1,2.5,0,3.7,0
		c1.5,0.1,3,0.1,4.6-0.2c0.3-0.1,0.6,0,0.9,0.1c0.5,0.1,0.9,0.5,0.9,1.2c0,2.7,0,5.3,0.2,8c0.1,0.6,0.1,1.3,0.2,1.9
		c0,0.4,0.1,0.8,0.1,1.2c3.3,1.9,3.5,5.2,3.4,9.4c0,1,0,2.1,0,3.1c0.2,1,0.5,2,0.6,3c0.6,3.4,0.9,6.8,1,10.2c0,0.7,0.1,1.5,0.1,2.2
		c18.2,22.6,30.6,37.7,32.3,39.3c-1.3-0.2-8.1,0.5-18.9,1.9l38.7,53.2H577.4c-0.4,0.2-0.9,0.4-1.4,0.6c0.2,0.8,0.1,1.5-0.3,2.2
		C578.9,358.9,578.7,364.3,575.3,364.3z"/>
	<path class="st0" d="M437.1,136.6c-0.1,4-0.1,8.1,0.2,12.2h-1.3c-0.7,0-1.4-0.1-2.1-0.1c-0.6,0-1.1,0.2-1.1,0.5c0,0,0,0.1,0.1,0.1
		c0,4-0.2,7.9-0.4,11.9h-1.7c0,0-0.1,0-0.1,0c0,0,0,0,0,0h-1c0,0,0,0,0,0c-0.5,0-1.1,0.1-1.1,0.5c-0.1,3.9-0.2,7.9-0.3,11.8
		c0,0-0.1,0-0.2,0c-0.5,0-0.9,0-1.4,0c-0.2-0.1-0.5-0.1-0.7,0c-0.2,0-0.3,0-0.4,0.1c-0.4,0-0.7,0.2-0.7,0.4c0.1,4,0,8.1-0.3,12.1
		h-2.5c-0.6-0.1-1.5,0-1.5,0.4c0.1,4,0.2,8,0.1,12c-1,0-1.9,0-2.9,0.1c-0.3,0-0.5,0.1-0.8,0.2c-0.2,0.1-0.3,0.2-0.3,0.3
		c0,0,0,0.1,0,0.1c0,3.9,0,7.9-0.1,11.8c-0.6,0-1.3,0-1.9,0c-0.6-0.1-1.3,0.1-1.3,0.5c0,0.1,0,0.1,0,0.2c-0.1,0.1-0.1,0.2-0.1,0.3
		c0.1,0.8,0.1,1.6,0.1,2.3c0,3.1,0,6.2,0.1,9.2c-0.9,0-1.7,0-2.6,0c-0.6,0-1.1,0.2-1.1,0.5c0,0,0,0,0,0c0,0,0,0.1,0,0.1
		c-0.1,4-0.1,7.9-0.2,11.9c-0.6,0-1.3,0-2,0c-0.6,0-1.1,0.2-1.1,0.5c0,3.9-0.1,7.8-0.1,11.8c-0.5,0-1.1,0-1.6,0
		c-0.2,0-0.4,0-0.6,0.1c-0.4,0.1-0.7,0.2-0.7,0.5c-0.2,4-0.1,8,0.1,12c-0.8,0-1.7,0-2.5,0c-0.6,0-1.1,0.2-1.1,0.5c0,0,0,0,0,0.1
		c-0.1,0.1-0.2,0.2-0.2,0.3c-0.1,3.9-0.2,7.9-0.4,11.8c0,0,0,0,0,0c-0.7,0-1.3,0-2,0c-1.4,0-2-0.1-1.9,0.3v0.1
		c-0.1,0.1-0.1,0.2,0,0.3c0,0,0,0,0,0c0.1,2.2,0.1,4.4,0.2,6.6c0,1.2,0.1,2.3,0.1,3.5c0,0.5,0,1.1,0.1,1.6c-0.8,0-1.6,0-2.4,0
		c-0.6-0.2-1.6,0-1.6,0.4c0,4-0.1,8.1-0.2,12.1c-0.4,0-0.8,0-1.2,0c-0.3-0.1-0.8-0.1-1.2-0.1c-0.6,0-1.2,0.1-1.2,0.5
		c0,1.4,0.1,2.7,0.1,4.1c0,0.7-0.1,1.4-0.1,2.1c0,1-0.1,2-0.1,3c0,0.5,0,1,0,1.5c0,0.1,0.1,1,0.1,1.4c-0.7,0-1.5,0-2.2,0
		c-0.1,0-0.1,0-0.2,0c0,0-0.1,0-0.1,0c-0.6-0.1-1.3,0.1-1.3,0.5c0,4-0.1,8-0.1,11.9c-0.9,0-1.9,0-2.8,0c-0.6-0.1-1.4,0-1.4,0.4
		c0.1,4,0.2,8.1,0.3,12.1h-2.8c-0.3-0.1-0.6-0.1-0.8,0c-0.5,0-1.1,0.2-1.1,0.5c-0.1,4,0,8,0.3,12c0,0,0,0,0,0
		c-0.8,0-1.5-0.1-2.3-0.1h0c-0.1,0-0.2,0-0.3,0c-0.1,0-0.1,0-0.2,0c-0.6-0.1-1.4,0.1-1.4,0.5c-0.6,3.3-0.8,6.6-0.8,9.9
		c0,1.2,0,2.4,0,3.6v1.2c0,0.3,0,0.7,0,1c0,0.3,0,0.5,0,0.8l0,0c-1.7,0-3.3,0-5,0c-1.6,0-3.1,0-4.7-0.1c-7.6,0.3-20.3,0.3-27.9,0.1
		c-1.1,0-2.3,0.1-3.4,0.1c-6.3,0.2-12.7,0.4-19-0.1c-4.3,0.1-8.6,0.1-12.8,0c-0.1,0-0.1,0-0.2,0c-4,0-7.9-0.1-11.9-0.1
		c-12.7,0-25.3,0.1-38,0.1c-0.2,0-0.4,0-0.6,0c-4.5,0-8.9,0.1-13.4,0.1c0,0,0,0-0.1,0c-5.8,0.1-11.7,0.1-17.6,0
		c-18.2,0.1-36.3,0.1-54.5,0.2c0,0,0,0,0,0c-0.1,0-0.2,0.1-0.4,0.1c-1.3,0-3.3,0.4-3.8-1.2c-0.2-0.6-0.1-1.2,0-1.9
		c0.1-0.6,0.1-1.3,0.2-1.9c0.2-2.7,0.3-8.6,0.3-11.2c0-0.7,0.4-1.1,0.9-1.2c0.3-0.1,0.6-0.2,0.9-0.1c1.6,0.3,3.2,0.3,4.9,0.2
		c1.2-0.1,2.3-0.1,3.5-0.1c0.2-0.2,0.4-0.4,0.6-0.6c0.1-3.6,0.3-7.1,0.7-10.7c0.1-0.7,0.5-1.3,1.3-1.3c0,0,0,0,0.1,0
		c0.1,0,0.1,0,0.2,0l8.5,0.1c0,0,0.1-0.1,0.2-0.2c0.3-0.3,0.6-0.7,0.9-1c0.1-3.3,0.3-6.7,0.4-10c0-0.7,0.6-1.4,1.3-1.3
		c1,0.1,2,0.2,3,0.2c1.7-0.1,3.5-0.2,5.2-0.3c0.2,0,0.4,0,0.6-0.1c0.1-0.1,0.2-0.2,0.3-0.3c0.3-3.6,0.5-7.1,0.8-10.7
		c0.1-0.7,0.6-1.3,1.3-1.3c3.1,0,6.2-0.1,9.3-0.1c0.1-0.1,0.2-0.2,0.3-0.3c0-0.7,0.1-1.4,0.1-2.2c-0.1-2.7,0-5.4,0.2-8.2
		c0,0,0-0.1,0-0.1v-0.1c0-0.6,0.5-1.2,1.1-1.3c0.2-0.1,0.4-0.2,0.6-0.2c3.1-0.1,6.3-0.1,9.4-0.2c0-0.1,0.1-0.1,0.1-0.2
		c0-0.3,0.1-0.7,0.1-1c0-0.6,0.1-1.3,0.1-1.9c0.1-1.1,0.1-2.2,0.1-3.3c0-1.4,0-2.8,0-4.3c0-0.5,0.2-0.8,0.5-1c0.2-0.3,0.6-0.5,1-0.5
		c3,0,6,0,9-0.3c0.3-0.3,0.6-0.6,0.8-0.9c-0.1-3.4-0.2-6.8-0.1-10.2c0-0.5,0.2-0.8,0.5-1c0.2-0.2,0.5-0.3,0.9-0.3c2,0.1,4,0,6-0.1
		c1.3-0.1,2.6-0.2,3.9-0.3l0.9-0.9c0-3.3,0-6.6,0.2-9.9c0-0.8,0.7-1.2,1.3-1.3c0,0,0.1,0,0.2,0c2.2,0,4.3-0.1,6.5-0.1l2.8,0
		c-0.1-3.7,0-7.3,0.2-11c0-0.6,0.4-1,0.8-1.1c0.2-0.1,0.4-0.2,0.7-0.2c3.1,0.2,6.3,0.3,9.4,0.2c0.1-0.1,0.3-0.3,0.4-0.4
		c0-3.6,0.1-7.3,0.2-10.9c0-0.7,0.5-1.1,1-1.2c0.2-0.1,0.3-0.1,0.5-0.1c3.1,0.1,6.2,0.1,9.4,0.1l0.1-0.1c0-0.4,0-0.9,0.1-1.3
		c0.1-0.7,0.1-1.3,0.2-1.9c0.2-2.7,0.3-5.3,0.3-8c0-0.7,0.4-1.1,0.9-1.2c0.3-0.1,0.6-0.2,0.9-0.1c1.6,0.3,3.2,0.3,4.9,0.2
		c1.4-0.1,2.7-0.2,4,0c0.1-3.8,0.3-7.6,0.7-11.3c0.1-0.7,0.5-1.3,1.3-1.3c0,0,0,0,0.1,0c0.1,0,0.1,0,0.2,0l9.6,0.2
		c0-0.1-0.1-0.3-0.1-0.4c0.1-3.6,0.3-7.2,0.4-10.8c0-0.6,0.6-1.4,1.3-1.3c1,0.1,2,0.2,3,0.2c1.7-0.1,3.5-0.2,5.2-0.2
		c0.3,0,0.6-0.1,0.9-0.1c0.3-3.7,0.6-7.3,0.8-11c0-0.7,0.6-1.3,1.3-1.3c3.2,0,6.4-0.1,9.6-0.1c0,0,0-0.1,0-0.1c0,0,0,0,0,0
		c0-0.8,0.1-1.6,0.2-2.4c-0.1-2.7,0-5.4,0.2-8.2c0,0,0-0.1,0-0.1v-0.1c0-0.6,0.5-1.2,1.1-1.3c0.2-0.1,0.4-0.2,0.6-0.2
		c3.2-0.1,6.3-0.1,9.5-0.2c0-0.4,0.1-0.8,0.1-1.1c0-0.6,0.1-1.2,0.1-1.9c0.1-1.1,0.1-2.2,0.1-3.3c0-1.4,0-2.8,0-4.3
		c0-0.5,0.2-0.8,0.5-1c0.2-0.3,0.6-0.5,1-0.5c3.3,0,6.6,0,9.8-0.3c-0.1-3.7-0.2-7.4-0.1-11.1c0-0.5,0.2-0.8,0.5-1
		c0.2-0.2,0.5-0.3,0.8-0.3c2,0.1,4.1,0,6.1-0.1c1.6-0.1,3.2-0.3,4.8-0.3c0-3.6,0-7.2,0.2-10.8c0-0.8,0.7-1.2,1.3-1.3
		c0,0,0.5,0,1.1,0c1.5,0,4.1,0,4.1,0c2.2,0,4.3-0.1,6.5-0.1l2.8,0l21.3,0.4l12.2,5.3l8.8-5.8c0,0,18.9,0.9,20.8,0.5c0,0,0,0,0.1,0
		c0.5-0.2,1.8-0.3,3.2-0.3h0.1c0.9,0,1.8,0,2.6,0c-0.3,0-0.5,0.1-0.6,0.2c-0.1,0-0.2,0.1-0.3,0.1
		C437.1,136.5,437.1,136.5,437.1,136.6z"/>
	<path class="st1" d="M580.2,361l-22.1-2.8c7.3-6.5-18.2,0.6-18.4,0.6c-8.1,0-16.9,8.5-25,8.5c-26.4-0.2-52.7-0.5-79.1-1
		c-0.1,0.1-0.3,0.1-0.5,0.1c-5,0.2-9.9,0.3-14.9,0.4c-16.4,0.3-32.7,0.1-49.1-0.4c-0.2,0-0.4,0-0.7,0c-0.5,0-1-0.1-1.4-0.1
		c-0.3,0-0.6,0-0.9,0c-0.1,0-0.3,0-0.4-0.1l-1-0.1c-0.3,0-0.5-0.1-0.6-0.2c0,0,0,0,0,0c-0.1-0.1-0.1-0.1-0.2-0.2
		c-0.1-0.1-0.2-0.2-0.2-0.2l0,0v0c0-0.3,0-0.5,0-0.7c0-0.4,0-0.7,0-1v-1.1c0-1.2,0-2.5,0-3.7c0.1-3.3,0.2-7,0.8-10.3
		c0.1-0.4,0.9-0.5,1.4-0.5c0.1,0,0.6-0.1,0.6-0.1h0c0.8,0,1.5,0,2.3,0.1c0,0,0,0,0,0c-0.2-4-0.3-8-0.2-12c0-0.3,0.5-0.5,1.1-0.5
		c0.3,0,0.6,0,0.8,0h2.8c-0.1-4-0.1-8-0.3-12.1c0-0.4,0.8-0.5,1.4-0.4c0.9,0,1.9,0,2.8,0c0-4,0-8,0.1-12c0-0.4,0.7-0.5,1.3-0.5
		c0,0,0.1,0,0.1,0c0.1,0,0.1,0,0.2,0c0.7,0,1.5,0,2.2,0c0-0.4-0.1-1.3-0.1-1.4c0-0.5,0-0.6,0-1.1c0-1,0.1-2,0.1-3
		c0-0.7,0.1-1.4,0.1-2.1c0-1.4-0.1-3.2-0.1-4.6c0-0.3,0.6-0.5,1.2-0.5c0.4-0.1,0.8-0.1,1.2,0.1c0.4,0,0.8,0,1.2,0
		c0.1-4,0.1-7.6,0.2-11.6c0-0.5,1-0.6,1.6-0.4c0.8,0,1.6,0,2.4,0c0-0.5,0-1.1-0.1-1.6c0-1.2,0.3-2.8,0.2-3.9
		c-0.1-2.2-0.1-4.4-0.2-6.6c0,0,0,0,0,0c-0.1-0.1,0-0.2,0-0.3v-0.1c-0.1-0.3,0.5-0.3,1.9-0.3c0.7,0,1.3,0,2,0c0,0,0,0,0,0
		c0.1-3.9,0.3-7.9,0.4-11.8c0-0.1,0.1-0.2,0.2-0.3c0,0,0-0.1,0-0.1c0-0.3,0.5-0.5,1.1-0.5c0.8,0,1.7,0,2.5,0
		c-0.2-4-0.2-7.6-0.1-11.6c0-0.3,0.3-0.4,0.7-0.5c0.2,0,0.3-0.1,0.6-0.1c0.5,0,1.1,0,1.6,0c0-3.9,0.1-8.2,0.1-12.1
		c0-0.3,0.5-0.5,1.1-0.5c0.7,0,1.3,0,2,0c0.1-4-0.3-8-0.2-12c0,0,0-0.1,0-0.1c0,0,0,0,0,0c0-0.3,0.5-0.5,1.1-0.5c0.8,0,1.7,0,2.6,0
		c-0.1-3.1-0.1-6.2-0.1-9.2c-0.1-0.8-0.1-1.5-0.1-2.3c0-0.1,0.1-0.2,0.1-0.3c0-0.1,0-0.1,0-0.2c0-0.4,0.7-0.5,1.3-0.5
		c0.6,0,1.3,0,1.9,0c0-3.9,0-7.9,0.1-11.8c0,0,0-0.1,0-0.1c0-0.1,0.1-0.3,0.3-0.3c0.2-0.1,0.5-0.1,0.8-0.2c1,0,1.9-0.1,2.9-0.1
		c0-4,0-8-0.1-12c0-0.4,0.8-0.6,1.5-0.4h2.5c0.3-4,0.4-8.1,0.3-12.1c0-0.2,0.3-0.4,0.7-0.4c0.1-0.1,0.3-0.1,0.4-0.1
		c0.3,0,0.5,0,0.7,0c0.4,0,0.9-0.1,1.4,0c0.1,0,0.1,0,0.2,0c0.1-3.9,0.3-8.2,0.5-12.1c0-0.3,0.6-0.5,1.1-0.5c0,0,0,0,0,0h1
		c0,0,0,0,0,0c0,0,0.1,0,0.1,0h1.7c0.3-4,0.3-8,0.3-12c0,0,0.4-0.6,1-0.6c0.7,0,1.4,0,2.1,0.1h1.3c-0.2-4.1-0.2-7.2-0.1-11.3
		c0-0.1,0-0.2,0.1-0.2c0.1-0.1,0.2-0.1,0.3-0.1c0.2-0.1,0.4-0.2,0.6-0.2c1,0,1.8,0,2.2,0h0.2c0.1,0,0.1,0,0.2,0l1.5,0.3l9.4,1.9
		l12.3,1.4l1.2,0.9l12.1,9l24.7-5.7l22.1,1.9l7.5-1.9h11.4l6.5-6.6l24.5-2.9l3.3,5.8h7.5l11.5-3.7l2.8,0c2.2,0,4.3,0.1,6.5,0.1
		c0.1,0,0.1,0,0.2,0c0.2,0,0.4,0.1,0.6,0.2c0.4,0.2,0.7,0.6,0.7,1.1c0.2,3.6,0.3,7.2,0.2,10.8c1.6,0,3.2,0.2,4.8,0.3
		c2,0.2,4,0.2,6.1,0.1c0.4,0,0.6,0.1,0.9,0.3c0.3,0.2,0.5,0.5,0.5,1c0.1,3.7,0,7.4-0.1,11.1c3.3,0.3,6.6,0.3,9.8,0.3
		c0.4,0,0.8,0.2,1,0.5c0.3,0.2,0.5,0.5,0.5,1c0,1.4,0,2.8,0,4.3c0,1.1,0.1,2.2,0.1,3.3c0,0.6,0.1,1.2,0.1,1.9c0,0.4,0.1,0.8,0.1,1.1
		c3.2,0.1,6.3,0.1,9.5,0.2c0.3,0,0.5,0.1,0.7,0.2c0.6,0.1,1.1,0.7,1.1,1.3v0.1c0,0,0,0.1,0,0.1c0.2,2.7,0.3,5.4,0.2,8.2
		c0,0.8,0.1,1.6,0.2,2.4c0,0,0,0,0,0c0,0,0,0.1,0,0.1c3.2,0,6.4,0.1,9.6,0.1c0.8,0,1.3,0.6,1.3,1.3c0.3,3.7,0.5,7.3,0.8,11
		c0.3,0,0.6,0.1,0.9,0.1c1.7,0,3.5,0.1,5.2,0.2c1,0,2-0.1,3-0.2c0.7-0.1,1.3,0.7,1.3,1.3c0.1,3.6,0.3,7.2,0.4,10.8v0
		c0,0.1,0,0.2-0.1,0.4l9.6-0.2c0.1,0,0.1,0,0.2,0c0,0,0,0,0,0c0.8,0,1.3,0.6,1.3,1.3c0.4,3.8,0.6,7.5,0.7,11.3c1.3-0.1,2.7,0,4,0
		c1.6,0.1,3.3,0.1,4.9-0.2c0.3-0.1,0.7,0,0.9,0.1c0.5,0.1,0.9,0.5,0.9,1.2c0,2.7,0,5.3,0.3,8c0,0.6,0.1,1.3,0.2,1.9
		c0,0.4,0.1,0.8,0.1,1.2c3.6,1.9,38.2,65.5,40.1,67.2c-1.2,0,35.3,55.3,35.3,55.3l-157.4-0.2c-0.5,0.2-1,0.4-1.5,0.6
		c0.2,0.8,0.1,1.5-0.3,2.2C602.6,361.9,583.8,361,580.2,361z"/>
</g>
<g id="clipping_mask">
	<g>
		<defs>
			<path id="SVGID_3_" d="M599.3,361.3c0.4-0.6,0.5-1.4,0.3-2.1c0.5-0.2,1-0.4,1.5-0.6l157.4,0.2c0,0-36.6-55.6-35.3-55.3
				c-1.8-1.5-36.5-65.3-40.1-67.2c0-0.4-0.1-0.8-0.1-1.2c-0.1-0.6-0.1-1.3-0.2-1.9c-0.2-2.6-0.3-5.3-0.3-8c0-0.7-0.4-1.1-0.9-1.2
				c-0.3-0.1-0.6-0.2-0.9-0.1c-1.6,0.3-3.2,0.3-4.9,0.2c-1.3-0.1-2.7-0.2-4,0c-0.1-3.8-0.3-7.6-0.7-11.3c-0.1-0.7-0.6-1.3-1.3-1.3
				c0,0,0,0-0.1,0c-0.1,0-0.1,0-0.2,0l-9.6,0.2c0,0,0,0,0,0c0-0.1,0.1-0.3,0.1-0.4c-0.1-3.6-0.3-7.2-0.4-10.8c0-0.7-0.6-1.4-1.3-1.3
				c-1,0.1-2,0.2-3,0.2c-1.7-0.1-3.5-0.2-5.2-0.2c-0.3,0-0.6-0.1-0.9-0.1c-0.3-3.7-0.5-7.3-0.8-11c-0.1-0.7-0.6-1.3-1.3-1.3
				c-3.2,0-6.4-0.1-9.6-0.1c0,0,0-0.1,0-0.1c0,0,0,0,0,0c0-0.8-0.1-1.6-0.2-2.4c0.1-2.7,0-5.4-0.2-8.2c0,0,0-0.1,0-0.1
				c0,0,0,0,0-0.1c0-0.6-0.5-1.2-1.1-1.3c-0.2-0.1-0.4-0.2-0.6-0.2c-3.2-0.1-6.3-0.1-9.5-0.2c0-0.4-0.1-0.8-0.1-1.1
				c0-0.6-0.1-1.2-0.1-1.9c-0.1-1.1-0.1-2.2-0.1-3.3c0-1.4,0-2.8,0-4.3c0-0.5-0.2-0.8-0.5-1c-0.2-0.3-0.6-0.5-1-0.5
				c-3.3,0-6.6,0-9.8-0.3c0.1-3.7,0.2-7.4,0.1-11.1c0-0.5-0.2-0.8-0.5-1c-0.2-0.2-0.5-0.3-0.8-0.3c-2,0.1-4,0-6.1-0.1
				c-1.6-0.1-3.2-0.3-4.8-0.3c0-3.6,0-7.2-0.2-10.8c0-0.8-0.7-1.2-1.3-1.3c-0.1,0-0.1,0-0.2,0c-2.2,0-4.3-0.1-6.5-0.1l-2.8-0.1
				l-11.5,3.7h-1.5l11.4-3.7c0.1-3.7-10.3-11.1-11.3-12.3c-0.6-0.7-34.5-46.1-36.7-48.7c-0.6-0.8-3.8-1.4-4.8-1.3
				c-1.7-0.1-1-0.4-2.7-0.5c-0.2,0-0.4-0.1-0.6-0.1l3-2.2l1.5-6.4c0-0.1,0.1-0.2,0.1-0.3c-0.1-3.1-0.3-6.2-0.4-9.3
				c0-0.6-0.3,0.8-0.9,0.8c-0.9,0.1-2,0.3-2.8,0.3c-1.5-0.1-2.6-0.4-4.1-0.4c-0.2,0-0.9-0.2-1.1-0.2c-0.2-3.2-0.5-8.1-0.7-11.2
				c0-0.6-0.3-0.3-1-0.3c-2.8,0-5.8,0.2-8.6,0.2c0,0,0.1-1.2,0.1-1.2c0,0,0,0,0,0c0-0.7-0.1-1.4-0.1-2c0.1-2.3,0-4.7-0.2-7
				c0,0,0-0.1,0-0.1c0,0,0,0,0-0.1c0-0.5-0.1-0.1-0.6-0.2c-0.2-0.1-0.4-0.2-0.6-0.2c-2.7-0.1-5.8,0-8.5-0.1c0-0.3,0-1.6-0.1-1.9
				c0-0.5-0.1-1.1-0.1-1.6c-0.1-0.9-0.1-1.9-0.1-2.9c0-1.2,0-2.5,0-3.7c0-0.4-0.2-0.7-0.4-0.9c-0.2-0.3-0.5-0.5-0.9-0.5
				c-2.8,0-5.7,0.5-8.5,0.2c0.1-3.2,0.2-6.8,0.1-10c0-0.4-0.2-0.7-0.5-0.9c-0.2-0.2-0.4-0.3-0.7-0.3c-1.5,0-6.2,0.1-8.2,0.2
				c-5.1-4-7.5-7.1-12.9-10.9c-0.1-0.1-0.3-0.2-0.4-0.1c-0.3-0.2-0.7-0.2-1,0c-0.3,0-0.6,0.2-0.8,0.5c-0.2,0.3-0.5,0.6-0.7,0.9
				c-2.3,2.9-5.8,7.2-8.1,9.7c-0.8,0-1.6,0.1-2.4,0.2c-1.7,0.1-3.5,0.2-5.2,0.1c-0.3,0-0.5,0.1-0.7,0.3c-0.3,0.2-0.4,0.5-0.5,0.9
				c-0.1,3.2,0,6.4,0.1,9.6c-2.8,0.3-5.7,0.3-8.5,0.3c-0.4,0-0.7,0.2-0.9,0.5c-0.3,0.2-0.4,0.5-0.4,0.9c0,1.2,0,2.5,0,3.7
				c0,1-0.1,1.9-0.1,2.9c0,0.5-0.1,1.1-0.1,1.6c0,0.3-0.1,0.6-0.1,1c-2.7,0.1-5.5,0.1-8.2,0.2c-0.2,0-0.4,0.1-0.6,0.2
				c-0.5,0.1-0.9,0.6-0.9,1.1c0,0,0,0,0,0.1c0,0,0,0.1,0,0.1c-0.2,2.3-0.2,4.7-0.2,7c0,0.7-0.1,1.4-0.1,2c0,0,0,0,0,0
				c0,0,0,0.1,0,0.1c-2.8,0-5.5,0.1-8.3,0.1c-0.7,0-1.1,0.5-1.1,1.1c-0.2,3.2-0.5,6.3-0.7,9.5c-0.2,0-0.5,0.1-0.7,0.1
				c-1.5,0-3,0.1-4.5,0.2c-0.9,0-1.7-0.1-2.6-0.2c-0.6-0.1-1.1,0.6-1.1,1.1l-0.4,9.3c0,0.1,0,0.2,0.1,0.3c0,0,0,0,0,0l-8.3-0.2
				c-0.1,0-0.1,0-0.1,0c0,0,0,0,0,0c-0.7,0-1.1,0.5-1.1,1.1c-0.3,3.2-0.5,6.5-0.6,9.8L409,78l-0.5,3.8c0,0.1-2,3.7-2,3.7
				c0,0-38.2,41.6-38.4,43.3c-0.7,5-4.3,6.5-4.3,7.3l2.7,0l-0.2,0c-2.2,0-4.3,0.1-6.5,0.1c-0.1,0-5.1,0-5.2,0
				c-0.6,0-1.2,0.5-1.3,1.3c-0.2,3.6-0.3,7.2-0.2,10.8c-1.6,0-3.2,0.2-4.8,0.3c-2,0.2-4,0.2-6.1,0.1c-0.4,0-0.6,0.1-0.8,0.3
				c-0.3,0.2-0.5,0.5-0.5,1c-0.1,3.7,0,7.4,0.1,11.1c-3.3,0.3-6.6,0.3-9.8,0.3c-0.4,0-0.8,0.2-1,0.5c-0.3,0.2-0.5,0.5-0.5,1
				c0,1.4,0,2.8,0,4.3c0,1.1-0.1,2.2-0.1,3.3c0,0.6-0.1,1.2-0.1,1.9c0,0.4-0.1,0.8-0.1,1.1c-3.2,0.1-6.3,0.1-9.5,0.2
				c-0.3,0-0.5,0.1-0.6,0.2c-0.6,0.1-1.1,0.7-1.1,1.3c0,0,0,0,0,0.1c0,0,0,0.1,0,0.1c-0.2,2.7-0.3,5.4-0.2,8.2
				c-0.1,0.8-0.1,1.6-0.2,2.4c0,0,0,0,0,0c0,0,0,0.1,0,0.1c-3.2,0-6.4,0.1-9.6,0.1c-0.8,0-1.3,0.6-1.3,1.3c-0.3,3.7-0.5,7.3-0.8,11
				c-0.3,0-0.6,0.1-0.9,0.1c-1.7,0-3.5,0.1-5.2,0.2c-1,0-2-0.1-3-0.2c-0.7-0.1-1.3,0.7-1.3,1.3c-0.1,3.6-0.3,7.2-0.4,10.8
				c0,0.1,0,0.3,0.1,0.4c0,0,0,0,0,0l-9.6-0.2c-0.1,0-0.1,0-0.2,0c0,0,0,0-0.1,0c-0.8,0-1.3,0.6-1.3,1.3c-0.4,3.8-0.6,7.5-0.7,11.3
				c-1.3-0.1-2.7,0-4,0c-1.6,0.1-3.3,0.1-4.9-0.2c-0.4-0.1-0.7,0-0.9,0.1c-0.5,0.1-0.9,0.5-0.9,1.2c0,2.7,0,5.3-0.3,8
				c0,0.6-0.1,1.3-0.2,1.9c0,0.4-0.1,0.9-0.1,1.3c0,0-0.1,0.1-0.1,0.1c-3.1,0-6.2,0-9.3-0.1c-0.2,0-0.4,0-0.5,0.1
				c-0.5,0.1-1,0.5-1,1.2c-0.2,3.6-0.2,7.3-0.2,10.9c-0.1,0.1-0.3,0.3-0.4,0.4c-3.1,0-6.3,0-9.4-0.2c-0.2,0-0.5,0.1-0.7,0.2
				c-0.4,0.2-0.8,0.6-0.8,1.1c-0.2,3.7-0.2,7.3-0.2,11l-2.8,0.1c-2.2,0-4.3,0.1-6.5,0.1c-0.1,0-0.1,0-0.2,0c-0.6,0-1.2,0.5-1.3,1.3
				c-0.2,3.3-0.2,6.6-0.2,9.9c-0.3,0.3-0.6,0.6-0.9,0.9c-1.3,0-2.6,0.2-3.9,0.3c-2,0.2-4,0.2-6.1,0.1c-0.4,0-0.6,0.1-0.8,0.3
				c-0.3,0.2-0.5,0.5-0.5,1c-0.1,3.4,0,6.8,0.1,10.2c-0.3,0.3-0.6,0.6-0.8,0.9c-3,0.2-6,0.3-9,0.2c-0.4,0-0.8,0.2-1,0.5
				c-0.3,0.2-0.5,0.5-0.5,1c0,1.4,0,2.8,0,4.3c0,1.1-0.1,2.2-0.1,3.3c0,0.6-0.1,1.2-0.1,1.9c0,0.3-0.1,0.6-0.1,1
				c0,0.1-0.1,0.1-0.1,0.2c-3.1,0.1-6.3,0.1-9.4,0.2c-0.3,0-0.5,0.1-0.6,0.2c-0.6,0.1-1.1,0.7-1.1,1.3c0,0,0,0,0,0.1
				c0,0,0,0.1,0,0.1c-0.2,2.7-0.3,5.4-0.2,8.2c0,0.7-0.1,1.4-0.2,2.2c-0.1,0.1-0.2,0.2-0.3,0.3c-3.1,0-6.2,0.1-9.3,0.1
				c-0.8,0-1.3,0.6-1.3,1.3c-0.3,3.6-0.5,7.1-0.8,10.7c-0.1,0.1-0.2,0.2-0.3,0.3c-0.2,0-0.4,0-0.6,0.1c-1.7,0-3.5,0.1-5.2,0.2
				c-1,0-2-0.1-3-0.2c-0.7-0.1-1.3,0.7-1.3,1.3c-0.1,3.3-0.3,6.7-0.4,10c-0.3,0.3-0.6,0.7-0.9,1c-0.1,0.1-0.1,0.1-0.2,0.2l-8.4-0.2
				c-0.1,0-0.1,0-0.2,0c0,0,0,0-0.1,0c-0.8,0-1.3,0.6-1.3,1.3c-0.3,3.6-0.5,7.1-0.6,10.7c-0.2,0.2-0.4,0.4-0.6,0.6
				c-1.1-0.1-2.3,0-3.5,0.1c-1.6,0.1-3.3,0.1-4.9-0.2c-0.4-0.1-0.7,0-0.9,0.1c-0.5,0.1-0.9,0.5-0.9,1.2c0,2.7,0,8.6-0.3,11.2
				c0,0.6-0.1,1.3-0.2,1.9c-0.1,0.6-0.2,1.3,0,1.9c0.5,1.6,2.5,1.2,3.8,1.2c0.1,0,0.3,0,0.4-0.1c0,0,0,0,0,0
				c18.2-0.1,36.3-0.1,54.5-0.2c5.9,0.1,11.7,0.1,17.6,0c0,0,0,0,0,0c4.5,0,8.9-0.1,13.4-0.1c0.2,0,0.4,0,0.6,0
				c12.7,0,25.3-0.1,38-0.1c4,0,7.9,0,11.9,0.1c0.1,0,0.1,0,0.2,0c4.3,0.1,8.6,0.1,12.8,0c6.3,0.5,12.7,0.3,19,0.1
				c1.1,0,2.3-0.1,3.4-0.1c7.6,0.2,20.3,0.2,27.9-0.1c1.6,0,3.1,0,4.7,0.1c0,0,0,0,0,0.1c0,0,0,0,0,0c0,0.1,0.1,0.2,0.2,0.2
				c0,0.1,0.1,0.1,0.2,0.2c0,0,0,0,0,0c0.1,0.1,0.4,0.2,0.6,0.2l1,0.1c0.1,0,0.2,0.1,0.4,0.1c0.3,0,0.6,0,0.9,0
				c0.5,0,0.9,0.1,1.4,0.1c0.3,0,0.5,0,0.7,0c16.3,0.6,32.7,0.7,49.1,0.4c5-0.1,9.9-0.2,14.9-0.4c0.2,0,0.4,0,0.5-0.1
				c26.3,0.5,52.7,2.2,79.1,1c8.1-0.4,15.9-11.7,24.1-7c0.1,0.1,1.3,1.9,1.4,1.9l44.1-3.4C587.9,358.8,602.6,361.9,599.3,361.3z
				 M432.2,136.4c-0.6,0.1-3.1,0.1-6.2,0.1c0.3,0,0.5,0,0.6-0.1c0.4-0.1,3.1-0.2,6.1-0.3c-0.1,0-0.2,0.1-0.3,0.1
				C432.3,136.3,432.2,136.3,432.2,136.4z M411.1,136.2l-8.5,5.5l-3.3-1.4l6.6-4.3C405.9,135.9,408.1,136,411.1,136.2z M471.9,149.4
				l23.9-5.5l0.8,0.1l-24.4,5.6L471.9,149.4z M519,145.8l-0.9-0.1l7.2-1.8h1.2L519,145.8z M537.9,143.9h-1.3l6.4-6.7l24.3-2.9
				l0.1,0.2l-23.1,2.7L537.9,143.9z"/>
		</defs>
		<clipPath id="SVGID_4_">
			<use xlink:href="#SVGID_3_"  style="overflow:visible;"/>
		</clipPath>
		<g class="st6">
			<line class="st3" x1="-220.3" y1="398.2" x2="626.4" y2="398.2"/>
			<line class="st3" x1="-214.4" y1="385.8" x2="632.3" y2="385.8"/>
			<line class="st3" x1="-220.3" y1="373.3" x2="626.4" y2="373.3"/>
			<line class="st3" x1="168.2" y1="348" x2="638.2" y2="348.1"/>
			<polyline class="st3" points="-202.5,335.6 178.4,335.2 179.5,335.5 644.1,335.6 			"/>
			<polyline class="st3" points="-178.6,323.4 191.1,322.8 668.1,323.4 			"/>
			<line class="st3" x1="202.7" y1="310.4" x2="662.1" y2="310.9"/>
			<polyline class="st3" points="-178.6,298.4 212.1,297.5 214.8,297.9 216.7,297.9 668.1,298.4 			"/>
			<polyline class="st3" points="-172.6,285.9 224.2,285.4 226,285.5 228.2,285.6 674.1,285.9 			"/>
			<polyline class="st3" points="-166.7,273.4 236.1,272.7 238,272.6 240.1,272.7 680,273.4 			"/>
			<polyline class="st3" points="-172.6,261 248.2,260.3 249.8,260.4 254.1,260.5 674.1,261 			"/>
			<polyline class="st3" points="-178.6,248.5 258.2,247.2 260.9,248.2 264.2,248.5 668.1,248.5 			"/>
			<line class="st3" x1="-172.6" y1="235.6" x2="674.1" y2="235.6"/>
			<polyline class="st3" points="-166.2,223.2 277.7,222.1 282.4,223.2 680.5,223.2 			"/>
			<polyline class="st3" points="-160.5,210.7 290.8,210.1 295.9,210.7 686.2,210.7 			"/>
			<line class="st3" x1="-136.9" y1="198" x2="709.8" y2="198"/>
			<polyline class="st3" points="-142.7,185.6 626.4,185.8 637.4,186 704,185.6 			"/>
			<polyline class="st3" points="-137,173.1 456.2,173.1 611.6,173.2 624.9,173.4 709.7,173.1 			"/>
			<line class="st3" x1="-130.5" y1="160.6" x2="716.2" y2="160.6"/>
			<line class="st3" x1="-124.7" y1="147.9" x2="722" y2="147.9"/>
			<path class="st3" d="M122.5,137.2"/>
			<line class="st7" x1="116.6" y1="125.6" x2="963.3" y2="125.6"/>
			<line class="st7" x1="122.8" y1="116.6" x2="969.5" y2="116.6"/>
			<line class="st7" x1="128.4" y1="107.6" x2="975.1" y2="107.6"/>
			<line class="st7" x1="128.4" y1="98.6" x2="975.1" y2="98.6"/>
			<polyline class="st7" points="129.9,89.6 456.4,89.6 462.4,92.7 466.4,89.6 976.6,89.6 			"/>
			<polyline class="st3" points="431.8,77.8 435.1,77.8 437.5,75.8 447.7,77.8 450.1,77.8 1005,77.8 			"/>
			<polyline class="st3" points="415.6,76.8 421.3,76.8 425.5,77.8 			"/>
			<path class="st3" d="M158.3,77.8"/>
			<line class="st3" x1="152.6" y1="65" x2="999.3" y2="65"/>
			<line class="st3" x1="158.3" y1="54" x2="1005" y2="54"/>
			<line class="st3" x1="164.3" y1="43.3" x2="1011" y2="43.3"/>
			<line class="st3" x1="171.3" y1="32.6" x2="1018" y2="32.6"/>
			<line class="st3" x1="164.5" y1="21.7" x2="1011.1" y2="21.7"/>
			<polyline class="st3" points="158.5,11 462.4,11 464.4,10.8 467.6,10.9 486.7,10.9 488.5,10.9 490.3,10.4 1005.2,11 			"/>
			<path class="st3" d="M1011,0.8"/>
			<path class="st3" d="M164.3,0.8"/>
			<line class="st3" x1="170.2" y1="-10.2" x2="1016.9" y2="-10.2"/>
			<line class="st3" x1="176.2" y1="-21.2" x2="1022.9" y2="-21.2"/>
			<line class="st3" x1="200" y1="-32.2" x2="1046.7" y2="-32.2"/>
		</g>
	</g>
</g>
<g id="Layer_11">
	<path class="st8" d="M438.4,133.8l-0.6,2.7l-0.6-0.1c0-0.1-3.1-0.3-4.1-0.3c-0.3,0-0.5,0.1-0.6,0.2c-0.1,0-0.2,0.1-0.3,0.1
		c-1.8,0.4-20.8-0.5-20.8-0.5l-8.8,5.8l-12.2-5.3L369,136l-2.8,0c-2.2,0-4.3,0.1-6.5,0.1c0,0-2.6,0-4.1,0c0.5-0.5,1-1,1.4-1.2
		c0.6-0.5,1.8-1.3,2.4-1.3c0.1,0,0.1,0,0.1,0c2,0,4.2-0.3,6.2-0.3l4.3,0.3l20.2-0.2l10.6,4.4l6.9-4.8c0,0,17.5,0.8,18.8,0.3
		c0.8-0.3,4.1-0.1,6.1-0.1c0.9,0,1.7,0,2.1,0c0.1,0,0.2,0,0.3,0L438.4,133.8z"/>
	<path class="st5" d="M601.2,136.8c-0.2-0.1-0.4-0.2-0.6-0.2c0,0-0.1,0-0.2,0c-2.2,0-4.3-0.1-6.5-0.1l-2.8,0l-11.5,3.7h-7.5
		l-3.3-5.8l-24.5,2.9l-6.5,6.6h-11.4l-7.5,1.9l-22.1-1.9l-24.7,5.7l-12.1-9l-1.2-0.9l-12.3-1.4l-8.8-1.8l0.6-2.7l6.8,1.5l10.2,0.4
		l4.6,0.7l13.3,8.5l18.9-4l20.6,1.9l7-1.9l13.2-0.7l7.5-5.7l18.8-3.2l8.6-0.5l6.7-0.3l2.7,5.9l4.9-0.5l6.5-2.3
		c0.1,0,0.8,0.1,0.8,0.1l9.9,0.6C599.8,134.8,601,136.6,601.2,136.8z"/>
	<line class="st9" x1="437.7" y1="136.5" x2="437.4" y2="137.8"/>
	<line class="st9" x1="438.8" y1="132" x2="438.4" y2="133.8"/>
	<path class="st8" d="M448.2,83.6L448.2,83.6c0.1-0.6,0-1.2,0-1.7c0-1.1,0-2.2,0-3.2c0-1.2,0-2.4,0-3.6l-11.7-0.8l-7.5,4.2l-6.1-3.3
		l-5.9-0.9l-6.5,4.8L409,78l-0.4,3l2.1,1.9l6.4-5.1l5.4,0.6l6.5,3.4l7.9-4l8.9,0.5v6.6c0,0.5,0.1,1.2,0.1,1.2l3.4,1.6l0.8-3.3
		L448.2,83.6z"/>
	<path class="st10" d="M536.5,71.3C536.5,71.3,536.5,71.2,536.5,71.3L536.5,71.3l-7.6,5.6l1.3,4.9l-4.4,6.5l-7.3-1l-4.5-2.8
		L501.5,85l-17.9-5.7l-9.5-3.5l-9.3,12.8l-3.2,2.4l-4.5-3.3l-7.1-3.3l-0.8,3.3l5.1,2.4l3.9,2.8l4.5,1.8l4.3-3.9l8-11.1l8.6,3.1
		l17.9,5.7l12.6-0.6l4.5,2.8l7.3,1l7.3-8.9l-1.4-4.5l5.3-4.4l6.5,4.1l1.8-0.5L536.5,71.3z"/>
</g>
<g id="cat">
	<path class="st11" d="M872.3,364.9c0-0.1-0.1-0.2-0.1-0.3c0.2-0.5,0.1-1.2,0.1-1.7c0-0.1,0.1-0.2,0.1-0.3c0-0.1,0-0.1,0-0.2
		c0,0,0,0,0,0c0-0.3,0-0.7,0-1c0-1.5,0-2.9-0.1-4.3c0-0.2-0.1-0.4-0.2-0.5c0-0.1,0-0.3,0-0.4c0-0.5-0.2-0.8-0.6-0.9
		c0.2-0.3,0.2-0.6,0-0.9c0-0.1-0.1-0.1-0.2-0.2c0,0,0,0,0,0c0,0,0,0,0,0c-0.3-0.4-0.7-0.8-1-1.2c-1-1.2-2.3-2.1-3.7-2.8
		c-4.4-1.4-8.9-2.8-13.3-4.2c-0.3-0.1-0.6-0.1-0.8-0.2c-2.9-0.4-5.8-0.7-8.7-1.2h-5.8c-0.2,0-0.3,0-0.4,0.1
		c-6.2-0.7-12.5-1.3-18.7-1.9c-8.3-0.8-16.7-0.2-25-1.2c-0.1,0-0.2,0-0.3,0c-2-0.4-4.1-0.8-6.1-1.3c-1.3-0.3-2.6-0.5-3.9-0.7
		c-0.6-0.1-1.2-0.2-1.8-0.4c-0.1,0-0.3-0.1-0.5-0.1c-0.1-0.8-0.2-1.6-0.2-2.4c0-0.1,0-0.1,0-0.2c0-0.1,0-0.2-0.1-0.3
		c-0.1-0.9-0.3-1.6-0.9-2.3c0-0.3-0.2-0.5-0.4-0.7c0-3.2,0-6.4,0-9.5c0-0.7,0.1-1.5,0-2.3c0.1-0.3,0.1-0.6,0.2-1
		c0.2-0.6-0.3-1.1-0.8-1.2c0,0,0-0.1-0.1-0.1c-0.6-0.8-1.2-1.6-1.9-2.3c0-1.3,0-2.7-0.1-4c0-1.6,0-3.1-0.1-4.7c0-1.5,0.1-3-0.1-4.4
		c-0.1-0.7-0.4-1.2-0.8-1.6c-0.1-0.1-0.2-0.3-0.3-0.4c-0.2-0.4-0.4-0.7-0.7-1.1c-1.8-2.1-3.6-4.1-5.4-6.1c-0.3-0.3-0.6-0.3-0.8-0.3
		c-1.1-1.4-2.1-2.7-3.1-4.1c0-1.8,0-3.7,0.1-5.5c0-1.6,0.1-3.3-0.3-4.9c-0.4-1.7-1.3-3.3-2-4.8c-1.6-3.4-3.2-6.8-4.7-10.2
		c-0.6-1.4-1.2-3-2.4-4c-1.3-1.1-2.7-0.9-4.3-0.8l-0.2-0.1c0,0,0,0,0,0c-0.4-0.6-1-0.8-1.5-0.7l-1-0.5c-2.3-1.1-4.7-2.3-7-3.4
		c-0.8-0.8-1.5-1.6-2.3-2.4c-0.7-0.8-2-0.9-3-0.4c-0.2-0.9-0.4-1.8-0.6-2.7c-0.3-3.1-0.5-6.3-0.8-9.4c0-0.6-0.4-0.9-0.7-1.2
		c0.3-0.9,0.6-1.8,0.9-2.7c0.8-2.7,1.5-5.3,2.2-8c0.5,0.4,1.3,0.5,1.9-0.1c2.2-2.2,2.2-5.4,1.9-8.4c-0.1-1.1-0.3-2.2-0.5-3.4
		c0.2-1.1,0.1-2.1-0.3-3.2c0.2-2.2-0.1-4.6-2.3-5.6c-2.6-5-5.2-10-7.8-15c0-0.1-0.1-0.2-0.2-0.2c-1.3-4.6-2.5-9.1-4.4-13.5
		c-2.3-5.5-5.5-11.5-10.9-14.4c-3-1.6-6.5-2.7-9.7-3.7c-3.5-1-7.1-1.4-10.8-1.3c-4,0.1-7.7,0.5-11.5,2c-2.7,1.1-5.4,2.2-8.2,3.3
		c-0.3-0.4-0.7-0.6-1.2-0.7c-1.6-0.2-3.1,0.4-4.3,1.5c-0.4,0.3-0.5,0.8-0.4,1.2c-1-0.6-2-1.2-3.1-1.8c-0.1-0.1-0.4-0.1-0.5,0
		c-1.1,0.8-2.2,1.6-3.2,2.5c-1.1,0.7-2,1.6-2.8,2.6c-0.5,0.6-1.1,1.1-1.6,1.7c-0.1,0-0.3,0-0.4,0.2c-4,4.7-7.4,9.9-10.3,15.4
		c-0.5,0.8-1,1.7-1.4,2.6c-1.2,2.2-2.1,4.7-2.9,7.1c-1.1,3.1-2.1,6.2-2.9,9.4c-0.4,1.4-0.9,2.9-1.3,4.3c-0.4,1.2-0.8,2.5-1.2,3.7
		c-0.2,0.6-0.3,1.2-0.2,1.7c-0.1,0.3-0.2,0.5-0.3,0.8c0,0.1,0,0.2,0,0.3c-1.1,0.2-1.8,1.7-0.8,2.5c0.2,0.2,0.4,0.3,0.6,0.5
		c5.1,5.4,10,11.2,12.5,18.3c0,0,0,0.1,0.1,0.1c0,2.7,0.1,5.3,0.4,8c-1.3,2.3-2.5,4.7-3.6,7.2c-0.4,0.7-0.8,1.5-1.2,2.3
		c-1.1,0.3-2.1,0.6-3.1,0.9c-0.8,0.3-1.6,0.6-2.4,1c-0.4,0.3-0.8,0.6-1.2,0.9c-0.3,0.2-0.6,0.4-0.9,0.7c0,0-0.1,0-0.1,0.1
		c-0.5,0.4-1,0.8-1.5,1.3c-1.3,1.1-2.6,2.3-3.6,3.6c-0.8-0.4-1.6-0.9-2.5-0.6c-0.9,0.3-1.4,1-2,1.7c-0.4,0.5-0.7,0.9-1,1.4
		c-0.6,1-1.2,2.1-1.7,3.1c0,0,0,0.1,0,0.2c-0.2,0.4-0.4,0.8-0.5,1.2c-0.1,0.2-0.1,0.3-0.1,0.5c-0.1,0.2-0.2,0.5-0.2,0.7
		c-0.1,1.1-0.1,2.3-0.2,3.4c-17.9,0.8-35.7,1-53.6,0.6c-0.7,0-1,0.5-0.9,1.1c-5,4-10.2,7.7-15.6,11.2c-2.6,1.7-5.3,3.3-8,4.8
		c-2.4,1.4-4.7,2.8-6.5,4.9c-0.2,0.2-0.2,0.4-0.2,0.7c-0.2,0.1-0.4,0.3-0.4,0.6c-0.6,2.4-1.3,4.7-2.1,7.1c-1.2,2.2-2.4,4.5-3.4,6.8
		c-0.2,0.4-0.3,0.8-0.5,1.2c-1.2,1.7-2.2,3.5-3,5.4c-0.2,0.5,0.2,1.1,0.7,1.2c0,0,0.1,0,0.1,0c-0.1,0.3-0.1,0.7-0.1,1
		c-0.9,0.5-1.8,1.3-2.5,2.6c-0.3,0.6-0.6,1.1-0.9,1.6c-0.8-0.2-1.7,0-2.5,0.9c-3.6,3.7-6.1,7.9-7.5,12.9c-0.3,1.2,0.3,2.6,1.4,3.3
		c0.1,1.2,0.8,2.1,1.9,2.6c-1.5,2.6-2.4,5.4-1.9,8.6c0.1,0.6,0.5,1.1,1,1.5c-0.2,0.3-0.4,0.6-0.5,0.9c-1.5,2.4,0.9,4.8,3.4,4.4
		c5.7-0.9,11.5-1.6,17.2-1.9c8.9,0.4,17.8,0.7,26.8,1c-0.1,1.8,1.4,3.9,3.8,3.6c29.8-4.1,60.1-1.3,90.1-1.5
		c8.7-0.1,17.5-0.2,26.2-0.5c0.1,0.5,0.3,0.9,0.7,1.4c2.3,2.7,6.4,2.1,9.6,2.2c5.6,0.1,11.1,0.2,16.7,0.2c2.4,0,4.8,0,7.2,0
		c0.3,0.1,0.7,0.2,1.1,0.2c16-0.1,31.9-0.2,47.9-0.7c10.8,0.5,21.8,0,32.6,0c3.5,0,7,0.1,10.6,0c0.4,0.2,0.8,0.3,1.2,0.3
		c11.4,0.1,22.8,0,34.2-0.3c1,0.1,2.1,0.2,3.1,0.2c0.1,0.1,0.3,0.2,0.5,0.2l19.5,0C872.2,366.5,872.7,365.6,872.3,364.9z"/>
	<g>
		<path class="st12" d="M744.9,210.1c0-0.2-0.1-0.4-0.2-0.6c0,0,0,0,0,0c-0.3-5.2-3.9-9.9-6.4-14.2c-2.9-4.9-5.8-9.7-8.7-14.6
			c-1.5-3-2.9-6.1-4.1-9.3c-0.2-0.6-0.8-0.7-1.3-0.6c0-0.1-0.1-0.3-0.2-0.4c-0.1-0.1-0.1-0.3-0.2-0.4c0.3-1.7,0.2-3.5-1.4-4.6
			c-1-0.7-2.3-1.2-3.4-1.7c-1.2-0.5-2.4-1-3.6-1.5c-4.5-1.7-9.2-2.9-14-3.6c0-0.2,0-0.5,0-0.7c0-0.6-0.4-0.9-1-1
			c-1.6-0.2-3.2-0.3-4.8-0.5c-0.7-0.1-1.5-0.1-2.2,0.3c-0.3,0.2-0.6,0.5-0.7,0.8c-5,0.5-9.9,1.3-14.7,2.7c-2.4,0.7-4.7,1.4-7,2.3
			c-2.2,0.8-4.6,1.7-6.4,3.2c-0.1,0-0.1,0.1-0.1,0.1c-6.1,4.1-10.5,10-14.1,16.3c-4.1,7-8.3,14.5-10.4,22.4
			c-1.1,4.3-1.7,8.7-2.2,13.1c0,0,0,0,0,0.1c0,0.1-0.1,0.1-0.1,0.2c0,0,0,0-0.1,0.1c-0.3,0.1-0.6,0.2-0.7,0.5
			c-0.1,0.2-0.1,0.4-0.1,0.6c-0.1,0.4,0.1,0.8,0.5,1c0.2,0.1,0.4,0.2,0.6,0.4c0.1,0.1,0.2,0.2,0.3,0.3c1.3,1,2.6,2.1,3.7,3.4
			c0,0.1,0.1,0.1,0.1,0.2c1.2,1.3,2.2,2.7,3.2,4.1c0.1,0.1,0.1,0.2,0.2,0.3c0,0,0,0,0,0c0.5,0.8,1.1,1.6,1.6,2.5l2.5,5.2
			c0.4,2.8,0.7,5.6,0.9,8.5c-1.3,3.9-3,7.6-5,11.2c-2.1,0.7-4.1,1.4-6.1,2.2c-2.6,1.1-4.6,3.2-6.6,5.2c-0.5,0-1,0-1.6,0.1
			c-0.5,0-1.1,0-1.6,0.2c-0.6,0.2-0.9,0.7-1.3,1.1c-0.4,0.6-0.8,1.2-1.2,1.9c-0.3,0.3-0.5,0.6-0.8,1c-0.4,0.5-0.8,1.1-1.1,1.7
			c-0.2,0.3-0.4,0.6-0.5,1c-0.2,0.2-0.4,0.4-0.4,0.8c0,1.3,0,2.6,0,3.9c-17.8,0.4-35.6,0.8-53.5,1.4c-0.1-0.1-0.3-0.1-0.4-0.1
			c-0.3,0-0.5,0.1-0.7,0.3c-0.1,0.1-0.1,0.1-0.2,0.2c-0.1,0.2-0.1,0.3-0.1,0.5l-0.2,1.9l-1.2,0.8c-0.1,0-0.2,0-0.3,0.1
			c-0.6,0.2-1.1,0.4-1.7,0.6c-0.5-0.1-1.1,0.1-1.5,0.6c-0.1,0.1-0.2,0.2-0.3,0.3c-1.8,1-3.4,2.3-4.8,3.9l-18.8,12.1
			c-0.1,0.1-0.2,0.2-0.3,0.3c-0.2,0.1-0.5,0.3-0.6,0.6c-2.3,7.1-5.2,13.9-8.6,20.6c-1.5,0-3,0-4.5,0c-1,0-1.8-0.1-2.6,0.6
			c-0.2,0.2-0.4,0.4-0.7,0.6c-0.7,0.5-1.4,1-2.2,1.5c-0.2,0.2-0.4,0.3-0.5,0.6c0,0,0,0.1,0,0.1c-0.1,0.2-0.2,0.4-0.2,0.6
			c0,0.6,0,1.3,0.1,1.9c-0.2,2-0.2,4-0.3,6c-0.1,0.1-0.1,0.1-0.2,0.2c-0.8,1.6-1.5,3.2-2.3,4.8c-2.4,4.4-4.8,8.8-7.2,13.2
			c0,0.1,0,0.1-0.1,0.2c-0.2,0.2-0.3,0.4-0.3,0.7c0.1,1.3,0.1,2.6,0.2,3.9c0,0,0,0,0,0c-1,1.2-1.9,2.6-2.7,3.9
			c-0.1,0.1-0.1,0.2-0.1,0.3c-0.1,0.1-0.2,0.3-0.2,0.5c-0.1,2.2-0.1,4.5,0.1,6.7c0,0.5,0.4,1,0.9,1c0.2,0.2,0.4,0.3,0.7,0.3
			c25,0.5,50,0.3,75-0.4c0.1,0,0.3,0,0.4,0c2,0.1,4.1,0.2,6.1,0.1c1.6-0.1,3.2-0.2,4.8-0.4c1.7,0,3.4-0.1,5.1-0.1
			c0.2,0.3,0.6,0.6,1.1,0.7c6.5,1.2,13.2,0.1,19.8-0.2c6.7-0.3,13.5-0.5,20.2-0.5c4.6,0,9.2-0.1,13.7-0.1c12.4,1,24.9,1.3,37.4,0.9
			c0.3,0.2,0.7,0.3,1.1,0.3c5.8-0.3,11.6-0.6,17.4-0.8c0.1,0,0.3,0,0.4,0c0.5,0,1.1,0.1,1.6,0.1c0.5,0,1.1,0.1,1.7-0.1
			c0.2-0.1,0.4-0.2,0.6-0.3c0.3-0.1,0.7-0.3,0.7-0.7c0.1-0.9,0.2-1.8,0.3-2.7c0-0.3,0-0.5,0-0.8c0.2-1.5-0.3-3-1.3-4.2
			c-1.6-1.8-4.1-2.5-6.4-3.1c-6.1-1.6-12.3-3-18.5-4.2c-0.2,0-0.4,0-0.5,0c-0.2-0.1-0.4-0.1-0.7-0.1c-6.5,0.1-12.9-0.1-19.4-0.7
			c-0.2-1.6-0.3-3.3-0.6-4.9c0.2-4.9,0.2-9.7-0.2-14.6c-0.1-1.5-1.3-3.1-3-3c-16.2,0.9-32.4,1.3-48.6,1.3c0.5-1,1-2,1.4-3
			c2.2,0,4.4,0,6.5,0c5.4-0.1,10.7-0.6,16.1-1.3c1.9,0,3.8,0,5.7-0.1c1.6,0.1,3.3,0.1,4.9,0c0.2,0,0.4,0,0.5-0.1
			c4.3,0.2,8.6,0.5,12.9,0.7c0.6,0,1-0.5,1-1c0-1,0-2,0-3.1c0.3-3.8,0.4-7.5,0.3-11.3c0-0.5-0.5-1-1-1c-2.1,0-4.2,0-6.2,0
			c-0.3-3.6-0.6-7.2-0.9-10.8l0.1-4.3c0-0.5-0.4-0.9-0.9-1c-0.4-0.3-0.9-0.3-1.2-0.1c-1.9-0.1-3.8-0.1-5.8,0c0,0,0,0,0-0.1
			c0-1.5,0.1-2.9,0.2-4.4c0.1-1.2,0.2-2.3-0.4-3.3c-1.2-2.2-3.1-4.2-4.6-6.1c-1.3-1.6-2.6-3.1-3.9-4.6c-0.1-0.2-0.3-0.4-0.4-0.6
			c0-0.1,0-0.1,0-0.2c1.3-1.2,2.6-2.4,4-3.6c1.3-1.1,2.6-2.1,3.9-3.2c0.4-0.2,0.7-0.3,1.1-0.5c1.7-0.1,3.3-0.1,5-0.1
			c0.4,0,0.8,0,1.2,0c0,0,0.1,0,0.1,0c0.1,0,0.1,0,0.2,0c0,0,0,0,0.1,0c1.9,0,3.8,0,5.7,0c4.1,0,8.3,0,12.4,0
			c3.6,0,7.1-0.3,10.4-1.7c2.6-1.1,5-2.8,7.1-4.7c1.4-1.1,2.6-2.3,3.7-3.6c1.6-1.6,2.9-3.4,4.1-5.5c1.9-3.3,3.7-7.1,3.9-11
			c3.4-0.2,6.9,0,10.3,0.4c0.5,3.1,1,6.3,0.3,9.4c-0.1,0.3,0,0.6,0.2,0.8c0.1,0.4,0.3,0.7,0.7,0.8c0.2,0.1,0.4,0.2,0.6,0.2
			c0.1,0,0.1,0,0.2,0c7.5,2.5,15.2,4.5,23,5.7c1.1,0.2,1.8-1.2,0.8-1.8c-0.1-0.1-0.2-0.1-0.2-0.2c0.5-0.1,0.7-0.7,0.7-1.2
			c-0.2-1.3-0.4-2.6-0.5-3.9c0.2-3.5,0.3-7.1,0.3-10.6c0.4-2.5,1-4.9,1.9-7.2c0.9-1.6,1.9-3.2,2.1-5c0-0.1,0-0.2,0-0.3
			c0.2-0.2,0.4-0.4,0.4-0.8C745.4,220.4,745.5,215.2,744.9,210.1z M571.6,283.1c0.3-0.1,0.7-0.2,1-0.3c0.3,0,0.6,0,0.9,0
			c-0.9,0.1-1.7,0.3-2.6,0.5C571.2,283.3,571.4,283.2,571.6,283.1z M564,289.4c4.1-0.5,8.2-1.1,12.3-1.8l-1.5,3.5
			c-1.1,0-2.2,0.1-3.3,0.1c-2.9-0.1-5.7-0.1-8.6,0C563.3,290.6,563.6,290,564,289.4z M584.1,332.4c-0.3,0.6-0.5,1.2-0.8,1.8
			c-3.7,0.1-7.7,0.8-10.9,1.1c-5.7,0.6-11.4,1.4-17,2.5c-11.5-0.8-23-1.1-34.5-1c-0.5,0-0.9,0.1-1.3,0.3c0.6-1,1.1-2.1,1.7-3.1
			c0.5,0,1-0.3,0.9-1c0-0.3,0-0.5,0-0.8c0.1-0.2,0.2-0.4,0.3-0.6c0.3,0.1,0.6,0.1,0.9,0.1c20.3,0.1,40.5,0.2,60.8,0.2L584.1,332.4z
			 M596.1,318.4c-9.7,0.8-19.4,1.7-29.1,2.7c-2.8-0.1-5.5-0.2-8.3-0.1c-0.1-0.4-0.2-0.8-0.3-1.2c0-0.2,0-0.5,0-0.7
			c-0.5-3.8-1.3-7.6-2.3-11.3c1.1-0.6,2.2-1.1,3.3-1.7c0.7,2.5,1.4,5.1,2.3,7.5c0.5,1.3,1.4,1.9,2.5,2c0.5,0.4,1.1,0.7,2,0.7
			c10.5,0,21.1,0,31.6,0C597.2,317,596.6,317.7,596.1,318.4z M596.2,288.2c-0.6,0-1.3,0.1-1.9,0.1c-3.2,0.3-6.5,0.6-9.7,1
			c0.1-0.3,0.1-0.6,0.2-0.9c0.3-0.3,0.6-0.7,0.7-1.2c0,0,0-0.1,0-0.1c2.7-0.6,5.4-1.2,8.2-1.8c0.6-0.1,1.1-0.1,1.7-0.2
			c10.2-1,20.4-1.4,30.6-1.1c0.2,0.5,0.4,1,0.6,1.5c-1.1,0.2-2.3,0.3-3.4,0.5c-2.2,0.3-4.5,0.6-6.7,0.9c-0.2,0-0.4-0.1-0.6-0.1
			c-1.3-0.1-2.5-0.1-3.8-0.1c-1.8-0.4-3.8-0.5-5.1-0.6C602.9,285.7,599.5,286.7,596.2,288.2z M675.3,225.3c0,0,0,0.1-0.1,0.1
			c-0.1,0.1-0.3,0.2-0.5,0.3c0,0-0.1,0.1-0.2,0.1c-0.1,0-0.2,0.1-0.3,0.1c-0.2,0.1-0.4,0.1-0.6,0.2c-0.2,0-0.3,0.1-0.5,0.1
			c-4.6-4.5-9.3-8.9-14.4-12.8c-0.2-0.8-0.3-1.7-0.5-2.5c-0.2-1.7-0.5-3.4-0.8-5.1c-0.1-0.9-0.2-1.8-0.2-2.6c0.9-2.1,2.2-4,3.8-5.5
			c0.9-0.8,1.9-1.6,2.9-2.2c0.1,0,0.1,0,0.2,0c0.2,0,0.4,0,0.6,0c0,0,0.1,0,0.1,0c0.1,0,0.2,0,0.3,0c0.3,0.1,0.6,0.1,0.9,0.2
			c-0.7,5.2-0.7,10.5,0.1,15.8c0,0.3,0.2,0.5,0.3,0.6c0.3,0.7,0.8,1.4,1.2,2c1,1.6,2.2,3.2,3.3,4.8
			C672.7,220.8,674.2,223,675.3,225.3C675.3,225.3,675.3,225.3,675.3,225.3z M728.3,212.7c-0.3,1.8-0.6,3.6-0.9,5.4
			c-0.3,0.1-0.5,0.3-0.6,0.7c-0.2,1.6-0.4,3.2-0.7,4.9c-1,3.1-2.1,6.2-3.2,9.2c0,0.1-0.1,0.1-0.1,0.2c0,0,0,0.1-0.1,0.1
			c-3.4-1-6.9-2-10.4-2.5c-2.5-0.3-5.1-0.2-7.6-0.2c-2.4,0-4.8,0-7.2,0.1c-0.3-2.4-0.6-4.7-1.1-7.1c-0.1-0.4-0.6-0.7-1-0.7
			c-0.8,0-1.7,0-2.5-0.1c-0.3-4.6-1.5-9-3.6-13.1c0-0.2,0-0.5,0-0.6c0.1-1,0.1-2,0.1-3c-0.1-2.1-1.9-2.7-3.6-3.4
			c-3.4-1.4-6.8-2.7-10.3-3.8c0-0.4,0-0.9-0.1-1.3c0.1,0,0.2,0,0.3,0c1.8,0.1,3.7,0.3,5.4,0.7c0.3,0.1,0.6,0,0.8-0.2
			c0.6-0.3,1.2-0.7,1.6-1.2c2.3-2.1,3.5-5.2,3.7-8.2c0.3-3.6-0.8-7.1-2.4-10.4c-1.5-3.2-3.4-6.7-5.9-9.3c-0.1-0.3-0.3-0.4-0.6-0.5
			c-0.2-0.1-0.5-0.1-0.7-0.1c-1.1-0.1-2.1-0.1-3.2,0c-0.2,0-0.5,0-0.7,0.1c-0.5,0-1.1,0-1.6,0.2c0,0,0,0,0,0c-0.1,0-0.2,0-0.3,0
			c-0.3,0.1-0.4,0.2-0.6,0.5c-0.7,0.9-1.4,1.8-2,2.7c-0.1,0.1-0.1,0.2-0.1,0.4c-1,1.4-2,2.7-3,4.1c-9.9,12-17.5,25.7-22.6,40.4
			c0,0.1,0,0.2,0,0.2c-0.4,0.1-0.8,0.2-1.2,0.3c0,0-0.1-0.1-0.1-0.1c0,0,0,0,0,0c-0.1-0.1-0.1-0.2-0.2-0.3c0.3-2.5,0.6-5,0.8-7.4
			c1.3-4.3,2.8-8.6,4.5-12.7c1.8-2.9,3.7-5.8,5.4-8.9c0.6-1.1,1.3-2.1,1.9-3.2c0.2-0.1,0.4-0.2,0.5-0.4c0.1-0.2,0.2-0.4,0.2-0.5
			c0.1-0.1,0.2-0.1,0.2-0.2c2.6-3.8,5.4-7.4,8.5-10.9c0.1,0,0.2-0.1,0.2-0.2c0.3-0.3,0.5-0.5,0.8-0.8c1.5-1.4,3-2.7,4.5-4.1
			c7.6-3.2,15.6-5.2,23.8-5.9c0.2,0,0.4-0.1,0.5-0.2c0,0,0.1,0,0.1,0c4.2,0.2,8.4,0.8,12.5,1.5c1.3,0.4,2.6,0.7,3.8,1.1
			c1.9,0.8,3.8,1.7,5.6,2.8c2,1.7,3.9,3.5,5.7,5.4c0,0,0,0,0.1,0c0.4,1.2,0.7,2.5,0.9,3.8c0,0.2,0,0.4,0.1,0.6c0,0,0,0,0,0
			c1.2,6.1,1.4,12.4,1.5,18.6c0,0.4,0.2,0.6,0.4,0.8c0,0.1,0,0.2,0,0.3c0.9,2.6,2,5.2,2.6,7.9c0.6,2.7,0.9,5.4,0.9,8.1
			C728.3,212.2,728.3,212.4,728.3,212.7z"/>
		<path class="st12" d="M735.7,364.5c0.1-0.1,0.1-0.3,0.1-0.4c0-1.5-0.1-2.9-0.3-4.4c-0.1-0.7-0.2-1.4-0.5-2
			c-0.3-0.6-0.8-1.1-1.3-1.5c-1.9-1.9-4-3.5-6.3-4.8c-0.3-0.2-0.6-0.2-0.8-0.1c-0.6-0.1-1.3-0.2-1.9-0.3c-1.2-0.2-2.4-0.3-3.6-0.5
			c-5.2-0.6-10.3-0.8-15.5-0.7c-1.1,0-1.3,1.6-0.4,1.9c0.1,0.3,0.4,0.5,0.8,0.6c2.8,0.1,5.5,0.4,8.2,0.7c3,0.6,6,1.2,9,1.9
			c0,0,0,0,0,0c0.7,0.5,1.4,1,2.1,1.5c0.3,0.3,0.6,0.7,1,1c0.5,0.6,0.9,1.2,1.4,1.8c0.3,1.5,0.6,3.1,0.7,4.6c0,0.2,0.1,0.3,0.2,0.5
			c0,0.1,0,0.1,0,0.2c0,0.1,0,0.2,0.1,0.3c0,0.3,0.2,0.6,0.5,0.8c0.2,0.2,0.3,0.3,0.6,0.4c0.6,0.2,1.3,0.1,1.9,0
			c0.6,0,1.1,0,1.7-0.1c0.3,0,0.7,0,1,0c0.7,0,1.4-0.4,1.4-1.2c0-0.1,0-0.2,0-0.3C735.8,364.7,735.7,364.6,735.7,364.5z"/>
		<path class="st12" d="M756.7,357.4c0-0.4-0.3-0.8-0.7-0.9c-0.8-1-1.8-1.6-2.9-2.2c-1.6-0.8-3.2-1.7-4.7-2.5c0,0-0.1,0-0.1,0
			c-0.8-0.5-1.9-0.6-2.8-0.7c-1.2-0.2-2.4-0.3-3.7-0.4c-2.5-0.2-5.1-0.2-7.6,0c-0.2,0-0.3,0.1-0.4,0.1c-1.2,0-1.2,1.9,0.1,2
			c2.3,0.1,4.6,0.4,6.9,0.9c1.9,0.4,3.8,1,5.6,1.5c0.1,0.1,0.1,0.1,0.2,0.2c0.6,1,1.5,1.7,2.2,2.6c0.4,0.5,0.8,0.9,1.2,1.4
			c0,0.1,0.1,0.1,0.1,0.2c0,0,0,0,0,0c0,0,0,0,0,0c0.1,0.1,0.2,0.3,0.3,0.4c0,0,0.1,0.1,0.1,0.1c0,0.2,0,0.3,0.1,0.5c0,0,0,0,0,0
			c0,0.8,0,1.6,0,2.5c0,0.5,0,1-0.1,1.5c0,0.2,0,0.4,0,0.6c0,0,0,0,0,0.1c0,0.1,0,0.2,0,0.3c0,0.6,0.5,1,1,1c1.4,0,2.9-0.1,4.3-0.3
			c0.4-0.1,0.7-0.6,0.7-1C756.9,362.5,756.9,359.9,756.7,357.4z"/>
		<path class="st12" d="M775.4,361.6c0-0.4-0.1-0.8-0.1-1.2c0-0.2,0-0.3,0-0.5c0,0,0-0.2,0-0.2c0-0.1,0-0.1,0-0.2c0-0.2,0-0.3,0-0.5
			c0-0.5-0.3-1-0.7-1.3c-0.6-0.6-1.2-1.1-1.8-1.7c-1.2-1.1-2.5-2.2-4-2.9c-0.6-0.4-1.1-0.7-1.8-1c-0.1,0-0.2,0-0.2,0
			c-0.4-0.2-0.9-0.3-1.3-0.4c-0.2,0-0.4,0-0.6,0c-4-0.2-7.9-0.3-11.9-0.3c-1.3,0-1.3,2,0,2c3.3,0,6.6,0.1,9.9,0.2
			c0.8,0.2,1.5,0.7,2.2,1.2c0.8,0.5,1.6,0.9,2.3,1.5c0.7,0.5,1.4,1,2.1,1.6c0.2,2.4,0.4,4.7,0.6,7.1c0,0.6,0.4,1,1,1
			c0.8,0,1.6,0,2.4,0c0.2,0,0.4,0,0.7,0c0,0,0,0,0,0c0.7,0.1,1.2-0.3,1.3-1C775.5,363.9,775.5,362.8,775.4,361.6z"/>
		<path class="st12" d="M831.4,364.8c0-0.2,0-0.3-0.1-0.4c0-0.3,0-0.7,0-1c0.2-0.6,0.1-1.4-0.3-1.9c-0.4-0.6-6-5.4-6.1-5.5
			c-0.2-0.2-0.4-0.3-0.7-0.3c-0.1,0-0.1,0-0.2,0c0,0,0,0-0.1,0c-0.6-0.1-1.2-0.2-1.8-0.3c-0.9-0.3-1.9-0.6-2.9-0.8
			c-1.1-0.3-2.3-0.4-3.5-0.6c-1.9-0.5-3.8-0.9-5.8-1.3c-5.4-1.2-10.9-2.1-16.4-2.8c-0.3,0-0.5,0-0.7,0.2c-0.2,0.1-0.3,0.2-0.5,0.3
			c-0.4,0.2-0.6,0.6-0.4,1.1c1.3,4.6,2.7,9.2,4,13.8c0.1,0.2,0.2,0.4,0.3,0.5c0.2,0.2,0.4,0.4,0.8,0.4c1.4-0.1,2.8-0.1,4.2-0.2
			c2.2,0,4.3-0.1,6.5-0.2c2.8,0,5.6,0,8.4,0c3.1,0.1,6.3,0.2,9.4,0.4c1.3,0.1,4.3,0.8,5.4-0.4c0,0,0.1,0,0.1-0.1
			c0.2-0.2,0.3-0.4,0.3-0.7c0,0,0-0.1,0-0.1C831.4,364.9,831.4,364.9,831.4,364.8z"/>
		<path class="st12" d="M849.9,360.5c-0.3-3.6-1.2-7.2-2.8-10.5c-0.1-0.3-0.4-0.4-0.7-0.5c-0.1-0.1-0.2-0.1-0.4-0.1
			c-2.2-0.3-4.5-0.6-6.7-0.8c-0.6-0.1-1.1-0.1-1.7-0.2c-1.7-0.5-3.5-0.8-5.3-0.9c-0.1,0-0.1,0-0.2,0c-3.3-0.1-6.6-0.1-9.8-0.2
			c-0.7-0.1-1.3-0.1-2-0.2c-1.3-0.1-1.3,1.9,0,2c0.7,0.1,1.3,0.1,2,0.2c0,0,0,0,0,0c0,0,0,0,0,0c3.3,0.3,6.6,0.6,9.9,0.9
			c2.3,1.3,4.7,2.5,7.1,3.6c0.6,0.8,1.2,1.7,1.8,2.5c0,0.1,0,0.2,0,0.2c0,0.1-0.1,0.2,0,0.3c0,0.1,0,0.2,0,0.3
			c-0.1,2.1-0.1,4.2,0,6.3c0,0.1,0,0.3,0.1,0.4c0,0.1,0,0.3,0,0.4c0,0.2,0.1,0.3,0.1,0.4c0,0,0,0.1,0,0.1c0,0.1,0,0.3,0.1,0.4
			c0,0.1,0.1,0.2,0.2,0.3c0.1,0.1,0.1,0.1,0.2,0.1c0.7,0.7,2.1,0.6,3.1,0.6c1.5,0,2.9-0.1,4.4-0.4c0.4-0.1,0.7-0.6,0.7-1
			c0-0.9,0-1.9,0-2.8C850,361.7,850,361,849.9,360.5z"/>
		<path class="st12" d="M862.9,357.4C862.9,357.4,862.9,357.3,862.9,357.4c0-0.2,0-0.2,0-0.3c0-0.8-0.1-1.7-0.4-2.4
			c-0.2-0.5-0.5-0.9-1-1.1c-0.3-0.2-0.7-0.4-1-0.6c-0.3-0.2-0.6-0.4-0.9-0.6c-0.8-0.7-1.5-1.4-2.3-2.2c-0.3-0.3-0.8-0.4-1.1-0.2
			c-0.5,0.1-1,0.6-0.9,1.2c0,0.1,0.1,0.3,0.1,0.4c0,0.1,0,0.2,0,0.3c0,0.1,0.1,0.2,0.1,0.3c0.3,1.1,0.8,2.1,1.3,3.1
			c-0.3,3.2-0.4,6.4-0.3,9.6c0,0.6,0.4,0.9,1,1c0.9,0.1,1.7,0.1,2.6,0.1c0.8,0,1.8,0.1,2.2-0.7c0.2-0.4,0.2-0.9,0.2-1.3
			c0-0.4,0.1-0.9,0.1-1.3c0.1-0.9,0.1-1.7,0.1-2.6S863,358.3,862.9,357.4z"/>
		<path class="st12" d="M762.3,288.6c-0.1-1.1-0.2-2.3-0.2-3.4c0-0.5-0.4-0.9-0.8-1c0,0-0.1-0.1-0.1-0.1c-0.1-0.1-0.2-0.1-0.4-0.2
			c-0.3-0.1-0.5-0.1-0.8,0c-0.9,0.1-1.7,0.3-2.6,0.4c-0.1,0-0.3,0.1-0.4,0.2c-9.9,0-19.7,0.3-29.6,0.9c-0.7,0-1.1,0.5-1.3,1
			c-6.2,0.1-12.4,0.2-18.5,0.2c-5.1,0-30.8,1.2-30.8,1.2c0,0,0,0,0,0c-0.3-0.1-0.6-0.1-0.8,0.1c-0.9,0.6-1.9,1.3-2.8,1.9
			c-0.2,0.1-0.4,0.3-0.5,0.6c-0.1,0.2,0,0.6,0.1,0.8c0.2,0.4,0.8,0.6,1.2,0.4h0c0,0,0.1,0,0.1,0c0,0,0.1,0,0.1,0
			c0,0,46.1-0.6,65.2-0.9c5.5-0.1,11-0.1,16.5-0.2c0,0,0.1,0,0.1,0c1.7,0.1,3.5,0.2,5.2,0.1c0.4,0,0.7-0.2,0.8-0.5
			c0.3-0.2,0.5-0.4,0.4-0.8C762.5,289.2,762.5,288.9,762.3,288.6z"/>
		<path class="st12" d="M777,318.8C777,318.8,777,318.8,777,318.8c-8.3,0.4-16.5,0.6-24.7,0.6c-0.2,0-0.3,0-0.5,0.1
			c-0.2-0.1-0.3-0.1-0.5-0.1c-5.9,1-11.8,1.9-17.6,2.9c-0.4,0.1-0.6,0.3-0.7,0.5c-13.4-0.4-26.8-0.7-40.2-1.1
			c-0.3,0-0.5,0.1-0.7,0.3c-0.1,0-0.1,0-0.2,0.1c-0.8,0.3-1.5,0.7-2.3,1c0,0-0.1,0-0.1-0.1l-0.3,0c-0.2,0-0.3,0-0.5,0.1
			c-0.7,0.3-1.4,0.6-2.1,0.9c-0.2,0.1-0.4,0.4-0.5,0.6c-0.1,0.2,0,0.6,0.1,0.8c0.1,0.2,0.3,0.4,0.6,0.5c0,0,0,0,0,0
			c0.2,0.1,0.5,0.2,0.7,0.2c0.2,0.1,0.3,0.2,0.6,0.2h41.7c0.1,0,0.1,0,0.2,0c0,0,0.1,0,0.1,0h25.2c0.4,0,0.6-0.2,0.8-0.4
			c6.8-1.6,13.6-3.3,20.4-4.9c0,0,0.1,0,0.1,0c0.2-0.1,0.4-0.1,0.6-0.2C778.5,320.4,778.1,318.8,777,318.8z M705.4,324.3
			c0,0,0-0.1,0-0.1c1.4,0,2.8,0.1,4.2,0.1H705.4z"/>
		<path class="st12" d="M776.2,338.4c-0.1-0.6-0.4-1-1-1c-21.1-1.5-42.1,0.7-63.2,1.8c-6,0.3-12,0.5-18,0.5c0,0,0,0,0,0
			c-0.9-0.4-2.1,0.8-1.2,1.6c3.2,2.7,8,1.8,11.8,1.7c5-0.1,10.1-0.3,15.1-0.5c9.4-0.4,18.9-0.9,28.3-1.7c9.1,0.3,18.2,0.6,27.3,1
			c0.5,0,1.1-0.5,1-1C776.4,340,776.3,339.2,776.2,338.4z"/>
	</g>
</g>
</svg>
