<?xml version="1.0" encoding="utf-8"?>
<!-- Generator: Adobe Illustrator 23.0.5, SVG Export Plug-In . SVG Version: 6.00 Build 0)  -->
<svg version="1.1" id="publicdomainvectors.org" xmlns="http://www.w3.org/2000/svg" xmlns:xlink="http://www.w3.org/1999/xlink"
	 x="0px" y="0px" viewBox="0 0 286.32 227.73" style="enable-background:new 0 0 286.32 227.73;" xml:space="preserve">
<style type="text/css">
	.st0{fill-rule:evenodd;clip-rule:evenodd;fill:#FF4000;}
	.st1{fill-rule:evenodd;clip-rule:evenodd;fill:#FF6924;}
	.st2{fill-rule:evenodd;clip-rule:evenodd;fill:#FF854C;}
	.st3{fill-rule:evenodd;clip-rule:evenodd;fill:#FF9C6E;}
	.st4{fill-rule:evenodd;clip-rule:evenodd;fill:#FFD5C2;}
</style>
<g>
	<g>
		<g>
			<path class="st0" d="M143.16,53.69C161.05,17.89,178.95,0,214.74,0c39.51,0,71.58,32.07,71.58,71.58
				c0,71.58-71.58,84.56-143.16,156.14C71.58,156.15,0,143.16,0,71.58C0,32.07,32.07,0,71.58,0C107.37,0,125.27,17.89,143.16,53.69z
				"/>
			<path class="st1" d="M143.16,53.69C161.05,17.89,178.95,0,214.74,0c20.62,0,39.2,8.73,52.27,22.7
				c-13.51,72.06-77.24,133.51-166.69,167.82C45.55,148.5,0,128.68,0,71.58C0,32.07,32.07,0,71.58,0
				C107.37,0,125.27,17.89,143.16,53.69z"/>
			<path class="st2" d="M134.14,146.29c42.96-23.82,82.4-58.07,101.77-102.21c3.36-7.65,2.88-15.7-1.36-22.9
				c-4.24-7.2-11.05-11.52-19.37-12.29c-1.69-0.16-3.39-0.23-5.1-0.23c-9.55,0-18.95,1.45-27.26,6.41
				c-13.35,7.96-22.68,24.59-29.42,38.07l-14.9,29.79L123.6,53.14c-6.74-13.48-16.07-30.11-29.42-38.07
				c-8.31-4.96-17.71-6.41-27.27-6.41c-30.32,0-54.93,24.61-54.93,54.93c0,11.93,2.33,22.86,8.29,33.26
				c7.62,13.28,20.28,24.16,32.25,33.42c5.32,4.12,10.74,8.12,16.2,12.08C88.38,156.57,112.94,158.05,134.14,146.29z"/>
			<path class="st3" d="M48.28,76.56c15.4,0,27.96-12.56,27.96-27.95c0-15.4-12.56-27.96-27.96-27.96
				c-15.4,0-27.96,12.56-27.96,27.96C20.33,64,32.88,76.56,48.28,76.56z"/>
			<path class="st3" d="M194.09,61.96c11.83,0,21.47-9.65,21.47-21.47c0-11.83-9.65-21.47-21.47-21.47
				c-11.83,0-21.47,9.65-21.47,21.47C172.62,52.31,182.27,61.96,194.09,61.96z"/>
			<path class="st4" d="M66.1,22.3c-7.08,0-12.82,5.74-12.82,12.82c0,7.08,5.74,12.82,12.82,12.82c7.08,0,12.82-5.74,12.82-12.82
				C78.92,28.04,73.18,22.3,66.1,22.3L66.1,22.3z M77.25,52.26c4.05,0,7.33,3.28,7.33,7.33c0,4.04-3.28,7.32-7.33,7.32
				c-4.05,0-7.32-3.28-7.32-7.32C69.93,55.54,73.21,52.26,77.25,52.26z"/>
			<path class="st4" d="M205.02,12.53c-7.08,0-12.82,5.74-12.82,12.82c0,7.08,5.74,12.82,12.82,12.82c7.08,0,12.82-5.74,12.82-12.82
				C217.84,18.27,212.1,12.53,205.02,12.53L205.02,12.53z M216.17,42.49c4.04,0,7.32,3.28,7.32,7.33c0,4.05-3.28,7.32-7.32,7.32
				c-4.04,0-7.33-3.28-7.33-7.32C208.85,45.77,212.13,42.49,216.17,42.49z"/>
		</g>
	</g>
</g>
</svg>
