<svg id="Слой_1" data-name="Слой 1" xmlns="http://www.w3.org/2000/svg" viewBox="0 0 129.01 108.47">
  <defs>
    <style>
      .cls-1 {
        fill: #d40000;
      }
    </style>
  </defs>
  <title>2573-heart-189063_9</title>
  <g>
    <path class="cls-1" d="M27.49,0C13.64.36,0,13.41,0,29.12,0,56.25,50.38,89.66,53.23,91.53c2.85-1.87,53.23-35.28,53.23-62.41C106.46,13.41,92.81.36,79,0,68.56-.24,58.05,2.4,53.23,20.51,48.4,2.4,37.9-.24,27.49,0ZM30.7,7.75C39.79,7.52,49,13.6,53.23,29.55c4.27-15.95,13.44-22,22.53-21.8C87.93,8.05,100,19.54,100,33.34c0,23.76-43.93,53-46.74,54.83C50.41,86.32,6.49,57.1,6.49,33.34,6.49,19.54,18.53,8.05,30.7,7.75Z"/>
    <path class="cls-1" d="M61.63,30.38c-11.81.3-23.46,11.43-23.46,24.83,0,23.15,43,51.66,45.42,53.26C86,106.87,129,78.36,129,55.21c0-13.4-11.64-24.53-23.45-24.83-8.89-.22-17.85,2-22,17.49-4.11-15.46-13.08-17.71-22-17.49ZM64.37,37c7.76-.19,15.57,5,19.22,18.6C87.24,42,95.06,36.79,102.82,37c10.38.26,20.66,10.06,20.66,21.84,0,20.27-37.49,45.21-39.89,46.79C81.19,104,43.71,79.09,43.71,58.82,43.71,47,54,37.24,64.37,37Z"/>
  </g>
</svg>
